<svg width="177" height="121" viewBox="0 0 177 121" fill="none" xmlns="http://www.w3.org/2000/svg">
<rect x="85" y="35" width="60" height="45" rx="8" fill="#D55068"/>
<path d="M96.0227 62.571C95.1481 62.571 94.4387 62.2776 93.8947 61.691C93.3614 61.1043 93.0947 60.3096 93.0947 59.307V56.731C93.0947 55.7176 93.3614 54.9176 93.8947 54.331C94.4281 53.7443 95.1374 53.451 96.0227 53.451C96.7481 53.451 97.3294 53.6483 97.7667 54.043C98.2041 54.4376 98.4227 54.9656 98.4227 55.627L98.1347 55.291H98.4547L98.4227 53.291V50.731H99.8627V62.411H98.4227V60.731H98.1347L98.4227 60.395C98.4227 61.067 98.2041 61.6003 97.7667 61.995C97.3294 62.379 96.7481 62.571 96.0227 62.571ZM96.5027 61.323C97.1001 61.323 97.5694 61.1363 97.9107 60.763C98.2521 60.3896 98.4227 59.8723 98.4227 59.211V56.811C98.4227 56.1496 98.2521 55.6323 97.9107 55.259C97.5694 54.8856 97.1001 54.699 96.5027 54.699C95.8947 54.699 95.4147 54.8803 95.0627 55.243C94.7107 55.6056 94.5347 56.1283 94.5347 56.811V59.211C94.5347 59.8936 94.7107 60.4163 95.0627 60.779C95.4147 61.1416 95.8947 61.323 96.5027 61.323ZM106.128 62.571C105.435 62.571 104.827 62.4323 104.304 62.155C103.792 61.8776 103.392 61.4883 103.104 60.987C102.827 60.475 102.688 59.883 102.688 59.211V56.811C102.688 56.1283 102.827 55.5363 103.104 55.035C103.392 54.5336 103.792 54.1443 104.304 53.867C104.827 53.5896 105.435 53.451 106.128 53.451C106.822 53.451 107.424 53.5896 107.936 53.867C108.459 54.1443 108.859 54.5336 109.136 55.035C109.424 55.5363 109.568 56.1283 109.568 56.811V58.363H104.096V59.211C104.096 59.9043 104.272 60.4376 104.624 60.811C104.976 61.1736 105.478 61.355 106.128 61.355C106.683 61.355 107.131 61.259 107.472 61.067C107.814 60.8643 108.022 60.5656 108.096 60.171H109.536C109.44 60.907 109.078 61.4936 108.448 61.931C107.83 62.3576 107.056 62.571 106.128 62.571ZM108.16 57.403V56.811C108.16 56.1176 107.984 55.5843 107.632 55.211C107.291 54.8376 106.79 54.651 106.128 54.651C105.478 54.651 104.976 54.8376 104.624 55.211C104.272 55.5843 104.096 56.1176 104.096 56.811V57.275H108.272L108.16 57.403ZM115.786 62.571C115.082 62.571 114.464 62.4376 113.93 62.171C113.408 61.9043 113.002 61.5203 112.714 61.019C112.426 60.507 112.282 59.9043 112.282 59.211V56.811C112.282 56.107 112.426 55.5043 112.714 55.003C113.002 54.5016 113.408 54.1176 113.93 53.851C114.464 53.5843 115.082 53.451 115.786 53.451C116.8 53.451 117.616 53.723 118.234 54.267C118.853 54.811 119.178 55.5523 119.21 56.491H117.77C117.738 55.9256 117.546 55.4936 117.194 55.195C116.853 54.8856 116.384 54.731 115.786 54.731C115.157 54.731 114.656 54.9123 114.282 55.275C113.909 55.627 113.722 56.1336 113.722 56.795V59.211C113.722 59.8723 113.909 60.3843 114.282 60.747C114.656 61.1096 115.157 61.291 115.786 61.291C116.384 61.291 116.853 61.1363 117.194 60.827C117.546 60.5176 117.738 60.0856 117.77 59.531H119.21C119.178 60.4696 118.853 61.211 118.234 61.755C117.616 62.299 116.8 62.571 115.786 62.571ZM128.276 64.331C126.761 63.9576 125.583 63.2216 124.74 62.123C123.897 61.0243 123.476 59.6803 123.476 58.091V55.211C123.476 54.1656 123.668 53.2216 124.052 52.379C124.447 51.5256 125.001 50.8056 125.716 50.219C126.441 49.6323 127.295 49.2163 128.276 48.971V50.331C127.593 50.491 127.001 50.8003 126.5 51.259C125.999 51.707 125.609 52.267 125.332 52.939C125.055 53.611 124.916 54.3683 124.916 55.211V58.091C124.916 58.9123 125.049 59.659 125.316 60.331C125.593 61.003 125.983 61.563 126.484 62.011C126.996 62.4483 127.593 62.747 128.276 62.907V64.331ZM131.95 64.331V62.907C132.643 62.747 133.24 62.4483 133.742 62.011C134.243 61.563 134.627 61.003 134.894 60.331C135.171 59.659 135.31 58.9123 135.31 58.091V55.211C135.31 54.3683 135.171 53.611 134.894 52.939C134.616 52.267 134.227 51.707 133.726 51.259C133.224 50.8003 132.632 50.491 131.95 50.331V48.971C132.942 49.2163 133.795 49.6323 134.51 50.219C135.224 50.8056 135.774 51.5256 136.158 52.379C136.552 53.2216 136.75 54.1656 136.75 55.211V58.091C136.75 59.6803 136.328 61.0243 135.486 62.123C134.643 63.2216 133.464 63.9576 131.95 64.331Z" fill="white"/>
<rect x="13" y="35" width="60" height="45" rx="8" fill="#7954F6"/>
<path d="M21.0947 62.411V61.099H24.2147V54.923H21.4947V53.611H25.6547V61.099H28.6147V62.411H21.0947ZM24.7747 52.027C24.4227 52.027 24.1453 51.9363 23.9427 51.755C23.74 51.5736 23.6387 51.3283 23.6387 51.019C23.6387 50.699 23.74 50.4483 23.9427 50.267C24.1453 50.075 24.4227 49.979 24.7747 49.979C25.1267 49.979 25.404 50.075 25.6067 50.267C25.8093 50.4483 25.9107 50.699 25.9107 51.019C25.9107 51.3283 25.8093 51.5736 25.6067 51.755C25.404 51.9363 25.1267 52.027 24.7747 52.027ZM30.8004 62.411V53.611H32.2404V55.291H32.5444L32.2404 55.627C32.2404 54.9336 32.4484 54.4003 32.8644 54.027C33.2804 53.643 33.8564 53.451 34.5924 53.451C35.4778 53.451 36.1818 53.723 36.7044 54.267C37.2271 54.811 37.4884 55.5523 37.4884 56.491V62.411H36.0484V56.651C36.0484 56.0216 35.8778 55.5416 35.5364 55.211C35.2058 54.8696 34.7524 54.699 34.1764 54.699C33.5791 54.699 33.1044 54.8803 32.7524 55.243C32.4111 55.6056 32.2404 56.1283 32.2404 56.811V62.411H30.8004ZM43.7862 62.571C43.0822 62.571 42.4635 62.4376 41.9302 62.171C41.4075 61.9043 41.0022 61.5203 40.7142 61.019C40.4262 60.507 40.2822 59.9043 40.2822 59.211V56.811C40.2822 56.107 40.4262 55.5043 40.7142 55.003C41.0022 54.5016 41.4075 54.1176 41.9302 53.851C42.4635 53.5843 43.0822 53.451 43.7862 53.451C44.7995 53.451 45.6155 53.723 46.2342 54.267C46.8528 54.811 47.1782 55.5523 47.2102 56.491H45.7702C45.7382 55.9256 45.5462 55.4936 45.1942 55.195C44.8528 54.8856 44.3835 54.731 43.7862 54.731C43.1568 54.731 42.6555 54.9123 42.2822 55.275C41.9088 55.627 41.7222 56.1336 41.7222 56.795V59.211C41.7222 59.8723 41.9088 60.3843 42.2822 60.747C42.6555 61.1096 43.1568 61.291 43.7862 61.291C44.3835 61.291 44.8528 61.1363 45.1942 60.827C45.5462 60.5176 45.7382 60.0856 45.7702 59.531H47.2102C47.1782 60.4696 46.8528 61.211 46.2342 61.755C45.6155 62.299 44.7995 62.571 43.7862 62.571ZM56.2759 64.331C54.7613 63.9576 53.5826 63.2216 52.7399 62.123C51.8973 61.0243 51.4759 59.6803 51.4759 58.091V55.211C51.4759 54.1656 51.6679 53.2216 52.0519 52.379C52.4466 51.5256 53.0013 50.8056 53.7159 50.219C54.4413 49.6323 55.2946 49.2163 56.2759 48.971V50.331C55.5933 50.491 55.0013 50.8003 54.4999 51.259C53.9986 51.707 53.6093 52.267 53.3319 52.939C53.0546 53.611 52.9159 54.3683 52.9159 55.211V58.091C52.9159 58.9123 53.0493 59.659 53.3159 60.331C53.5933 61.003 53.9826 61.563 54.4839 62.011C54.9959 62.4483 55.5933 62.747 56.2759 62.907V64.331ZM59.9497 64.331V62.907C60.643 62.747 61.2403 62.4483 61.7417 62.011C62.243 61.563 62.627 61.003 62.8937 60.331C63.171 59.659 63.3097 58.9123 63.3097 58.091V55.211C63.3097 54.3683 63.171 53.611 62.8937 52.939C62.6163 52.267 62.227 51.707 61.7257 51.259C61.2243 50.8003 60.6323 50.491 59.9497 50.331V48.971C60.9417 49.2163 61.795 49.6323 62.5097 50.219C63.2243 50.8056 63.7737 51.5256 64.1577 52.379C64.5523 53.2216 64.7497 54.1656 64.7497 55.211V58.091C64.7497 59.6803 64.3283 61.0243 63.4857 62.123C62.643 63.2216 61.4643 63.9576 59.9497 64.331Z" fill="white"/>
<rect x="0.5" y="0.5" width="176" height="120" rx="11.5" stroke="black"/>
<path d="M18.864 25.16C18.16 25.16 17.5413 25.0267 17.008 24.76C16.4853 24.4933 16.08 24.1093 15.792 23.608C15.504 23.096 15.36 22.4933 15.36 21.8V19.4C15.36 18.696 15.504 18.0933 15.792 17.592C16.08 17.0907 16.4853 16.7067 17.008 16.44C17.5413 16.1733 18.16 16.04 18.864 16.04C19.8773 16.04 20.6933 16.312 21.312 16.856C21.9307 17.4 22.256 18.1413 22.288 19.08H20.848C20.816 18.5147 20.624 18.0827 20.272 17.784C19.9307 17.4747 19.4613 17.32 18.864 17.32C18.2347 17.32 17.7333 17.5013 17.36 17.864C16.9867 18.216 16.8 18.7227 16.8 19.384V21.8C16.8 22.4613 16.9867 22.9733 17.36 23.336C17.7333 23.6987 18.2347 23.88 18.864 23.88C19.4613 23.88 19.9307 23.7253 20.272 23.416C20.624 23.1067 20.816 22.6747 20.848 22.12H22.288C22.256 23.0587 21.9307 23.8 21.312 24.344C20.6933 24.888 19.8773 25.16 18.864 25.16ZM29.5938 25C29.0818 25 28.6338 24.8987 28.2498 24.696C27.8658 24.4933 27.5671 24.2053 27.3538 23.832C27.1404 23.4587 27.0338 23.0213 27.0338 22.52V14.632H24.0738V13.32H28.4738V22.52C28.4738 22.8827 28.5751 23.1707 28.7778 23.384C28.9804 23.5867 29.2524 23.688 29.5938 23.688H32.3938V25H29.5938ZM37.2195 25.16C36.2915 25.16 35.5608 24.9253 35.0275 24.456C34.4942 23.976 34.2275 23.3307 34.2275 22.52C34.2275 21.6987 34.4942 21.0533 35.0275 20.584C35.5608 20.1147 36.2808 19.88 37.1875 19.88H39.9075V19C39.9075 18.456 39.7422 18.04 39.4115 17.752C39.0915 17.4533 38.6328 17.304 38.0355 17.304C37.5128 17.304 37.0755 17.416 36.7235 17.64C36.3715 17.8533 36.1688 18.1467 36.1155 18.52H34.6755C34.7715 17.7627 35.1288 17.16 35.7475 16.712C36.3662 16.264 37.1395 16.04 38.0675 16.04C39.0808 16.04 39.8808 16.3013 40.4675 16.824C41.0542 17.3467 41.3475 18.056 41.3475 18.952V25H39.9395V23.32H39.6995L39.9395 23.08C39.9395 23.72 39.6888 24.2267 39.1875 24.6C38.6968 24.9733 38.0408 25.16 37.2195 25.16ZM37.5715 24.024C38.2542 24.024 38.8142 23.8533 39.2515 23.512C39.6888 23.1707 39.9075 22.7333 39.9075 22.2V20.952H37.2195C36.7395 20.952 36.3608 21.0853 36.0835 21.352C35.8062 21.6187 35.6675 21.9813 35.6675 22.44C35.6675 22.9307 35.8328 23.32 36.1635 23.608C36.5048 23.8853 36.9742 24.024 37.5715 24.024ZM47.3093 25.128C46.7119 25.128 46.1893 25.0373 45.7413 24.856C45.3039 24.664 44.9519 24.3973 44.6853 24.056C44.4293 23.7147 44.2746 23.3093 44.2213 22.84H45.6613C45.7253 23.1493 45.8959 23.3947 46.1733 23.576C46.4613 23.7573 46.8399 23.848 47.3093 23.848H47.9813C48.5466 23.848 48.9679 23.736 49.2453 23.512C49.5226 23.2773 49.6613 22.968 49.6613 22.584C49.6613 22.2107 49.5333 21.9173 49.2773 21.704C49.0319 21.48 48.6639 21.3307 48.1733 21.256L46.9893 21.064C46.1253 20.9147 45.4799 20.648 45.0533 20.264C44.6373 19.8693 44.4293 19.2987 44.4293 18.552C44.4293 17.7627 44.6799 17.1547 45.1813 16.728C45.6826 16.2907 46.4346 16.072 47.4373 16.072H48.0453C48.8879 16.072 49.5653 16.2693 50.0773 16.664C50.5893 17.0587 50.8986 17.592 51.0052 18.264H49.5653C49.5013 17.9867 49.3413 17.768 49.0853 17.608C48.8293 17.4373 48.4826 17.352 48.0453 17.352H47.4373C46.8933 17.352 46.4933 17.4533 46.2373 17.656C45.9919 17.8587 45.8693 18.1627 45.8693 18.568C45.8693 18.9307 45.9759 19.1973 46.1893 19.368C46.4026 19.5387 46.7386 19.6613 47.1973 19.736L48.3813 19.928C49.3306 20.0773 50.0186 20.3547 50.4453 20.76C50.8826 21.1653 51.1013 21.752 51.1013 22.52C51.1013 23.3307 50.8399 23.9707 50.3173 24.44C49.8053 24.8987 49.0266 25.128 47.9813 25.128H47.3093ZM56.903 25.128C56.3057 25.128 55.783 25.0373 55.335 24.856C54.8977 24.664 54.5457 24.3973 54.279 24.056C54.023 23.7147 53.8683 23.3093 53.815 22.84H55.255C55.319 23.1493 55.4897 23.3947 55.767 23.576C56.055 23.7573 56.4337 23.848 56.903 23.848H57.575C58.1403 23.848 58.5617 23.736 58.839 23.512C59.1163 23.2773 59.255 22.968 59.255 22.584C59.255 22.2107 59.127 21.9173 58.871 21.704C58.6257 21.48 58.2577 21.3307 57.767 21.256L56.583 21.064C55.719 20.9147 55.0737 20.648 54.647 20.264C54.231 19.8693 54.023 19.2987 54.023 18.552C54.023 17.7627 54.2737 17.1547 54.775 16.728C55.2763 16.2907 56.0283 16.072 57.031 16.072H57.639C58.4817 16.072 59.159 16.2693 59.671 16.664C60.183 17.0587 60.4923 17.592 60.599 18.264H59.159C59.095 17.9867 58.935 17.768 58.679 17.608C58.423 17.4373 58.0763 17.352 57.639 17.352H57.031C56.487 17.352 56.087 17.4533 55.831 17.656C55.5857 17.8587 55.463 18.1627 55.463 18.568C55.463 18.9307 55.5697 19.1973 55.783 19.368C55.9963 19.5387 56.3323 19.6613 56.791 19.736L57.975 19.928C58.9243 20.0773 59.6123 20.3547 60.039 20.76C60.4763 21.1653 60.695 21.752 60.695 22.52C60.695 23.3307 60.4337 23.9707 59.911 24.44C59.399 24.8987 58.6203 25.128 57.575 25.128H56.903ZM76.4265 25.16C75.7225 25.16 75.1092 25.0267 74.5865 24.76C74.0745 24.4933 73.6745 24.1093 73.3865 23.608C73.1092 23.096 72.9705 22.4933 72.9705 21.8V16.52C72.9705 15.816 73.1092 15.2133 73.3865 14.712C73.6745 14.2107 74.0745 13.8267 74.5865 13.56C75.1092 13.2933 75.7225 13.16 76.4265 13.16C77.1305 13.16 77.7385 13.2987 78.2505 13.576C78.7625 13.8427 79.1572 14.2267 79.4345 14.728C79.7118 15.2293 79.8505 15.8267 79.8505 16.52H78.4105C78.4105 15.8587 78.2345 15.352 77.8825 15C77.5412 14.6373 77.0558 14.456 76.4265 14.456C75.7972 14.456 75.3012 14.632 74.9385 14.984C74.5865 15.336 74.4105 15.8427 74.4105 16.504V21.8C74.4105 22.4613 74.5865 22.9733 74.9385 23.336C75.3012 23.688 75.7972 23.864 76.4265 23.864C77.0558 23.864 77.5412 23.688 77.8825 23.336C78.2345 22.9733 78.4105 22.4613 78.4105 21.8H79.8505C79.8505 22.4827 79.7118 23.08 79.4345 23.592C79.1572 24.0933 78.7625 24.4827 78.2505 24.76C77.7385 25.0267 77.1305 25.16 76.4265 25.16ZM85.9563 25.128C85.2523 25.128 84.6443 24.9947 84.1323 24.728C83.6203 24.4613 83.2203 24.0773 82.9323 23.576C82.6549 23.064 82.5163 22.4613 82.5163 21.768V19.432C82.5163 18.728 82.6549 18.1253 82.9323 17.624C83.2203 17.1227 83.6203 16.7387 84.1323 16.472C84.6443 16.2053 85.2523 16.072 85.9563 16.072C86.6603 16.072 87.2683 16.2053 87.7803 16.472C88.2923 16.7387 88.6869 17.1227 88.9643 17.624C89.2523 18.1253 89.3963 18.7227 89.3963 19.416V21.768C89.3963 22.4613 89.2523 23.064 88.9643 23.576C88.6869 24.0773 88.2923 24.4613 87.7803 24.728C87.2683 24.9947 86.6603 25.128 85.9563 25.128ZM85.9563 23.848C86.5856 23.848 87.0763 23.672 87.4283 23.32C87.7803 22.968 87.9563 22.4507 87.9563 21.768V19.432C87.9563 18.7493 87.7803 18.232 87.4283 17.88C87.0763 17.528 86.5856 17.352 85.9563 17.352C85.3376 17.352 84.8469 17.528 84.4843 17.88C84.1323 18.232 83.9563 18.7493 83.9563 19.432V21.768C83.9563 22.4507 84.1323 22.968 84.4843 23.32C84.8469 23.672 85.3376 23.848 85.9563 23.848ZM95.534 25.16C94.5207 25.16 93.71 24.8613 93.102 24.264C92.494 23.656 92.19 22.8347 92.19 21.8V16.2H93.63V21.8C93.63 22.4613 93.8007 22.9787 94.142 23.352C94.4833 23.7147 94.9473 23.896 95.534 23.896C96.1313 23.896 96.6007 23.7147 96.942 23.352C97.294 22.9787 97.47 22.4613 97.47 21.8V16.2H98.91V21.8C98.91 22.8347 98.6007 23.656 97.982 24.264C97.3633 24.8613 96.5473 25.16 95.534 25.16ZM101.816 25V16.2H103.256V17.88H103.56L103.256 18.216C103.256 17.5227 103.464 16.9893 103.88 16.616C104.296 16.232 104.872 16.04 105.608 16.04C106.493 16.04 107.197 16.312 107.72 16.856C108.242 17.4 108.504 18.1413 108.504 19.08V25H107.064V19.24C107.064 18.6107 106.893 18.1307 106.552 17.8C106.221 17.4587 105.768 17.288 105.192 17.288C104.594 17.288 104.12 17.4693 103.768 17.832C103.426 18.1947 103.256 18.7173 103.256 19.4V25H101.816ZM115.698 25C114.94 25 114.348 24.7973 113.922 24.392C113.506 23.9867 113.298 23.416 113.298 22.68V17.512H110.818V16.2H113.298V13.72H114.738V16.2H118.258V17.512H114.738V22.68C114.738 23.352 115.058 23.688 115.698 23.688H118.098V25H115.698ZM124.331 25.16C123.638 25.16 123.03 25.0213 122.507 24.744C121.995 24.4667 121.595 24.0773 121.307 23.576C121.03 23.064 120.891 22.472 120.891 21.8V19.4C120.891 18.7173 121.03 18.1253 121.307 17.624C121.595 17.1227 121.995 16.7333 122.507 16.456C123.03 16.1787 123.638 16.04 124.331 16.04C125.025 16.04 125.627 16.1787 126.139 16.456C126.662 16.7333 127.062 17.1227 127.339 17.624C127.627 18.1253 127.771 18.7173 127.771 19.4V20.952H122.299V21.8C122.299 22.4933 122.475 23.0267 122.827 23.4C123.179 23.7627 123.681 23.944 124.331 23.944C124.886 23.944 125.334 23.848 125.675 23.656C126.017 23.4533 126.225 23.1547 126.299 22.76H127.739C127.643 23.496 127.281 24.0827 126.651 24.52C126.033 24.9467 125.259 25.16 124.331 25.16ZM126.363 19.992V19.4C126.363 18.7067 126.187 18.1733 125.835 17.8C125.494 17.4267 124.993 17.24 124.331 17.24C123.681 17.24 123.179 17.4267 122.827 17.8C122.475 18.1733 122.299 18.7067 122.299 19.4V19.864H126.475L126.363 19.992ZM130.901 25V16.2H132.309V17.88H132.645L132.181 18.92C132.181 17.9707 132.384 17.256 132.789 16.776C133.205 16.2853 133.818 16.04 134.629 16.04C135.557 16.04 136.293 16.3333 136.837 16.92C137.392 17.496 137.669 18.28 137.669 19.272V19.8H136.229V19.4C136.229 18.7067 136.058 18.1787 135.717 17.816C135.386 17.4427 134.912 17.256 134.293 17.256C133.685 17.256 133.205 17.4427 132.853 17.816C132.512 18.1893 132.341 18.7173 132.341 19.4V25H130.901ZM155.833 26.76C155.203 26.76 154.659 26.6533 154.201 26.44C153.753 26.2373 153.411 25.9333 153.177 25.528C152.942 25.1333 152.841 24.6587 152.873 24.104L153.033 21.48C153.065 20.9147 152.979 20.5093 152.777 20.264C152.574 20.008 152.126 19.88 151.433 19.88H149.673V18.6H151.433C152.126 18.6 152.574 18.4773 152.777 18.232C152.979 17.976 153.065 17.5653 153.033 17L152.873 14.376C152.841 13.8107 152.942 13.3307 153.177 12.936C153.411 12.5413 153.753 12.2427 154.201 12.04C154.659 11.8267 155.203 11.72 155.833 11.72H156.553V13H155.833C155.331 13 154.947 13.1173 154.681 13.352C154.414 13.576 154.291 13.9173 154.313 14.376L154.473 17C154.515 17.6933 154.35 18.248 153.977 18.664C153.603 19.0693 153.075 19.272 152.393 19.272V19.192C153.065 19.192 153.587 19.4 153.961 19.816C154.345 20.232 154.515 20.7867 154.473 21.48L154.313 24.104C154.291 24.5627 154.414 24.904 154.681 25.128C154.947 25.3627 155.331 25.48 155.833 25.48H156.553V26.76H155.833Z" fill="black"/>
<path d="M15.36 108.76V107.48H16.08C16.5813 107.48 16.9653 107.363 17.232 107.128C17.4987 106.904 17.6213 106.563 17.6 106.104L17.44 103.48C17.3973 102.787 17.5627 102.232 17.936 101.816C18.32 101.4 18.848 101.192 19.52 101.192V101.272C18.8373 101.272 18.3093 101.069 17.936 100.664C17.5627 100.248 17.3973 99.6933 17.44 99L17.6 96.376C17.6213 95.9173 17.4987 95.576 17.232 95.352C16.9653 95.1173 16.5813 95 16.08 95H15.36V93.72H16.08C16.7093 93.72 17.248 93.8267 17.696 94.04C18.1547 94.2427 18.5013 94.5413 18.736 94.936C18.9707 95.3307 19.072 95.8107 19.04 96.376L18.88 99C18.848 99.5653 18.9333 99.976 19.136 100.232C19.3387 100.477 19.7867 100.6 20.48 100.6H22.24V101.88H20.48C19.7973 101.88 19.3493 102.008 19.136 102.264C18.9333 102.509 18.848 102.915 18.88 103.48L19.04 106.104C19.072 106.659 18.9707 107.133 18.736 107.528C18.5013 107.933 18.1547 108.237 17.696 108.44C17.248 108.653 16.7093 108.76 16.08 108.76H15.36Z" fill="black"/>
</svg>
