<svg width="625" height="280" viewBox="0 0 625 280" fill="none" xmlns="http://www.w3.org/2000/svg">
<rect x="159" width="150" height="205" rx="8" fill="#F2F2F2"/>
<line x1="199.5" y1="10" x2="199.5" y2="200" stroke="black"/>
<line x1="271.5" y1="10" x2="271.5" y2="200" stroke="black"/>
<rect x="241" y="119" width="60" height="45" rx="8" fill="#7954F6"/>
<path d="M249.095 146.411V145.099H252.215V138.923H249.495V137.611H253.655V145.099H256.615V146.411H249.095ZM252.775 136.027C252.423 136.027 252.145 135.936 251.943 135.755C251.74 135.574 251.639 135.328 251.639 135.019C251.639 134.699 251.74 134.448 251.943 134.267C252.145 134.075 252.423 133.979 252.775 133.979C253.127 133.979 253.404 134.075 253.607 134.267C253.809 134.448 253.911 134.699 253.911 135.019C253.911 135.328 253.809 135.574 253.607 135.755C253.404 135.936 253.127 136.027 252.775 136.027ZM258.8 146.411V137.611H260.24V139.291H260.544L260.24 139.627C260.24 138.934 260.448 138.4 260.864 138.027C261.28 137.643 261.856 137.451 262.592 137.451C263.478 137.451 264.182 137.723 264.704 138.267C265.227 138.811 265.488 139.552 265.488 140.491V146.411H264.048V140.651C264.048 140.022 263.878 139.542 263.536 139.211C263.206 138.87 262.752 138.699 262.176 138.699C261.579 138.699 261.104 138.88 260.752 139.243C260.411 139.606 260.24 140.128 260.24 140.811V146.411H258.8ZM271.786 146.571C271.082 146.571 270.464 146.438 269.93 146.171C269.408 145.904 269.002 145.52 268.714 145.019C268.426 144.507 268.282 143.904 268.282 143.211V140.811C268.282 140.107 268.426 139.504 268.714 139.003C269.002 138.502 269.408 138.118 269.93 137.851C270.464 137.584 271.082 137.451 271.786 137.451C272.8 137.451 273.616 137.723 274.234 138.267C274.853 138.811 275.178 139.552 275.21 140.491H273.77C273.738 139.926 273.546 139.494 273.194 139.195C272.853 138.886 272.384 138.731 271.786 138.731C271.157 138.731 270.656 138.912 270.282 139.275C269.909 139.627 269.722 140.134 269.722 140.795V143.211C269.722 143.872 269.909 144.384 270.282 144.747C270.656 145.11 271.157 145.291 271.786 145.291C272.384 145.291 272.853 145.136 273.194 144.827C273.546 144.518 273.738 144.086 273.77 143.531H275.21C275.178 144.47 274.853 145.211 274.234 145.755C273.616 146.299 272.8 146.571 271.786 146.571ZM284.276 148.331C282.761 147.958 281.583 147.222 280.74 146.123C279.897 145.024 279.476 143.68 279.476 142.091V139.211C279.476 138.166 279.668 137.222 280.052 136.379C280.447 135.526 281.001 134.806 281.716 134.219C282.441 133.632 283.295 133.216 284.276 132.971V134.331C283.593 134.491 283.001 134.8 282.5 135.259C281.999 135.707 281.609 136.267 281.332 136.939C281.055 137.611 280.916 138.368 280.916 139.211V142.091C280.916 142.912 281.049 143.659 281.316 144.331C281.593 145.003 281.983 145.563 282.484 146.011C282.996 146.448 283.593 146.747 284.276 146.907V148.331ZM287.95 148.331V146.907C288.643 146.747 289.24 146.448 289.742 146.011C290.243 145.563 290.627 145.003 290.894 144.331C291.171 143.659 291.31 142.912 291.31 142.091V139.211C291.31 138.368 291.171 137.611 290.894 136.939C290.616 136.267 290.227 135.707 289.726 135.259C289.224 134.8 288.632 134.491 287.95 134.331V132.971C288.942 133.216 289.795 133.632 290.51 134.219C291.224 134.806 291.774 135.526 292.158 136.379C292.552 137.222 292.75 138.166 292.75 139.211V142.091C292.75 143.68 292.328 145.024 291.486 146.123C290.643 147.222 289.464 147.958 287.95 148.331Z" fill="white"/>
<rect x="241" y="68" width="60" height="45" rx="8" fill="#D55068"/>
<path d="M252.023 95.5709C251.148 95.5709 250.439 95.2776 249.895 94.6909C249.361 94.1043 249.095 93.3096 249.095 92.3069V89.7309C249.095 88.7176 249.361 87.9176 249.895 87.3309C250.428 86.7443 251.137 86.4509 252.023 86.4509C252.748 86.4509 253.329 86.6483 253.767 87.0429C254.204 87.4376 254.423 87.9656 254.423 88.6269L254.135 88.2909H254.455L254.423 86.2909V83.7309H255.863V95.4109H254.423V93.7309H254.135L254.423 93.3949C254.423 94.0669 254.204 94.6003 253.767 94.9949C253.329 95.3789 252.748 95.5709 252.023 95.5709ZM252.503 94.3229C253.1 94.3229 253.569 94.1363 253.911 93.7629C254.252 93.3896 254.423 92.8723 254.423 92.2109V89.8109C254.423 89.1496 254.252 88.6323 253.911 88.2589C253.569 87.8856 253.1 87.6989 252.503 87.6989C251.895 87.6989 251.415 87.8803 251.063 88.2429C250.711 88.6056 250.535 89.1283 250.535 89.8109V92.2109C250.535 92.8936 250.711 93.4163 251.063 93.7789C251.415 94.1416 251.895 94.3229 252.503 94.3229ZM262.128 95.5709C261.435 95.5709 260.827 95.4323 260.304 95.1549C259.792 94.8776 259.392 94.4883 259.104 93.9869C258.827 93.4749 258.688 92.8829 258.688 92.2109V89.8109C258.688 89.1283 258.827 88.5363 259.104 88.0349C259.392 87.5336 259.792 87.1443 260.304 86.8669C260.827 86.5896 261.435 86.4509 262.128 86.4509C262.822 86.4509 263.424 86.5896 263.936 86.8669C264.459 87.1443 264.859 87.5336 265.136 88.0349C265.424 88.5363 265.568 89.1283 265.568 89.8109V91.3629H260.096V92.2109C260.096 92.9043 260.272 93.4376 260.624 93.8109C260.976 94.1736 261.478 94.3549 262.128 94.3549C262.683 94.3549 263.131 94.2589 263.472 94.0669C263.814 93.8643 264.022 93.5656 264.096 93.1709H265.536C265.44 93.9069 265.078 94.4936 264.448 94.9309C263.83 95.3576 263.056 95.5709 262.128 95.5709ZM264.16 90.4029V89.8109C264.16 89.1176 263.984 88.5843 263.632 88.2109C263.291 87.8376 262.79 87.6509 262.128 87.6509C261.478 87.6509 260.976 87.8376 260.624 88.2109C260.272 88.5843 260.096 89.1176 260.096 89.8109V90.2749H264.272L264.16 90.4029ZM271.786 95.5709C271.082 95.5709 270.464 95.4376 269.93 95.1709C269.408 94.9043 269.002 94.5203 268.714 94.0189C268.426 93.5069 268.282 92.9043 268.282 92.2109V89.8109C268.282 89.1069 268.426 88.5043 268.714 88.0029C269.002 87.5016 269.408 87.1176 269.93 86.8509C270.464 86.5843 271.082 86.4509 271.786 86.4509C272.8 86.4509 273.616 86.7229 274.234 87.2669C274.853 87.8109 275.178 88.5523 275.21 89.4909H273.77C273.738 88.9256 273.546 88.4936 273.194 88.1949C272.853 87.8856 272.384 87.7309 271.786 87.7309C271.157 87.7309 270.656 87.9123 270.282 88.2749C269.909 88.6269 269.722 89.1336 269.722 89.7949V92.2109C269.722 92.8723 269.909 93.3843 270.282 93.7469C270.656 94.1096 271.157 94.2909 271.786 94.2909C272.384 94.2909 272.853 94.1363 273.194 93.8269C273.546 93.5176 273.738 93.0856 273.77 92.5309H275.21C275.178 93.4696 274.853 94.2109 274.234 94.7549C273.616 95.2989 272.8 95.5709 271.786 95.5709ZM284.276 97.3309C282.761 96.9576 281.583 96.2216 280.74 95.1229C279.897 94.0243 279.476 92.6803 279.476 91.0909V88.2109C279.476 87.1656 279.668 86.2216 280.052 85.3789C280.447 84.5256 281.001 83.8056 281.716 83.2189C282.441 82.6323 283.295 82.2163 284.276 81.9709V83.3309C283.593 83.4909 283.001 83.8003 282.5 84.2589C281.999 84.7069 281.609 85.2669 281.332 85.9389C281.055 86.6109 280.916 87.3683 280.916 88.2109V91.0909C280.916 91.9123 281.049 92.6589 281.316 93.3309C281.593 94.0029 281.983 94.5629 282.484 95.0109C282.996 95.4483 283.593 95.7469 284.276 95.9069V97.3309ZM287.95 97.3309V95.9069C288.643 95.7469 289.24 95.4483 289.742 95.0109C290.243 94.5629 290.627 94.0029 290.894 93.3309C291.171 92.6589 291.31 91.9123 291.31 91.0909V88.2109C291.31 87.3683 291.171 86.6109 290.894 85.9389C290.616 85.2669 290.227 84.7069 289.726 84.2589C289.224 83.8003 288.632 83.4909 287.95 83.3309V81.9709C288.942 82.2163 289.795 82.6323 290.51 83.2189C291.224 83.8056 291.774 84.5256 292.158 85.3789C292.552 86.2216 292.75 87.1656 292.75 88.2109V91.0909C292.75 92.6803 292.328 94.0243 291.486 95.1229C290.643 96.2216 289.464 96.9576 287.95 97.3309Z" fill="white"/>
<mask id="path-8-inside-1_1_210" fill="white">
<path d="M169 63H229V169H169V63Z"/>
</mask>
<path d="M169 63H229V169H169V63Z" fill="#9376F3" fill-opacity="0.2"/>
<path d="M169 63H168.5V63.9815H169H169.5V63H169ZM169 65.9444H168.5V67.9074H169H169.5V65.9444H169ZM169 69.8704H168.5V71.8333H169H169.5V69.8704H169ZM169 73.7963H168.5V75.7593H169H169.5V73.7963H169ZM169 77.7222H168.5V79.6852H169H169.5V77.7222H169ZM169 81.6481H168.5V83.6111H169H169.5V81.6481H169ZM169 85.5741H168.5V87.537H169H169.5V85.5741H169ZM169 89.5H168.5V91.463H169H169.5V89.5H169ZM169 93.4259H168.5V95.3889H169H169.5V93.4259H169ZM169 97.3519H168.5V99.3148H169H169.5V97.3519H169ZM169 101.278H168.5V103.241H169H169.5V101.278H169ZM169 105.204H168.5V107.167H169H169.5V105.204H169ZM169 109.13H168.5V111.093H169H169.5V109.13H169ZM169 113.056H168.5V115.019H169H169.5V113.056H169ZM169 116.981H168.5V118.944H169H169.5V116.981H169ZM169 120.907H168.5V122.87H169H169.5V120.907H169ZM169 124.833H168.5V126.796H169H169.5V124.833H169ZM169 128.759H168.5V130.722H169H169.5V128.759H169ZM169 132.685H168.5V134.648H169H169.5V132.685H169ZM169 136.611H168.5V138.574H169H169.5V136.611H169ZM169 140.537H168.5V142.5H169H169.5V140.537H169ZM169 144.463H168.5V146.426H169H169.5V144.463H169ZM169 148.389H168.5V150.352H169H169.5V148.389H169ZM169 152.315H168.5V154.278H169H169.5V152.315H169ZM169 156.241H168.5V158.204H169H169.5V156.241H169ZM169 160.167H168.5V162.13H169H169.5V160.167H169ZM169 164.093H168.5V166.055H169H169.5V164.093H169ZM169 168.018H168.5V169H169H169.5V168.018H169ZM229 169H229.5V168.019H229H228.5V169H229ZM229 166.056H229.5V164.093H229H228.5V166.056H229ZM229 162.13H229.5V160.167H229H228.5V162.13H229ZM229 158.204H229.5V156.241H229H228.5V158.204H229ZM229 154.278H229.5V152.315H229H228.5V154.278H229ZM229 150.352H229.5V148.389H229H228.5V150.352H229ZM229 146.426H229.5V144.463H229H228.5V146.426H229ZM229 142.5H229.5V140.537H229H228.5V142.5H229ZM229 138.574H229.5V136.611H229H228.5V138.574H229ZM229 134.648H229.5V132.685H229H228.5V134.648H229ZM229 130.722H229.5V128.759H229H228.5V130.722H229ZM229 126.796H229.5V124.833H229H228.5V126.796H229ZM229 122.87H229.5V120.907H229H228.5V122.87H229ZM229 118.944H229.5V116.981H229H228.5V118.944H229ZM229 115.019H229.5V113.056H229H228.5V115.019H229ZM229 111.093H229.5V109.13H229H228.5V111.093H229ZM229 107.167H229.5V105.204H229H228.5V107.167H229ZM229 103.241H229.5V101.278H229H228.5V103.241H229ZM229 99.3148H229.5V97.3519H229H228.5V99.3148H229ZM229 95.3889H229.5V93.4259H229H228.5V95.3889H229ZM229 91.463H229.5V89.5H229H228.5V91.463H229ZM229 87.5371H229.5V85.5741H229H228.5V87.5371H229ZM229 83.6111H229.5V81.6482H229H228.5V83.6111H229ZM229 79.6852H229.5V77.7223H229H228.5V79.6852H229ZM229 75.7593H229.5V73.7963H229H228.5V75.7593H229ZM229 71.8334H229.5V69.8704H229H228.5V71.8334H229ZM229 67.9075H229.5V65.9445H229H228.5V67.9075H229ZM229 63.9816H229.5V63H229H228.5V63.9816H229ZM169 63H168V63.9815H169H170V63H169ZM169 65.9444H168V67.9074H169H170V65.9444H169ZM169 69.8704H168V71.8333H169H170V69.8704H169ZM169 73.7963H168V75.7593H169H170V73.7963H169ZM169 77.7222H168V79.6852H169H170V77.7222H169ZM169 81.6481H168V83.6111H169H170V81.6481H169ZM169 85.5741H168V87.537H169H170V85.5741H169ZM169 89.5H168V91.463H169H170V89.5H169ZM169 93.4259H168V95.3889H169H170V93.4259H169ZM169 97.3519H168V99.3148H169H170V97.3519H169ZM169 101.278H168V103.241H169H170V101.278H169ZM169 105.204H168V107.167H169H170V105.204H169ZM169 109.13H168V111.093H169H170V109.13H169ZM169 113.056H168V115.019H169H170V113.056H169ZM169 116.981H168V118.944H169H170V116.981H169ZM169 120.907H168V122.87H169H170V120.907H169ZM169 124.833H168V126.796H169H170V124.833H169ZM169 128.759H168V130.722H169H170V128.759H169ZM169 132.685H168V134.648H169H170V132.685H169ZM169 136.611H168V138.574H169H170V136.611H169ZM169 140.537H168V142.5H169H170V140.537H169ZM169 144.463H168V146.426H169H170V144.463H169ZM169 148.389H168V150.352H169H170V148.389H169ZM169 152.315H168V154.278H169H170V152.315H169ZM169 156.241H168V158.204H169H170V156.241H169ZM169 160.167H168V162.13H169H170V160.167H169ZM169 164.093H168V166.055H169H170V164.093H169ZM169 168.018H168V169H169H170V168.018H169ZM229 169H230V168.019H229H228V169H229ZM229 166.056H230V164.093H229H228V166.056H229ZM229 162.13H230V160.167H229H228V162.13H229ZM229 158.204H230V156.241H229H228V158.204H229ZM229 154.278H230V152.315H229H228V154.278H229ZM229 150.352H230V148.389H229H228V150.352H229ZM229 146.426H230V144.463H229H228V146.426H229ZM229 142.5H230V140.537H229H228V142.5H229ZM229 138.574H230V136.611H229H228V138.574H229ZM229 134.648H230V132.685H229H228V134.648H229ZM229 130.722H230V128.759H229H228V130.722H229ZM229 126.796H230V124.833H229H228V126.796H229ZM229 122.87H230V120.907H229H228V122.87H229ZM229 118.944H230V116.981H229H228V118.944H229ZM229 115.019H230V113.056H229H228V115.019H229ZM229 111.093H230V109.13H229H228V111.093H229ZM229 107.167H230V105.204H229H228V107.167H229ZM229 103.241H230V101.278H229H228V103.241H229ZM229 99.3148H230V97.3519H229H228V99.3148H229ZM229 95.3889H230V93.4259H229H228V95.3889H229ZM229 91.463H230V89.5H229H228V91.463H229ZM229 87.5371H230V85.5741H229H228V87.5371H229ZM229 83.6111H230V81.6482H229H228V83.6111H229ZM229 79.6852H230V77.7223H229H228V79.6852H229ZM229 75.7593H230V73.7963H229H228V75.7593H229ZM229 71.8334H230V69.8704H229H228V71.8334H229ZM229 67.9075H230V65.9445H229H228V67.9075H229ZM229 63.9816H230V63H229H228V63.9816H229Z" fill="#7954F6" mask="url(#path-8-inside-1_1_210)"/>
<path d="M169 27C169 22.5817 172.582 19 177 19H221C225.418 19 229 22.5817 229 27V63H169V27Z" fill="#7954F6"/>
<path d="M177.36 45V43.688H180.48V37.512H177.76V36.2H181.92V43.688H184.88V45H177.36ZM181.04 34.616C180.688 34.616 180.411 34.5253 180.208 34.344C180.005 34.1627 179.904 33.9173 179.904 33.608C179.904 33.288 180.005 33.0373 180.208 32.856C180.411 32.664 180.688 32.568 181.04 32.568C181.392 32.568 181.669 32.664 181.872 32.856C182.075 33.0373 182.176 33.288 182.176 33.608C182.176 33.9173 182.075 34.1627 181.872 34.344C181.669 34.5253 181.392 34.616 181.04 34.616ZM187.066 45V36.2H188.506V37.88H188.81L188.506 38.216C188.506 37.5227 188.714 36.9893 189.13 36.616C189.546 36.232 190.122 36.04 190.858 36.04C191.743 36.04 192.447 36.312 192.97 36.856C193.492 37.4 193.754 38.1413 193.754 39.08V45H192.314V39.24C192.314 38.6107 192.143 38.1307 191.802 37.8C191.471 37.4587 191.018 37.288 190.442 37.288C189.844 37.288 189.37 37.4693 189.018 37.832C188.676 38.1947 188.506 38.7173 188.506 39.4V45H187.066ZM200.052 45.16C199.348 45.16 198.729 45.0267 198.196 44.76C197.673 44.4933 197.268 44.1093 196.98 43.608C196.692 43.096 196.548 42.4933 196.548 41.8V39.4C196.548 38.696 196.692 38.0933 196.98 37.592C197.268 37.0907 197.673 36.7067 198.196 36.44C198.729 36.1733 199.348 36.04 200.052 36.04C201.065 36.04 201.881 36.312 202.5 36.856C203.118 37.4 203.444 38.1413 203.476 39.08H202.036C202.004 38.5147 201.812 38.0827 201.46 37.784C201.118 37.4747 200.649 37.32 200.052 37.32C199.422 37.32 198.921 37.5013 198.548 37.864C198.174 38.216 197.988 38.7227 197.988 39.384V41.8C197.988 42.4613 198.174 42.9733 198.548 43.336C198.921 43.6987 199.422 43.88 200.052 43.88C200.649 43.88 201.118 43.7253 201.46 43.416C201.812 43.1067 202.004 42.6747 202.036 42.12H203.476C203.444 43.0587 203.118 43.8 202.5 44.344C201.881 44.888 201.065 45.16 200.052 45.16ZM212.541 46.92C211.027 46.5467 209.848 45.8107 209.005 44.712C208.163 43.6133 207.741 42.2693 207.741 40.68V37.8C207.741 36.7547 207.933 35.8107 208.317 34.968C208.712 34.1147 209.267 33.3947 209.981 32.808C210.707 32.2213 211.56 31.8053 212.541 31.56V32.92C211.859 33.08 211.267 33.3893 210.765 33.848C210.264 34.296 209.875 34.856 209.597 35.528C209.32 36.2 209.181 36.9573 209.181 37.8V40.68C209.181 41.5013 209.315 42.248 209.581 42.92C209.859 43.592 210.248 44.152 210.749 44.6C211.261 45.0373 211.859 45.336 212.541 45.496V46.92ZM216.215 46.92V45.496C216.908 45.336 217.506 45.0373 218.007 44.6C218.508 44.152 218.892 43.592 219.159 42.92C219.436 42.248 219.575 41.5013 219.575 40.68V37.8C219.575 36.9573 219.436 36.2 219.159 35.528C218.882 34.856 218.492 34.296 217.991 33.848C217.49 33.3893 216.898 33.08 216.215 32.92V31.56C217.207 31.8053 218.06 32.2213 218.775 32.808C219.49 33.3947 220.039 34.1147 220.423 34.968C220.818 35.8107 221.015 36.7547 221.015 37.8V40.68C221.015 42.2693 220.594 43.6133 219.751 44.712C218.908 45.8107 217.73 46.5467 216.215 46.92Z" fill="white"/>
<path d="M169 169H229V185C229 188.314 226.314 191 223 191H175C171.686 191 169 188.314 169 185V169Z" fill="#7954F6"/>
<line x1="357.5" x2="357.5" y2="213" stroke="black"/>
<line x1="429.5" x2="429.5" y2="213" stroke="black"/>
<rect x="399" y="157" width="60" height="45" rx="8" fill="#7954F6"/>
<path d="M407.095 184.411V183.099H410.215V176.923H407.495V175.611H411.655V183.099H414.615V184.411H407.095ZM410.775 174.027C410.423 174.027 410.145 173.936 409.943 173.755C409.74 173.574 409.639 173.328 409.639 173.019C409.639 172.699 409.74 172.448 409.943 172.267C410.145 172.075 410.423 171.979 410.775 171.979C411.127 171.979 411.404 172.075 411.607 172.267C411.809 172.448 411.911 172.699 411.911 173.019C411.911 173.328 411.809 173.574 411.607 173.755C411.404 173.936 411.127 174.027 410.775 174.027ZM416.8 184.411V175.611H418.24V177.291H418.544L418.24 177.627C418.24 176.934 418.448 176.4 418.864 176.027C419.28 175.643 419.856 175.451 420.592 175.451C421.478 175.451 422.182 175.723 422.704 176.267C423.227 176.811 423.488 177.552 423.488 178.491V184.411H422.048V178.651C422.048 178.022 421.878 177.542 421.536 177.211C421.206 176.87 420.752 176.699 420.176 176.699C419.579 176.699 419.104 176.88 418.752 177.243C418.411 177.606 418.24 178.128 418.24 178.811V184.411H416.8ZM429.786 184.571C429.082 184.571 428.463 184.438 427.93 184.171C427.407 183.904 427.002 183.52 426.714 183.019C426.426 182.507 426.282 181.904 426.282 181.211V178.811C426.282 178.107 426.426 177.504 426.714 177.003C427.002 176.502 427.407 176.118 427.93 175.851C428.463 175.584 429.082 175.451 429.786 175.451C430.799 175.451 431.615 175.723 432.234 176.267C432.853 176.811 433.178 177.552 433.21 178.491H431.77C431.738 177.926 431.546 177.494 431.194 177.195C430.853 176.886 430.383 176.731 429.786 176.731C429.157 176.731 428.655 176.912 428.282 177.275C427.909 177.627 427.722 178.134 427.722 178.795V181.211C427.722 181.872 427.909 182.384 428.282 182.747C428.655 183.11 429.157 183.291 429.786 183.291C430.383 183.291 430.853 183.136 431.194 182.827C431.546 182.518 431.738 182.086 431.77 181.531H433.21C433.178 182.47 432.853 183.211 432.234 183.755C431.615 184.299 430.799 184.571 429.786 184.571ZM442.276 186.331C440.761 185.958 439.583 185.222 438.74 184.123C437.897 183.024 437.476 181.68 437.476 180.091V177.211C437.476 176.166 437.668 175.222 438.052 174.379C438.447 173.526 439.001 172.806 439.716 172.219C440.441 171.632 441.295 171.216 442.276 170.971V172.331C441.593 172.491 441.001 172.8 440.5 173.259C439.999 173.707 439.609 174.267 439.332 174.939C439.055 175.611 438.916 176.368 438.916 177.211V180.091C438.916 180.912 439.049 181.659 439.316 182.331C439.593 183.003 439.983 183.563 440.484 184.011C440.996 184.448 441.593 184.747 442.276 184.907V186.331ZM445.95 186.331V184.907C446.643 184.747 447.24 184.448 447.742 184.011C448.243 183.563 448.627 183.003 448.894 182.331C449.171 181.659 449.31 180.912 449.31 180.091V177.211C449.31 176.368 449.171 175.611 448.894 174.939C448.616 174.267 448.227 173.707 447.726 173.259C447.224 172.8 446.632 172.491 445.95 172.331V170.971C446.942 171.216 447.795 171.632 448.51 172.219C449.224 172.806 449.774 173.526 450.158 174.379C450.552 175.222 450.75 176.166 450.75 177.211V180.091C450.75 181.68 450.328 183.024 449.486 184.123C448.643 185.222 447.464 185.958 445.95 186.331Z" fill="white"/>
<mask id="path-17-inside-2_1_210" fill="white">
<path d="M327 39C327 36.7909 328.791 35 331 35H383C385.209 35 387 36.7909 387 39V149C387 151.209 385.209 153 383 153H331C328.791 153 327 151.209 327 149V39Z"/>
</mask>
<path d="M327 39C327 36.7909 328.791 35 331 35H383C385.209 35 387 36.7909 387 39V149C387 151.209 385.209 153 383 153H331C328.791 153 327 151.209 327 149V39Z" fill="#9376F3" fill-opacity="0.2"/>
<path d="M330.23 152.866C330.476 152.953 330.734 153 331 153C330.733 153 330.471 152.979 330.216 152.938L330.22 152.924L330.23 152.866ZM383.78 152.924L383.783 152.938C383.528 152.979 383.266 153 383 153C383.266 153 383.523 152.953 383.769 152.866L383.78 152.924ZM328.319 150.789C328.491 151.244 328.723 151.651 329.005 151.986L328.777 152.326L328.701 152.439C328.199 152.179 327.748 151.837 327.363 151.43L327.674 151.223L327.825 151.121L328.319 150.789ZM385.91 150.944H385.911L386.326 151.223L386.636 151.43C386.251 151.837 385.8 152.179 385.298 152.439L385.223 152.326L384.994 151.986C385.277 151.651 385.508 151.244 385.68 150.789L385.91 150.944ZM328 149C328 149.201 328.011 149.398 328.032 149.591L327.566 149.684L327.076 149.78L326.586 149.878V149.877L326.382 149.917C326.139 149.332 326.002 148.69 326 148.018H328V149ZM388 148.018C387.998 148.69 387.861 149.332 387.618 149.917L387.414 149.877L386.924 149.78L385.967 149.591C385.988 149.398 386 149.201 386 149V148.018H388ZM328 144.089V146.054H326V144.089H328ZM388 144.089V146.054H386V144.089H388ZM328 140.161V142.125H326V140.161H328ZM388 140.161V142.125H386V140.161H388ZM328 136.232V138.196H326V136.232H328ZM388 136.232V138.196H386V136.232H388ZM328 132.304V134.268H326V132.304H328ZM388 132.304V134.268H386V132.304H388ZM328 128.375V130.339H326V128.375H328ZM388 128.375V130.339H386V128.375H388ZM328 124.446V126.411H326V124.446H328ZM388 124.446V126.411H386V124.446H388ZM328 120.518V122.482H326V120.518H328ZM388 120.518V122.482H386V120.518H388ZM328 116.589V118.554H326V116.589H328ZM388 116.589V118.554H386V116.589H388ZM328 112.661V114.625H326V112.661H328ZM388 112.661V114.625H386V112.661H388ZM328 108.732V110.696H326V108.732H328ZM388 108.732V110.696H386V108.732H388ZM328 104.804V106.768H326V104.804H328ZM388 104.804V106.768H386V104.804H388ZM328 100.875V102.839H326V100.875H328ZM388 100.875V102.839H386V100.875H388ZM328 96.9463V98.9111H326V96.9463H328ZM388 96.9463V98.9111H386V96.9463H388ZM328 93.0176V94.9824H326V93.0176H328ZM388 93.0176V94.9824H386V93.0176H388ZM328 89.0889V91.0537H326V89.0889H328ZM388 89.0889V91.0537H386V89.0889H388ZM328 85.1611V87.125H326V85.1611H328ZM388 85.1611V87.125H386V85.1611H388ZM328 81.2324V83.1963H326V81.2324H328ZM388 81.2324V83.1963H386V81.2324H388ZM328 77.3037V79.2676H326V77.3037H328ZM388 77.3037V79.2676H386V77.3037H388ZM328 73.375V75.3389H326V73.375H328ZM388 73.375V75.3389H386V73.375H388ZM328 69.4463V71.4111H326V69.4463H328ZM388 69.4463V71.4111H386V69.4463H388ZM328 65.5176V67.4824H326V65.5176H328ZM388 65.5176V67.4824H386V65.5176H388ZM328 61.5889V63.5537H326V61.5889H328ZM388 61.5889V63.5537H386V61.5889H388ZM328 57.6611V59.625H326V57.6611H328ZM388 57.6611V59.625H386V57.6611H388ZM328 53.7324V55.6963H326V53.7324H328ZM388 53.7324V55.6963H386V53.7324H388ZM328 49.8037V51.7676H326V49.8037H328ZM388 49.8037V51.7676H386V49.8037H388ZM328 45.875V47.8389H326V45.875H328ZM388 45.875V47.8389H386V45.875H388ZM328 41.9463V43.9111H326V41.9463H328ZM388 41.9463V43.9111H386V41.9463H388ZM328 39.9824H326C326.002 39.3092 326.138 38.6676 326.382 38.082L326.586 38.1221L327.076 38.2197L328.032 38.4082C328.011 38.6013 328 38.7989 328 39V39.9824ZM387.618 38.082C387.862 38.6676 387.998 39.3092 388 39.9824H386V39C386 38.7989 385.988 38.6013 385.967 38.4082L386.924 38.2197L387.052 38.1943L387.618 38.082ZM328.777 35.6738L328.98 35.9775L329.004 36.0127C328.722 36.3481 328.491 36.755 328.319 37.21L327.674 36.7773L327.363 36.5693C327.748 36.1621 328.2 35.8198 328.701 35.5596L328.777 35.6738ZM385.298 35.5596C385.8 35.8197 386.251 36.1621 386.636 36.5693L386.326 36.7773L385.981 37.0088L385.68 37.21C385.508 36.7549 385.277 36.3481 384.995 36.0127L385.223 35.6738L385.298 35.5596ZM331 35C330.734 35 330.476 35.0462 330.23 35.1328L330.22 35.0762L330.217 35.0605C330.472 35.0204 330.734 35 331 35ZM383 35C383.266 35 383.527 35.0205 383.782 35.0605L383.78 35.0762L383.769 35.1328C383.523 35.0464 383.266 35 383 35Z" fill="#7954F6" mask="url(#path-17-inside-2_1_210)"/>
<mask id="path-19-inside-3_1_210" fill="white">
<path d="M399 13C399 10.7909 400.791 9 403 9H455C457.209 9 459 10.7909 459 13V123C459 125.209 457.209 127 455 127H403C400.791 127 399 125.209 399 123V13Z"/>
</mask>
<path d="M399 13C399 10.7909 400.791 9 403 9H455C457.209 9 459 10.7909 459 13V123C459 125.209 457.209 127 455 127H403C400.791 127 399 125.209 399 123V13Z" fill="#DE657B" fill-opacity="0.2"/>
<path d="M402.23 126.866C402.476 126.953 402.734 127 403 127C402.733 127 402.471 126.979 402.216 126.938L402.22 126.924L402.23 126.866ZM455.78 126.924L455.783 126.938C455.528 126.979 455.266 127 455 127C455.266 127 455.523 126.953 455.769 126.866L455.78 126.924ZM400.319 124.789C400.491 125.244 400.723 125.651 401.005 125.986L400.777 126.326L400.701 126.439C400.199 126.179 399.748 125.837 399.363 125.43L399.674 125.223L399.825 125.121L400.319 124.789ZM457.91 124.944H457.911L458.326 125.223L458.636 125.43C458.251 125.837 457.8 126.179 457.298 126.439L457.223 126.326L456.994 125.986C457.277 125.651 457.508 125.244 457.68 124.789L457.91 124.944ZM400 123C400 123.201 400.011 123.398 400.032 123.591L399.566 123.684L399.076 123.78L398.586 123.878V123.877L398.382 123.917C398.139 123.332 398.002 122.69 398 122.018H400V123ZM460 122.018C459.998 122.69 459.861 123.332 459.618 123.917L459.414 123.877L458.924 123.78L457.967 123.591C457.988 123.398 458 123.201 458 123V122.018H460ZM400 118.089V120.054H398V118.089H400ZM460 118.089V120.054H458V118.089H460ZM400 114.161V116.125H398V114.161H400ZM460 114.161V116.125H458V114.161H460ZM400 110.232V112.196H398V110.232H400ZM460 110.232V112.196H458V110.232H460ZM400 106.304V108.268H398V106.304H400ZM460 106.304V108.268H458V106.304H460ZM400 102.375V104.339H398V102.375H400ZM460 102.375V104.339H458V102.375H460ZM400 98.4463V100.411H398V98.4463H400ZM460 98.4463V100.411H458V98.4463H460ZM400 94.5176V96.4824H398V94.5176H400ZM460 94.5176V96.4824H458V94.5176H460ZM400 90.5889V92.5537H398V90.5889H400ZM460 90.5889V92.5537H458V90.5889H460ZM400 86.6611V88.625H398V86.6611H400ZM460 86.6611V88.625H458V86.6611H460ZM400 82.7324V84.6963H398V82.7324H400ZM460 82.7324V84.6963H458V82.7324H460ZM400 78.8037V80.7676H398V78.8037H400ZM460 78.8037V80.7676H458V78.8037H460ZM400 74.875V76.8389H398V74.875H400ZM460 74.875V76.8389H458V74.875H460ZM400 70.9463V72.9111H398V70.9463H400ZM460 70.9463V72.9111H458V70.9463H460ZM400 67.0176V68.9824H398V67.0176H400ZM460 67.0176V68.9824H458V67.0176H460ZM400 63.0889V65.0537H398V63.0889H400ZM460 63.0889V65.0537H458V63.0889H460ZM400 59.1611V61.125H398V59.1611H400ZM460 59.1611V61.125H458V59.1611H460ZM400 55.2324V57.1963H398V55.2324H400ZM460 55.2324V57.1963H458V55.2324H460ZM400 51.3037V53.2676H398V51.3037H400ZM460 51.3037V53.2676H458V51.3037H460ZM400 47.375V49.3389H398V47.375H400ZM460 47.375V49.3389H458V47.375H460ZM400 43.4463V45.4111H398V43.4463H400ZM460 43.4463V45.4111H458V43.4463H460ZM400 39.5176V41.4824H398V39.5176H400ZM460 39.5176V41.4824H458V39.5176H460ZM400 35.5889V37.5537H398V35.5889H400ZM460 35.5889V37.5537H458V35.5889H460ZM400 31.6611V33.625H398V31.6611H400ZM460 31.6611V33.625H458V31.6611H460ZM400 27.7324V29.6963H398V27.7324H400ZM460 27.7324V29.6963H458V27.7324H460ZM400 23.8037V25.7676H398V23.8037H400ZM460 23.8037V25.7676H458V23.8037H460ZM400 19.875V21.8389H398V19.875H400ZM460 19.875V21.8389H458V19.875H460ZM400 15.9463V17.9111H398V15.9463H400ZM460 15.9463V17.9111H458V15.9463H460ZM400 13.9824H398C398.002 13.3092 398.138 12.6676 398.382 12.082L398.586 12.1221L399.076 12.2197L400.032 12.4082C400.011 12.6013 400 12.7989 400 13V13.9824ZM459.618 12.082C459.862 12.6676 459.998 13.3092 460 13.9824H458V13C458 12.7989 457.988 12.6013 457.967 12.4082L458.924 12.2197L459.052 12.1943L459.618 12.082ZM400.777 9.67383L400.98 9.97754L401.004 10.0127C400.722 10.3481 400.491 10.755 400.319 11.21L399.674 10.7773L399.363 10.5693C399.748 10.1621 400.2 9.81979 400.701 9.55957L400.777 9.67383ZM457.298 9.55957C457.8 9.81974 458.251 10.1621 458.636 10.5693L458.326 10.7773L457.981 11.0088L457.68 11.21C457.508 10.7549 457.277 10.3481 456.995 10.0127L457.223 9.67383L457.298 9.55957ZM403 9C402.734 9 402.476 9.04616 402.23 9.13281L402.22 9.07617L402.217 9.06055C402.472 9.02041 402.734 9 403 9ZM455 9C455.266 9 455.527 9.02051 455.782 9.06055L455.78 9.07617L455.769 9.13281C455.523 9.04636 455.266 9 455 9Z" fill="#D55068" mask="url(#path-19-inside-3_1_210)"/>
<rect x="327" y="35" width="60" height="44" rx="4" fill="#7954F6"/>
<path d="M333.443 50V42.85H334.587V44.215H334.86L334.483 45.06C334.483 44.2887 334.648 43.708 334.977 43.318C335.315 42.9193 335.813 42.72 336.472 42.72C337.226 42.72 337.824 42.9583 338.266 43.435C338.717 43.903 338.942 44.54 338.942 45.346V45.775H337.772V45.45C337.772 44.8867 337.633 44.4577 337.356 44.163C337.087 43.8597 336.702 43.708 336.199 43.708C335.705 43.708 335.315 43.8597 335.029 44.163C334.752 44.4663 334.613 44.8953 334.613 45.45V50H333.443ZM343.695 50.13C343.132 50.13 342.638 50.0173 342.213 49.792C341.797 49.5667 341.472 49.2503 341.238 48.843C341.013 48.427 340.9 47.946 340.9 47.4V45.45C340.9 44.8953 341.013 44.4143 341.238 44.007C341.472 43.5997 341.797 43.2833 342.213 43.058C342.638 42.8327 343.132 42.72 343.695 42.72C344.258 42.72 344.748 42.8327 345.164 43.058C345.589 43.2833 345.914 43.5997 346.139 44.007C346.373 44.4143 346.49 44.8953 346.49 45.45V46.711H342.044V47.4C342.044 47.9633 342.187 48.3967 342.473 48.7C342.759 48.9947 343.166 49.142 343.695 49.142C344.146 49.142 344.51 49.064 344.787 48.908C345.064 48.7433 345.233 48.5007 345.294 48.18H346.464C346.386 48.778 346.091 49.2547 345.58 49.61C345.077 49.9567 344.449 50.13 343.695 50.13ZM345.346 45.931V45.45C345.346 44.8867 345.203 44.4533 344.917 44.15C344.64 43.8467 344.232 43.695 343.695 43.695C343.166 43.695 342.759 43.8467 342.473 44.15C342.187 44.4533 342.044 44.8867 342.044 45.45V45.827H345.437L345.346 45.931ZM350.866 50.13C350.112 50.13 349.518 49.9393 349.085 49.558C348.652 49.168 348.435 48.6437 348.435 47.985C348.435 47.3177 348.652 46.7933 349.085 46.412C349.518 46.0307 350.103 45.84 350.84 45.84H353.05V45.125C353.05 44.683 352.916 44.345 352.647 44.111C352.387 43.8683 352.014 43.747 351.529 43.747C351.104 43.747 350.749 43.838 350.463 44.02C350.177 44.1933 350.012 44.4317 349.969 44.735H348.799C348.877 44.1197 349.167 43.63 349.67 43.266C350.173 42.902 350.801 42.72 351.555 42.72C352.378 42.72 353.028 42.9323 353.505 43.357C353.982 43.7817 354.22 44.358 354.22 45.086V50H353.076V48.635H352.881L353.076 48.44C353.076 48.96 352.872 49.3717 352.465 49.675C352.066 49.9783 351.533 50.13 350.866 50.13ZM351.152 49.207C351.707 49.207 352.162 49.0683 352.517 48.791C352.872 48.5137 353.05 48.1583 353.05 47.725V46.711H350.866C350.476 46.711 350.168 46.8193 349.943 47.036C349.718 47.2527 349.605 47.5473 349.605 47.92C349.605 48.3187 349.739 48.635 350.008 48.869C350.285 49.0943 350.667 49.207 351.152 49.207ZM358.869 50.13C358.158 50.13 357.582 49.8917 357.14 49.415C356.706 48.9383 356.49 48.2927 356.49 47.478V45.385C356.49 44.5617 356.706 43.9117 357.14 43.435C357.573 42.9583 358.149 42.72 358.869 42.72C359.458 42.72 359.93 42.8803 360.286 43.201C360.641 43.5217 360.819 43.9507 360.819 44.488L360.585 44.215H360.845L360.819 42.59V40.51H361.989V50H360.819V48.635H360.585L360.819 48.362C360.819 48.908 360.641 49.3413 360.286 49.662C359.93 49.974 359.458 50.13 358.869 50.13ZM359.259 49.116C359.744 49.116 360.125 48.9643 360.403 48.661C360.68 48.3577 360.819 47.9373 360.819 47.4V45.45C360.819 44.9127 360.68 44.4923 360.403 44.189C360.125 43.8857 359.744 43.734 359.259 43.734C358.765 43.734 358.375 43.8813 358.089 44.176C357.803 44.4707 357.66 44.8953 357.66 45.45V47.4C357.66 47.9547 357.803 48.3793 358.089 48.674C358.375 48.9687 358.765 49.116 359.259 49.116Z" fill="white"/>
<path d="M333.105 72V70.934H335.64V65.916H333.43V64.85H336.81V70.934H339.215V72H333.105ZM336.095 63.563C335.809 63.563 335.584 63.4893 335.419 63.342C335.254 63.1947 335.172 62.9953 335.172 62.744C335.172 62.484 335.254 62.2803 335.419 62.133C335.584 61.977 335.809 61.899 336.095 61.899C336.381 61.899 336.606 61.977 336.771 62.133C336.936 62.2803 337.018 62.484 337.018 62.744C337.018 62.9953 336.936 63.1947 336.771 63.342C336.606 63.4893 336.381 63.563 336.095 63.563ZM340.991 72V64.85H342.161V66.215H342.408L342.161 66.488C342.161 65.9247 342.33 65.4913 342.668 65.188C343.006 64.876 343.474 64.72 344.072 64.72C344.791 64.72 345.363 64.941 345.788 65.383C346.213 65.825 346.425 66.4273 346.425 67.19V72H345.255V67.32C345.255 66.8087 345.116 66.4187 344.839 66.15C344.57 65.8727 344.202 65.734 343.734 65.734C343.249 65.734 342.863 65.8813 342.577 66.176C342.3 66.4707 342.161 66.8953 342.161 67.45V72H340.991ZM351.542 72.13C350.97 72.13 350.467 72.0217 350.034 71.805C349.609 71.5883 349.28 71.2763 349.046 70.869C348.812 70.453 348.695 69.9633 348.695 69.4V67.45C348.695 66.878 348.812 66.3883 349.046 65.981C349.28 65.5737 349.609 65.2617 350.034 65.045C350.467 64.8283 350.97 64.72 351.542 64.72C352.365 64.72 353.028 64.941 353.531 65.383C354.034 65.825 354.298 66.4273 354.324 67.19H353.154C353.128 66.7307 352.972 66.3797 352.686 66.137C352.409 65.8857 352.027 65.76 351.542 65.76C351.031 65.76 350.623 65.9073 350.32 66.202C350.017 66.488 349.865 66.8997 349.865 67.437V69.4C349.865 69.9373 350.017 70.3533 350.32 70.648C350.623 70.9427 351.031 71.09 351.542 71.09C352.027 71.09 352.409 70.9643 352.686 70.713C352.972 70.4617 353.128 70.1107 353.154 69.66H354.324C354.298 70.4227 354.034 71.025 353.531 71.467C353.028 71.909 352.365 72.13 351.542 72.13Z" fill="white"/>
<rect x="399" y="83" width="60" height="44" rx="4" fill="#D55068"/>
<path d="M407.484 98.13C406.773 98.13 406.197 97.8917 405.755 97.415C405.322 96.9383 405.105 96.2927 405.105 95.478V93.385C405.105 92.5617 405.322 91.9117 405.755 91.435C406.188 90.9583 406.765 90.72 407.484 90.72C408.073 90.72 408.546 90.8803 408.901 91.201C409.256 91.5217 409.434 91.9507 409.434 92.488L409.2 92.215H409.46L409.434 90.59V88.51H410.604V98H409.434V96.635H409.2L409.434 96.362C409.434 96.908 409.256 97.3413 408.901 97.662C408.546 97.974 408.073 98.13 407.484 98.13ZM407.874 97.116C408.359 97.116 408.741 96.9643 409.018 96.661C409.295 96.3577 409.434 95.9373 409.434 95.4V93.45C409.434 92.9127 409.295 92.4923 409.018 92.189C408.741 91.8857 408.359 91.734 407.874 91.734C407.38 91.734 406.99 91.8813 406.704 92.176C406.418 92.4707 406.275 92.8953 406.275 93.45V95.4C406.275 95.9547 406.418 96.3793 406.704 96.674C406.99 96.9687 407.38 97.116 407.874 97.116ZM415.695 98.13C415.132 98.13 414.638 98.0173 414.213 97.792C413.797 97.5667 413.472 97.2503 413.238 96.843C413.013 96.427 412.9 95.946 412.9 95.4V93.45C412.9 92.8953 413.013 92.4143 413.238 92.007C413.472 91.5997 413.797 91.2833 414.213 91.058C414.638 90.8327 415.132 90.72 415.695 90.72C416.258 90.72 416.748 90.8327 417.164 91.058C417.589 91.2833 417.914 91.5997 418.139 92.007C418.373 92.4143 418.49 92.8953 418.49 93.45V94.711H414.044V95.4C414.044 95.9633 414.187 96.3967 414.473 96.7C414.759 96.9947 415.166 97.142 415.695 97.142C416.146 97.142 416.51 97.064 416.787 96.908C417.064 96.7433 417.233 96.5007 417.294 96.18H418.464C418.386 96.778 418.091 97.2547 417.58 97.61C417.077 97.9567 416.449 98.13 415.695 98.13ZM417.346 93.931V93.45C417.346 92.8867 417.203 92.4533 416.917 92.15C416.64 91.8467 416.232 91.695 415.695 91.695C415.166 91.695 414.759 91.8467 414.473 92.15C414.187 92.4533 414.044 92.8867 414.044 93.45V93.827H417.437L417.346 93.931ZM423.542 98.13C422.97 98.13 422.467 98.0217 422.034 97.805C421.609 97.5883 421.28 97.2763 421.046 96.869C420.812 96.453 420.695 95.9633 420.695 95.4V93.45C420.695 92.878 420.812 92.3883 421.046 91.981C421.28 91.5737 421.609 91.2617 422.034 91.045C422.467 90.8283 422.97 90.72 423.542 90.72C424.365 90.72 425.028 90.941 425.531 91.383C426.034 91.825 426.298 92.4273 426.324 93.19H425.154C425.128 92.7307 424.972 92.3797 424.686 92.137C424.409 91.8857 424.027 91.76 423.542 91.76C423.031 91.76 422.623 91.9073 422.32 92.202C422.017 92.488 421.865 92.8997 421.865 93.437V95.4C421.865 95.9373 422.017 96.3533 422.32 96.648C422.623 96.9427 423.031 97.09 423.542 97.09C424.027 97.09 424.409 96.9643 424.686 96.713C424.972 96.4617 425.128 96.1107 425.154 95.66H426.324C426.298 96.4227 426.034 97.025 425.531 97.467C425.028 97.909 424.365 98.13 423.542 98.13Z" fill="white"/>
<path d="M405.599 120L404.455 112.85H405.495L406.21 117.92C406.236 118.111 406.262 118.319 406.288 118.544C406.323 118.761 406.349 118.943 406.366 119.09C406.383 118.943 406.409 118.761 406.444 118.544C406.487 118.319 406.522 118.111 406.548 117.92L407.341 112.85H408.459L409.252 117.92C409.278 118.111 409.308 118.319 409.343 118.544C409.386 118.761 409.417 118.943 409.434 119.09C409.451 118.943 409.477 118.761 409.512 118.544C409.555 118.319 409.59 118.111 409.616 117.92L410.357 112.85H411.345L410.149 120H408.862L408.095 115.06C408.06 114.817 408.021 114.575 407.978 114.332C407.935 114.089 407.904 113.899 407.887 113.76C407.87 113.899 407.844 114.089 407.809 114.332C407.774 114.575 407.735 114.817 407.692 115.06L406.886 120H405.599ZM413.238 120V112.85H414.382V114.215H414.655L414.278 115.06C414.278 114.289 414.443 113.708 414.772 113.318C415.11 112.919 415.608 112.72 416.267 112.72C417.021 112.72 417.619 112.958 418.061 113.435C418.512 113.903 418.737 114.54 418.737 115.346V115.775H417.567V115.45C417.567 114.887 417.428 114.458 417.151 114.163C416.882 113.86 416.497 113.708 415.994 113.708C415.5 113.708 415.11 113.86 414.824 114.163C414.547 114.466 414.408 114.895 414.408 115.45V120H413.238ZM420.695 120V118.934H423.23V113.916H421.02V112.85H424.4V118.934H426.805V120H420.695ZM423.685 111.563C423.399 111.563 423.174 111.489 423.009 111.342C422.844 111.195 422.762 110.995 422.762 110.744C422.762 110.484 422.844 110.28 423.009 110.133C423.174 109.977 423.399 109.899 423.685 109.899C423.971 109.899 424.196 109.977 424.361 110.133C424.526 110.28 424.608 110.484 424.608 110.744C424.608 110.995 424.526 111.195 424.361 111.342C424.196 111.489 423.971 111.563 423.685 111.563ZM432.065 120C431.449 120 430.968 119.835 430.622 119.506C430.284 119.177 430.115 118.713 430.115 118.115V113.916H428.1V112.85H430.115V110.835H431.285V112.85H434.145V113.916H431.285V118.115C431.285 118.661 431.545 118.934 432.065 118.934H434.015V120H432.065ZM439.08 120.13C438.516 120.13 438.022 120.017 437.598 119.792C437.182 119.567 436.857 119.25 436.623 118.843C436.397 118.427 436.285 117.946 436.285 117.4V115.45C436.285 114.895 436.397 114.414 436.623 114.007C436.857 113.6 437.182 113.283 437.598 113.058C438.022 112.833 438.516 112.72 439.08 112.72C439.643 112.72 440.133 112.833 440.549 113.058C440.973 113.283 441.298 113.6 441.524 114.007C441.758 114.414 441.875 114.895 441.875 115.45V116.711H437.429V117.4C437.429 117.963 437.572 118.397 437.858 118.7C438.144 118.995 438.551 119.142 439.08 119.142C439.53 119.142 439.894 119.064 440.172 118.908C440.449 118.743 440.618 118.501 440.679 118.18H441.849C441.771 118.778 441.476 119.255 440.965 119.61C440.462 119.957 439.834 120.13 439.08 120.13ZM440.731 115.931V115.45C440.731 114.887 440.588 114.453 440.302 114.15C440.024 113.847 439.617 113.695 439.08 113.695C438.551 113.695 438.144 113.847 437.858 114.15C437.572 114.453 437.429 114.887 437.429 115.45V115.827H440.822L440.731 115.931Z" fill="white"/>
<rect x="327" y="131" width="60" height="22" rx="4" fill="#7954F6"/>
<path d="M333.599 146L332.455 138.85H333.495L334.21 143.92C334.236 144.111 334.262 144.319 334.288 144.544C334.323 144.761 334.349 144.943 334.366 145.09C334.383 144.943 334.409 144.761 334.444 144.544C334.487 144.319 334.522 144.111 334.548 143.92L335.341 138.85H336.459L337.252 143.92C337.278 144.111 337.308 144.319 337.343 144.544C337.386 144.761 337.417 144.943 337.434 145.09C337.451 144.943 337.477 144.761 337.512 144.544C337.555 144.319 337.59 144.111 337.616 143.92L338.357 138.85H339.345L338.149 146H336.862L336.095 141.06C336.06 140.817 336.021 140.575 335.978 140.332C335.935 140.089 335.904 139.899 335.887 139.76C335.87 139.899 335.844 140.089 335.809 140.332C335.774 140.575 335.735 140.817 335.692 141.06L334.886 146H333.599ZM341.238 146V138.85H342.382V140.215H342.655L342.278 141.06C342.278 140.289 342.443 139.708 342.772 139.318C343.11 138.919 343.608 138.72 344.267 138.72C345.021 138.72 345.619 138.958 346.061 139.435C346.512 139.903 346.737 140.54 346.737 141.346V141.775H345.567V141.45C345.567 140.887 345.428 140.458 345.151 140.163C344.882 139.86 344.497 139.708 343.994 139.708C343.5 139.708 343.11 139.86 342.824 140.163C342.547 140.466 342.408 140.895 342.408 141.45V146H341.238ZM348.695 146V144.934H351.23V139.916H349.02V138.85H352.4V144.934H354.805V146H348.695ZM351.685 137.563C351.399 137.563 351.174 137.489 351.009 137.342C350.844 137.195 350.762 136.995 350.762 136.744C350.762 136.484 350.844 136.28 351.009 136.133C351.174 135.977 351.399 135.899 351.685 135.899C351.971 135.899 352.196 135.977 352.361 136.133C352.526 136.28 352.608 136.484 352.608 136.744C352.608 136.995 352.526 137.195 352.361 137.342C352.196 137.489 351.971 137.563 351.685 137.563ZM360.065 146C359.449 146 358.968 145.835 358.622 145.506C358.284 145.177 358.115 144.713 358.115 144.115V139.916H356.1V138.85H358.115V136.835H359.285V138.85H362.145V139.916H359.285V144.115C359.285 144.661 359.545 144.934 360.065 144.934H362.015V146H360.065ZM367.08 146.13C366.516 146.13 366.022 146.017 365.598 145.792C365.182 145.567 364.857 145.25 364.623 144.843C364.397 144.427 364.285 143.946 364.285 143.4V141.45C364.285 140.895 364.397 140.414 364.623 140.007C364.857 139.6 365.182 139.283 365.598 139.058C366.022 138.833 366.516 138.72 367.08 138.72C367.643 138.72 368.133 138.833 368.549 139.058C368.973 139.283 369.298 139.6 369.524 140.007C369.758 140.414 369.875 140.895 369.875 141.45V142.711H365.429V143.4C365.429 143.963 365.572 144.397 365.858 144.7C366.144 144.995 366.551 145.142 367.08 145.142C367.53 145.142 367.894 145.064 368.172 144.908C368.449 144.743 368.618 144.501 368.679 144.18H369.849C369.771 144.778 369.476 145.255 368.965 145.61C368.462 145.957 367.834 146.13 367.08 146.13ZM368.731 141.931V141.45C368.731 140.887 368.588 140.453 368.302 140.15C368.024 139.847 367.617 139.695 367.08 139.695C366.551 139.695 366.144 139.847 365.858 140.15C365.572 140.453 365.429 140.887 365.429 141.45V141.827H368.822L368.731 141.931Z" fill="white"/>
<rect x="399" y="9" width="60" height="22" rx="4" fill="#D55068"/>
<path d="M405.443 24V16.85H406.587V18.215H406.86L406.483 19.06C406.483 18.2887 406.648 17.708 406.977 17.318C407.315 16.9193 407.813 16.72 408.472 16.72C409.226 16.72 409.824 16.9583 410.266 17.435C410.717 17.903 410.942 18.54 410.942 19.346V19.775H409.772V19.45C409.772 18.8867 409.633 18.4577 409.356 18.163C409.087 17.8597 408.702 17.708 408.199 17.708C407.705 17.708 407.315 17.8597 407.029 18.163C406.752 18.4663 406.613 18.8953 406.613 19.45V24H405.443ZM415.695 24.13C415.132 24.13 414.638 24.0173 414.213 23.792C413.797 23.5667 413.472 23.2503 413.238 22.843C413.013 22.427 412.9 21.946 412.9 21.4V19.45C412.9 18.8953 413.013 18.4143 413.238 18.007C413.472 17.5997 413.797 17.2833 414.213 17.058C414.638 16.8327 415.132 16.72 415.695 16.72C416.258 16.72 416.748 16.8327 417.164 17.058C417.589 17.2833 417.914 17.5997 418.139 18.007C418.373 18.4143 418.49 18.8953 418.49 19.45V20.711H414.044V21.4C414.044 21.9633 414.187 22.3967 414.473 22.7C414.759 22.9947 415.166 23.142 415.695 23.142C416.146 23.142 416.51 23.064 416.787 22.908C417.064 22.7433 417.233 22.5007 417.294 22.18H418.464C418.386 22.778 418.091 23.2547 417.58 23.61C417.077 23.9567 416.449 24.13 415.695 24.13ZM417.346 19.931V19.45C417.346 18.8867 417.203 18.4533 416.917 18.15C416.64 17.8467 416.232 17.695 415.695 17.695C415.166 17.695 414.759 17.8467 414.473 18.15C414.187 18.4533 414.044 18.8867 414.044 19.45V19.827H417.437L417.346 19.931ZM422.866 24.13C422.112 24.13 421.518 23.9393 421.085 23.558C420.652 23.168 420.435 22.6437 420.435 21.985C420.435 21.3177 420.652 20.7933 421.085 20.412C421.518 20.0307 422.103 19.84 422.84 19.84H425.05V19.125C425.05 18.683 424.916 18.345 424.647 18.111C424.387 17.8683 424.014 17.747 423.529 17.747C423.104 17.747 422.749 17.838 422.463 18.02C422.177 18.1933 422.012 18.4317 421.969 18.735H420.799C420.877 18.1197 421.167 17.63 421.67 17.266C422.173 16.902 422.801 16.72 423.555 16.72C424.378 16.72 425.028 16.9323 425.505 17.357C425.982 17.7817 426.22 18.358 426.22 19.086V24H425.076V22.635H424.881L425.076 22.44C425.076 22.96 424.872 23.3717 424.465 23.675C424.066 23.9783 423.533 24.13 422.866 24.13ZM423.152 23.207C423.707 23.207 424.162 23.0683 424.517 22.791C424.872 22.5137 425.05 22.1583 425.05 21.725V20.711H422.866C422.476 20.711 422.168 20.8193 421.943 21.036C421.718 21.2527 421.605 21.5473 421.605 21.92C421.605 22.3187 421.739 22.635 422.008 22.869C422.285 23.0943 422.667 23.207 423.152 23.207ZM430.869 24.13C430.158 24.13 429.582 23.8917 429.14 23.415C428.706 22.9383 428.49 22.2927 428.49 21.478V19.385C428.49 18.5617 428.706 17.9117 429.14 17.435C429.573 16.9583 430.149 16.72 430.869 16.72C431.458 16.72 431.93 16.8803 432.286 17.201C432.641 17.5217 432.819 17.9507 432.819 18.488L432.585 18.215H432.845L432.819 16.59V14.51H433.989V24H432.819V22.635H432.585L432.819 22.362C432.819 22.908 432.641 23.3413 432.286 23.662C431.93 23.974 431.458 24.13 430.869 24.13ZM431.259 23.116C431.744 23.116 432.125 22.9643 432.403 22.661C432.68 22.3577 432.819 21.9373 432.819 21.4V19.45C432.819 18.9127 432.68 18.4923 432.403 18.189C432.125 17.8857 431.744 17.734 431.259 17.734C430.765 17.734 430.375 17.8813 430.089 18.176C429.803 18.4707 429.66 18.8953 429.66 19.45V21.4C429.66 21.9547 429.803 22.3793 430.089 22.674C430.375 22.9687 430.765 23.116 431.259 23.116Z" fill="white"/>
<rect x="317" width="150" height="229" rx="8" fill="#F2F2F2"/>
<line x1="357.5" y1="8" x2="357.5" y2="221" stroke="black"/>
<line x1="429.5" y1="8" x2="429.5" y2="221" stroke="black"/>
<rect x="399" y="165" width="60" height="45" rx="8" fill="#7954F6"/>
<path d="M407.095 192.411V191.099H410.215V184.923H407.495V183.611H411.655V191.099H414.615V192.411H407.095ZM410.775 182.027C410.423 182.027 410.145 181.936 409.943 181.755C409.74 181.574 409.639 181.328 409.639 181.019C409.639 180.699 409.74 180.448 409.943 180.267C410.145 180.075 410.423 179.979 410.775 179.979C411.127 179.979 411.404 180.075 411.607 180.267C411.809 180.448 411.911 180.699 411.911 181.019C411.911 181.328 411.809 181.574 411.607 181.755C411.404 181.936 411.127 182.027 410.775 182.027ZM416.8 192.411V183.611H418.24V185.291H418.544L418.24 185.627C418.24 184.934 418.448 184.4 418.864 184.027C419.28 183.643 419.856 183.451 420.592 183.451C421.478 183.451 422.182 183.723 422.704 184.267C423.227 184.811 423.488 185.552 423.488 186.491V192.411H422.048V186.651C422.048 186.022 421.878 185.542 421.536 185.211C421.206 184.87 420.752 184.699 420.176 184.699C419.579 184.699 419.104 184.88 418.752 185.243C418.411 185.606 418.24 186.128 418.24 186.811V192.411H416.8ZM429.786 192.571C429.082 192.571 428.463 192.438 427.93 192.171C427.407 191.904 427.002 191.52 426.714 191.019C426.426 190.507 426.282 189.904 426.282 189.211V186.811C426.282 186.107 426.426 185.504 426.714 185.003C427.002 184.502 427.407 184.118 427.93 183.851C428.463 183.584 429.082 183.451 429.786 183.451C430.799 183.451 431.615 183.723 432.234 184.267C432.853 184.811 433.178 185.552 433.21 186.491H431.77C431.738 185.926 431.546 185.494 431.194 185.195C430.853 184.886 430.383 184.731 429.786 184.731C429.157 184.731 428.655 184.912 428.282 185.275C427.909 185.627 427.722 186.134 427.722 186.795V189.211C427.722 189.872 427.909 190.384 428.282 190.747C428.655 191.11 429.157 191.291 429.786 191.291C430.383 191.291 430.853 191.136 431.194 190.827C431.546 190.518 431.738 190.086 431.77 189.531H433.21C433.178 190.47 432.853 191.211 432.234 191.755C431.615 192.299 430.799 192.571 429.786 192.571ZM442.276 194.331C440.761 193.958 439.583 193.222 438.74 192.123C437.897 191.024 437.476 189.68 437.476 188.091V185.211C437.476 184.166 437.668 183.222 438.052 182.379C438.447 181.526 439.001 180.806 439.716 180.219C440.441 179.632 441.295 179.216 442.276 178.971V180.331C441.593 180.491 441.001 180.8 440.5 181.259C439.999 181.707 439.609 182.267 439.332 182.939C439.055 183.611 438.916 184.368 438.916 185.211V188.091C438.916 188.912 439.049 189.659 439.316 190.331C439.593 191.003 439.983 191.563 440.484 192.011C440.996 192.448 441.593 192.747 442.276 192.907V194.331ZM445.95 194.331V192.907C446.643 192.747 447.24 192.448 447.742 192.011C448.243 191.563 448.627 191.003 448.894 190.331C449.171 189.659 449.31 188.912 449.31 188.091V185.211C449.31 184.368 449.171 183.611 448.894 182.939C448.616 182.267 448.227 181.707 447.726 181.259C447.224 180.8 446.632 180.491 445.95 180.331V178.971C446.942 179.216 447.795 179.632 448.51 180.219C449.224 180.806 449.774 181.526 450.158 182.379C450.552 183.222 450.75 184.166 450.75 185.211V188.091C450.75 189.68 450.328 191.024 449.486 192.123C448.643 193.222 447.464 193.958 445.95 194.331Z" fill="white"/>
<mask id="path-36-inside-4_1_210" fill="white">
<path d="M327 111H387V139H327V111Z"/>
</mask>
<path d="M327 111H387V139H327V111Z" fill="#9376F3" fill-opacity="0.2"/>
<path d="M327 111H326.5V112H327H327.5V111H327ZM327 114H326.5V116H327H327.5V114H327ZM327 118H326.5V120H327H327.5V118H327ZM327 122H326.5V124H327H327.5V122H327ZM327 126H326.5V128H327H327.5V126H327ZM327 130H326.5V132H327H327.5V130H327ZM327 134H326.5V136H327H327.5V134H327ZM327 138H326.5V139H327H327.5V138H327ZM387 139H387.5V138H387H386.5V139H387ZM387 136H387.5V134H387H386.5V136H387ZM387 132H387.5V130H387H386.5V132H387ZM387 128H387.5V126H387H386.5V128H387ZM387 124H387.5V122H387H386.5V124H387ZM387 120H387.5V118H387H386.5V120H387ZM387 116H387.5V114H387H386.5V116H387ZM387 112H387.5V111H387H386.5V112H387ZM327 111H326V112H327H328V111H327ZM327 114H326V116H327H328V114H327ZM327 118H326V120H327H328V118H327ZM327 122H326V124H327H328V122H327ZM327 126H326V128H327H328V126H327ZM327 130H326V132H327H328V130H327ZM327 134H326V136H327H328V134H327ZM327 138H326V139H327H328V138H327ZM387 139H388V138H387H386V139H387ZM387 136H388V134H387H386V136H387ZM387 132H388V130H387H386V132H387ZM387 128H388V126H387H386V128H387ZM387 124H388V122H387H386V124H387ZM387 120H388V118H387H386V120H387ZM387 116H388V114H387H386V116H387ZM387 112H388V111H387H386V112H387Z" fill="#7954F6" mask="url(#path-36-inside-4_1_210)"/>
<path d="M327 74C327 69.5817 330.582 66 335 66H379C383.418 66 387 69.5817 387 74V111H327V74Z" fill="#7954F6"/>
<path d="M335.095 92.411V91.099H338.215V84.923H335.495V83.611H339.655V91.099H342.615V92.411H335.095ZM338.775 82.027C338.423 82.027 338.145 81.9363 337.943 81.755C337.74 81.5737 337.639 81.3283 337.639 81.019C337.639 80.699 337.74 80.4483 337.943 80.267C338.145 80.075 338.423 79.979 338.775 79.979C339.127 79.979 339.404 80.075 339.607 80.267C339.809 80.4483 339.911 80.699 339.911 81.019C339.911 81.3283 339.809 81.5737 339.607 81.755C339.404 81.9363 339.127 82.027 338.775 82.027ZM344.8 92.411V83.611H346.24V85.291H346.544L346.24 85.627C346.24 84.9337 346.448 84.4003 346.864 84.027C347.28 83.643 347.856 83.451 348.592 83.451C349.478 83.451 350.182 83.723 350.704 84.267C351.227 84.811 351.488 85.5523 351.488 86.491V92.411H350.048V86.651C350.048 86.0217 349.878 85.5417 349.536 85.211C349.206 84.8697 348.752 84.699 348.176 84.699C347.579 84.699 347.104 84.8803 346.752 85.243C346.411 85.6057 346.24 86.1283 346.24 86.811V92.411H344.8ZM357.786 92.571C357.082 92.571 356.463 92.4377 355.93 92.171C355.407 91.9043 355.002 91.5203 354.714 91.019C354.426 90.507 354.282 89.9043 354.282 89.211V86.811C354.282 86.107 354.426 85.5043 354.714 85.003C355.002 84.5017 355.407 84.1177 355.93 83.851C356.463 83.5843 357.082 83.451 357.786 83.451C358.799 83.451 359.615 83.723 360.234 84.267C360.853 84.811 361.178 85.5523 361.21 86.491H359.77C359.738 85.9257 359.546 85.4937 359.194 85.195C358.853 84.8857 358.383 84.731 357.786 84.731C357.157 84.731 356.655 84.9123 356.282 85.275C355.909 85.627 355.722 86.1337 355.722 86.795V89.211C355.722 89.8723 355.909 90.3843 356.282 90.747C356.655 91.1097 357.157 91.291 357.786 91.291C358.383 91.291 358.853 91.1363 359.194 90.827C359.546 90.5177 359.738 90.0857 359.77 89.531H361.21C361.178 90.4697 360.853 91.211 360.234 91.755C359.615 92.299 358.799 92.571 357.786 92.571ZM370.276 94.331C368.761 93.9577 367.583 93.2217 366.74 92.123C365.897 91.0243 365.476 89.6803 365.476 88.091V85.211C365.476 84.1657 365.668 83.2217 366.052 82.379C366.447 81.5257 367.001 80.8057 367.716 80.219C368.441 79.6323 369.295 79.2163 370.276 78.971V80.331C369.593 80.491 369.001 80.8003 368.5 81.259C367.999 81.707 367.609 82.267 367.332 82.939C367.055 83.611 366.916 84.3683 366.916 85.211V88.091C366.916 88.9123 367.049 89.659 367.316 90.331C367.593 91.003 367.983 91.563 368.484 92.011C368.996 92.4483 369.593 92.747 370.276 92.907V94.331ZM373.95 94.331V92.907C374.643 92.747 375.24 92.4483 375.742 92.011C376.243 91.563 376.627 91.003 376.894 90.331C377.171 89.659 377.31 88.9123 377.31 88.091V85.211C377.31 84.3683 377.171 83.611 376.894 82.939C376.616 82.267 376.227 81.707 375.726 81.259C375.224 80.8003 374.632 80.491 373.95 80.331V78.971C374.942 79.2163 375.795 79.6323 376.51 80.219C377.224 80.8057 377.774 81.5257 378.158 82.379C378.552 83.2217 378.75 84.1657 378.75 85.211V88.091C378.75 89.6803 378.328 91.0243 377.486 92.123C376.643 93.2217 375.464 93.9577 373.95 94.331Z" fill="white"/>
<mask id="path-40-inside-5_1_210" fill="white">
<path d="M399 62H459V114H399V62Z"/>
</mask>
<path d="M399 62H459V114H399V62Z" fill="#DE657B" fill-opacity="0.2"/>
<path d="M399 62H398.5V63H399H399.5V62H399ZM399 65H398.5V67H399H399.5V65H399ZM399 69H398.5V71H399H399.5V69H399ZM399 73H398.5V75H399H399.5V73H399ZM399 77H398.5V79H399H399.5V77H399ZM399 81H398.5V83H399H399.5V81H399ZM399 85H398.5V87H399H399.5V85H399ZM399 89H398.5V91H399H399.5V89H399ZM399 93H398.5V95H399H399.5V93H399ZM399 97H398.5V99H399H399.5V97H399ZM399 101H398.5V103H399H399.5V101H399ZM399 105H398.5V107H399H399.5V105H399ZM399 109H398.5V111H399H399.5V109H399ZM399 113H398.5V114H399H399.5V113H399ZM459 114H459.5V113H459H458.5V114H459ZM459 111H459.5V109H459H458.5V111H459ZM459 107H459.5V105H459H458.5V107H459ZM459 103H459.5V101H459H458.5V103H459ZM459 99H459.5V97H459H458.5V99H459ZM459 95H459.5V93H459H458.5V95H459ZM459 91H459.5V89H459H458.5V91H459ZM459 87H459.5V85H459H458.5V87H459ZM459 83H459.5V81H459H458.5V83H459ZM459 79H459.5V77H459H458.5V79H459ZM459 75H459.5V73H459H458.5V75H459ZM459 71H459.5V69H459H458.5V71H459ZM459 67H459.5V65H459H458.5V67H459ZM459 63H459.5V62H459H458.5V63H459ZM399 62H398V63H399H400V62H399ZM399 65H398V67H399H400V65H399ZM399 69H398V71H399H400V69H399ZM399 73H398V75H399H400V73H399ZM399 77H398V79H399H400V77H399ZM399 81H398V83H399H400V81H399ZM399 85H398V87H399H400V85H399ZM399 89H398V91H399H400V89H399ZM399 93H398V95H399H400V93H399ZM399 97H398V99H399H400V97H399ZM399 101H398V103H399H400V101H399ZM399 105H398V107H399H400V105H399ZM399 109H398V111H399H400V109H399ZM399 113H398V114H399H400V113H399ZM459 114H460V113H459H458V114H459ZM459 111H460V109H459H458V111H459ZM459 107H460V105H459H458V107H459ZM459 103H460V101H459H458V103H459ZM459 99H460V97H459H458V99H459ZM459 95H460V93H459H458V95H459ZM459 91H460V89H459H458V91H459ZM459 87H460V85H459H458V87H459ZM459 83H460V81H459H458V83H459ZM459 79H460V77H459H458V79H459ZM459 75H460V73H459H458V75H459ZM459 71H460V69H459H458V71H459ZM459 67H460V65H459H458V67H459ZM459 63H460V62H459H458V63H459Z" fill="#D55068" mask="url(#path-40-inside-5_1_210)"/>
<path d="M399 114H459V132C459 134.209 457.209 136 455 136H403C400.791 136 399 134.209 399 132V114Z" fill="#D55068"/>
<path d="M327 139H387V155C387 158.314 384.314 161 381 161H333C329.686 161 327 158.314 327 155V139Z" fill="#7954F6"/>
<path d="M399 25C399 20.5817 402.582 17 407 17H451C455.418 17 459 20.5817 459 25V62H399V25Z" fill="#D55068"/>
<path d="M410.288 43.1145C409.413 43.1145 408.704 42.8211 408.16 42.2345C407.627 41.6478 407.36 40.8531 407.36 39.8505V37.2745C407.36 36.2611 407.627 35.4611 408.16 34.8745C408.693 34.2878 409.403 33.9945 410.288 33.9945C411.013 33.9945 411.595 34.1918 412.032 34.5865C412.469 34.9811 412.688 35.5091 412.688 36.1705L412.4 35.8345H412.72L412.688 33.8345V31.2745H414.128V42.9545H412.688V41.2745H412.4L412.688 40.9385C412.688 41.6105 412.469 42.1438 412.032 42.5385C411.595 42.9225 411.013 43.1145 410.288 43.1145ZM410.768 41.8665C411.365 41.8665 411.835 41.6798 412.176 41.3065C412.517 40.9331 412.688 40.4158 412.688 39.7545V37.3545C412.688 36.6931 412.517 36.1758 412.176 35.8025C411.835 35.4291 411.365 35.2425 410.768 35.2425C410.16 35.2425 409.68 35.4238 409.328 35.7865C408.976 36.1491 408.8 36.6718 408.8 37.3545V39.7545C408.8 40.4371 408.976 40.9598 409.328 41.3225C409.68 41.6851 410.16 41.8665 410.768 41.8665ZM420.394 43.1145C419.7 43.1145 419.092 42.9758 418.57 42.6985C418.058 42.4211 417.658 42.0318 417.37 41.5305C417.092 41.0185 416.954 40.4265 416.954 39.7545V37.3545C416.954 36.6718 417.092 36.0798 417.37 35.5785C417.658 35.0771 418.058 34.6878 418.57 34.4105C419.092 34.1331 419.7 33.9945 420.394 33.9945C421.087 33.9945 421.69 34.1331 422.202 34.4105C422.724 34.6878 423.124 35.0771 423.402 35.5785C423.69 36.0798 423.834 36.6718 423.834 37.3545V38.9065H418.362V39.7545C418.362 40.4478 418.538 40.9811 418.89 41.3545C419.242 41.7171 419.743 41.8985 420.394 41.8985C420.948 41.8985 421.396 41.8025 421.738 41.6105C422.079 41.4078 422.287 41.1091 422.362 40.7145H423.802C423.706 41.4505 423.343 42.0371 422.714 42.4745C422.095 42.9011 421.322 43.1145 420.394 43.1145ZM422.426 37.9465V37.3545C422.426 36.6611 422.25 36.1278 421.898 35.7545C421.556 35.3811 421.055 35.1945 420.394 35.1945C419.743 35.1945 419.242 35.3811 418.89 35.7545C418.538 36.1278 418.362 36.6611 418.362 37.3545V37.8185H422.538L422.426 37.9465ZM430.052 43.1145C429.348 43.1145 428.729 42.9811 428.196 42.7145C427.673 42.4478 427.268 42.0638 426.98 41.5625C426.692 41.0505 426.548 40.4478 426.548 39.7545V37.3545C426.548 36.6505 426.692 36.0478 426.98 35.5465C427.268 35.0451 427.673 34.6611 428.196 34.3945C428.729 34.1278 429.348 33.9945 430.052 33.9945C431.065 33.9945 431.881 34.2665 432.5 34.8105C433.118 35.3545 433.444 36.0958 433.476 37.0345H432.036C432.004 36.4691 431.812 36.0371 431.46 35.7385C431.118 35.4291 430.649 35.2745 430.052 35.2745C429.422 35.2745 428.921 35.4558 428.548 35.8185C428.174 36.1705 427.988 36.6771 427.988 37.3385V39.7545C427.988 40.4158 428.174 40.9278 428.548 41.2905C428.921 41.6531 429.422 41.8345 430.052 41.8345C430.649 41.8345 431.118 41.6798 431.46 41.3705C431.812 41.0611 432.004 40.6291 432.036 40.0745H433.476C433.444 41.0131 433.118 41.7545 432.5 42.2985C431.881 42.8425 431.065 43.1145 430.052 43.1145ZM442.541 44.8745C441.027 44.5011 439.848 43.7651 439.005 42.6665C438.163 41.5678 437.741 40.2238 437.741 38.6345V35.7545C437.741 34.7091 437.933 33.7651 438.317 32.9225C438.712 32.0691 439.267 31.3491 439.981 30.7625C440.707 30.1758 441.56 29.7598 442.541 29.5145V30.8745C441.859 31.0345 441.267 31.3438 440.765 31.8025C440.264 32.2505 439.875 32.8105 439.597 33.4825C439.32 34.1545 439.181 34.9118 439.181 35.7545V38.6345C439.181 39.4558 439.315 40.2025 439.581 40.8745C439.859 41.5465 440.248 42.1065 440.749 42.5545C441.261 42.9918 441.859 43.2905 442.541 43.4505V44.8745ZM446.215 44.8745V43.4505C446.908 43.2905 447.506 42.9918 448.007 42.5545C448.508 42.1065 448.892 41.5465 449.159 40.8745C449.436 40.2025 449.575 39.4558 449.575 38.6345V35.7545C449.575 34.9118 449.436 34.1545 449.159 33.4825C448.882 32.8105 448.492 32.2505 447.991 31.8025C447.49 31.3438 446.898 31.0345 446.215 30.8745V29.5145C447.207 29.7598 448.06 30.1758 448.775 30.7625C449.49 31.3491 450.039 32.0691 450.423 32.9225C450.818 33.7651 451.015 34.7091 451.015 35.7545V38.6345C451.015 40.2238 450.594 41.5678 449.751 42.6665C448.908 43.7651 447.73 44.5011 446.215 44.8745Z" fill="white"/>
<rect x="475" width="150" height="280" rx="8" fill="#F2F2F2"/>
<line x1="514.5" y1="8" x2="514.5" y2="272" stroke="black"/>
<line x1="586.5" y1="8" x2="586.5" y2="272" stroke="black"/>
<mask id="path-49-inside-6_1_210" fill="white">
<path d="M484 108H544V139H484V108Z"/>
</mask>
<path d="M484 108H544V139H484V108Z" fill="#9376F3" fill-opacity="0.2"/>
<path d="M484 108H483.5V108.969H484H484.5V108H484ZM484 110.906H483.5V112.844H484H484.5V110.906H484ZM484 114.781H483.5V116.719H484H484.5V114.781H484ZM484 118.656H483.5V120.594H484H484.5V118.656H484ZM484 122.531H483.5V124.469H484H484.5V122.531H484ZM484 126.406H483.5V128.344H484H484.5V126.406H484ZM484 130.281H483.5V132.219H484H484.5V130.281H484ZM484 134.156H483.5V136.094H484H484.5V134.156H484ZM484 138.031H483.5V139H484H484.5V138.031H484ZM544 139H544.5V138.031H544H543.5V139H544ZM544 136.094H544.5V134.156H544H543.5V136.094H544ZM544 132.219H544.5V130.281H544H543.5V132.219H544ZM544 128.344H544.5V126.406H544H543.5V128.344H544ZM544 124.469H544.5V122.531H544H543.5V124.469H544ZM544 120.594H544.5V118.656H544H543.5V120.594H544ZM544 116.719H544.5V114.781H544H543.5V116.719H544ZM544 112.844H544.5V110.906H544H543.5V112.844H544ZM544 108.969H544.5V108H544H543.5V108.969H544ZM484 108H483V108.969H484H485V108H484ZM484 110.906H483V112.844H484H485V110.906H484ZM484 114.781H483V116.719H484H485V114.781H484ZM484 118.656H483V120.594H484H485V118.656H484ZM484 122.531H483V124.469H484H485V122.531H484ZM484 126.406H483V128.344H484H485V126.406H484ZM484 130.281H483V132.219H484H485V130.281H484ZM484 134.156H483V136.094H484H485V134.156H484ZM484 138.031H483V139H484H485V138.031H484ZM544 139H545V138.031H544H543V139H544ZM544 136.094H545V134.156H544H543V136.094H544ZM544 132.219H545V130.281H544H543V132.219H544ZM544 128.344H545V126.406H544H543V128.344H544ZM544 124.469H545V122.531H544H543V124.469H544ZM544 120.594H545V118.656H544H543V120.594H544ZM544 116.719H545V114.781H544H543V116.719H544ZM544 112.844H545V110.906H544H543V112.844H544ZM544 108.969H545V108H544H543V108.969H544Z" fill="#7954F6" mask="url(#path-49-inside-6_1_210)"/>
<mask id="path-51-inside-7_1_210" fill="white">
<path d="M484 161H544V213H484V161Z"/>
</mask>
<path d="M484 161H544V213H484V161Z" fill="#9376F3" fill-opacity="0.2"/>
<path d="M484 161H483.5V162H484H484.5V161H484ZM484 164H483.5V166H484H484.5V164H484ZM484 168H483.5V170H484H484.5V168H484ZM484 172H483.5V174H484H484.5V172H484ZM484 176H483.5V178H484H484.5V176H484ZM484 180H483.5V182H484H484.5V180H484ZM484 184H483.5V186H484H484.5V184H484ZM484 188H483.5V190H484H484.5V188H484ZM484 192H483.5V194H484H484.5V192H484ZM484 196H483.5V198H484H484.5V196H484ZM484 200H483.5V202H484H484.5V200H484ZM484 204H483.5V206H484H484.5V204H484ZM484 208H483.5V210H484H484.5V208H484ZM484 212H483.5V213H484H484.5V212H484ZM544 213H544.5V212H544H543.5V213H544ZM544 210H544.5V208H544H543.5V210H544ZM544 206H544.5V204H544H543.5V206H544ZM544 202H544.5V200H544H543.5V202H544ZM544 198H544.5V196H544H543.5V198H544ZM544 194H544.5V192H544H543.5V194H544ZM544 190H544.5V188H544H543.5V190H544ZM544 186H544.5V184H544H543.5V186H544ZM544 182H544.5V180H544H543.5V182H544ZM544 178H544.5V176H544H543.5V178H544ZM544 174H544.5V172H544H543.5V174H544ZM544 170H544.5V168H544H543.5V170H544ZM544 166H544.5V164H544H543.5V166H544ZM544 162H544.5V161H544H543.5V162H544ZM484 161H483V162H484H485V161H484ZM484 164H483V166H484H485V164H484ZM484 168H483V170H484H485V168H484ZM484 172H483V174H484H485V172H484ZM484 176H483V178H484H485V176H484ZM484 180H483V182H484H485V180H484ZM484 184H483V186H484H485V184H484ZM484 188H483V190H484H485V188H484ZM484 192H483V194H484H485V192H484ZM484 196H483V198H484H485V196H484ZM484 200H483V202H484H485V200H484ZM484 204H483V206H484H485V204H484ZM484 208H483V210H484H485V208H484ZM484 212H483V213H484H485V212H484ZM544 213H545V212H544H543V213H544ZM544 210H545V208H544H543V210H544ZM544 206H545V204H544H543V206H544ZM544 202H545V200H544H543V202H544ZM544 198H545V196H544H543V198H544ZM544 194H545V192H544H543V194H544ZM544 190H545V188H544H543V190H544ZM544 186H545V184H544H543V186H544ZM544 182H545V180H544H543V182H544ZM544 178H545V176H544H543V178H544ZM544 174H545V172H544H543V174H544ZM544 170H545V168H544H543V170H544ZM544 166H545V164H544H543V166H544ZM544 162H545V161H544H543V162H544Z" fill="#7954F6" mask="url(#path-51-inside-7_1_210)"/>
<path d="M484 71C484 66.5817 487.582 63 492 63H536C540.418 63 544 66.5817 544 71V108H484V71Z" fill="#7954F6"/>
<path d="M492.36 90.7546V89.4426H495.48V83.2666H492.76V81.9546H496.92V89.4426H499.88V90.7546H492.36ZM496.04 80.3706C495.688 80.3706 495.411 80.2799 495.208 80.0986C495.005 79.9172 494.904 79.6719 494.904 79.3626C494.904 79.0426 495.005 78.7919 495.208 78.6106C495.411 78.4186 495.688 78.3226 496.04 78.3226C496.392 78.3226 496.669 78.4186 496.872 78.6106C497.075 78.7919 497.176 79.0426 497.176 79.3626C497.176 79.6719 497.075 79.9172 496.872 80.0986C496.669 80.2799 496.392 80.3706 496.04 80.3706ZM502.066 90.7546V81.9546H503.506V83.6346H503.81L503.506 83.9706C503.506 83.2772 503.714 82.7439 504.13 82.3706C504.546 81.9866 505.122 81.7946 505.858 81.7946C506.743 81.7946 507.447 82.0666 507.97 82.6106C508.492 83.1546 508.754 83.8959 508.754 84.8346V90.7546H507.314V84.9946C507.314 84.3652 507.143 83.8852 506.802 83.5546C506.471 83.2132 506.018 83.0426 505.442 83.0426C504.844 83.0426 504.37 83.2239 504.018 83.5866C503.676 83.9492 503.506 84.4719 503.506 85.1546V90.7546H502.066ZM515.052 90.9146C514.348 90.9146 513.729 90.7812 513.196 90.5146C512.673 90.2479 512.268 89.8639 511.98 89.3626C511.692 88.8506 511.548 88.2479 511.548 87.5546V85.1546C511.548 84.4506 511.692 83.8479 511.98 83.3466C512.268 82.8452 512.673 82.4612 513.196 82.1946C513.729 81.9279 514.348 81.7946 515.052 81.7946C516.065 81.7946 516.881 82.0666 517.5 82.6106C518.118 83.1546 518.444 83.8959 518.476 84.8346H517.036C517.004 84.2692 516.812 83.8372 516.46 83.5386C516.118 83.2292 515.649 83.0746 515.052 83.0746C514.422 83.0746 513.921 83.2559 513.548 83.6186C513.174 83.9706 512.988 84.4772 512.988 85.1386V87.5546C512.988 88.2159 513.174 88.7279 513.548 89.0906C513.921 89.4532 514.422 89.6346 515.052 89.6346C515.649 89.6346 516.118 89.4799 516.46 89.1706C516.812 88.8612 517.004 88.4292 517.036 87.8746H518.476C518.444 88.8132 518.118 89.5546 517.5 90.0986C516.881 90.6426 516.065 90.9146 515.052 90.9146ZM527.541 92.6746C526.027 92.3012 524.848 91.5652 524.005 90.4666C523.163 89.3679 522.741 88.0239 522.741 86.4346V83.5546C522.741 82.5092 522.933 81.5652 523.317 80.7226C523.712 79.8692 524.267 79.1492 524.981 78.5626C525.707 77.9759 526.56 77.5599 527.541 77.3146V78.6746C526.859 78.8346 526.267 79.1439 525.765 79.6026C525.264 80.0506 524.875 80.6106 524.597 81.2826C524.32 81.9546 524.181 82.7119 524.181 83.5546V86.4346C524.181 87.2559 524.315 88.0026 524.581 88.6746C524.859 89.3466 525.248 89.9066 525.749 90.3546C526.261 90.7919 526.859 91.0906 527.541 91.2506V92.6746ZM531.215 92.6746V91.2506C531.908 91.0906 532.506 90.7919 533.007 90.3546C533.508 89.9066 533.892 89.3466 534.159 88.6746C534.436 88.0026 534.575 87.2559 534.575 86.4346V83.5546C534.575 82.7119 534.436 81.9546 534.159 81.2826C533.882 80.6106 533.492 80.0506 532.991 79.6026C532.49 79.1439 531.898 78.8346 531.215 78.6746V77.3146C532.207 77.5599 533.06 77.9759 533.775 78.5626C534.49 79.1492 535.039 79.8692 535.423 80.7226C535.818 81.5652 536.015 82.5092 536.015 83.5546V86.4346C536.015 88.0239 535.594 89.3679 534.751 90.4666C533.908 91.5652 532.73 92.3012 531.215 92.6746Z" fill="white"/>
<path d="M484 213H544V229C544 232.314 541.314 235 538 235H490C486.686 235 484 232.314 484 229V213Z" fill="#7954F6"/>
<rect x="484" y="139" width="60" height="22" fill="#7954F6"/>
<mask id="path-57-inside-8_1_210" fill="white">
<path d="M556 210H616V239H556V210Z"/>
</mask>
<path d="M556 210H616V239H556V210Z" fill="#9376F3" fill-opacity="0.2"/>
<path d="M556 210H555.5V211.036H556H556.5V210H556ZM556 213.107H555.5V215.179H556H556.5V213.107H556ZM556 217.25H555.5V219.321H556H556.5V217.25H556ZM556 221.393H555.5V223.464H556H556.5V221.393H556ZM556 225.536H555.5V227.607H556H556.5V225.536H556ZM556 229.679H555.5V231.75H556H556.5V229.679H556ZM556 233.821H555.5V235.893H556H556.5V233.821H556ZM556 237.964H555.5V239H556H556.5V237.964H556ZM616 239H616.5V237.964H616H615.5V239H616ZM616 235.893H616.5V233.821H616H615.5V235.893H616ZM616 231.75H616.5V229.679H616H615.5V231.75H616ZM616 227.607H616.5V225.536H616H615.5V227.607H616ZM616 223.464H616.5V221.393H616H615.5V223.464H616ZM616 219.321H616.5V217.25H616H615.5V219.321H616ZM616 215.179H616.5V213.107H616H615.5V215.179H616ZM616 211.036H616.5V210H616H615.5V211.036H616ZM556 210H555V211.036H556H557V210H556ZM556 213.107H555V215.179H556H557V213.107H556ZM556 217.25H555V219.321H556H557V217.25H556ZM556 221.393H555V223.464H556H557V221.393H556ZM556 225.536H555V227.607H556H557V225.536H556ZM556 229.679H555V231.75H556H557V229.679H556ZM556 233.821H555V235.893H556H557V233.821H556ZM556 237.964H555V239H556H557V237.964H556ZM616 239H617V237.964H616H615V239H616ZM616 235.893H617V233.821H616H615V235.893H616ZM616 231.75H617V229.679H616H615V231.75H616ZM616 227.607H617V225.536H616H615V227.607H616ZM616 223.464H617V221.393H616H615V223.464H616ZM616 219.321H617V217.25H616H615V219.321H616ZM616 215.179H617V213.107H616H615V215.179H616ZM616 211.036H617V210H616H615V211.036H616Z" fill="#7954F6" mask="url(#path-57-inside-8_1_210)"/>
<path d="M556 239H616V255C616 258.314 613.314 261 610 261H562C558.686 261 556 258.314 556 255V239Z" fill="#7954F6"/>
<mask id="path-60-inside-9_1_210" fill="white">
<path d="M556 60H616V113H556V60Z"/>
</mask>
<path d="M556 60H616V113H556V60Z" fill="#DE657B" fill-opacity="0.2"/>
<path d="M556 60H555.5V61.0192H556H556.5V60H556ZM556 63.0577H555.5V65.0962H556H556.5V63.0577H556ZM556 67.1346H555.5V69.1731H556H556.5V67.1346H556ZM556 71.2115H555.5V73.25H556H556.5V71.2115H556ZM556 75.2885H555.5V77.3269H556H556.5V75.2885H556ZM556 79.3654H555.5V81.4038H556H556.5V79.3654H556ZM556 83.4423H555.5V85.4808H556H556.5V83.4423H556ZM556 87.5192H555.5V89.5577H556H556.5V87.5192H556ZM556 91.5962H555.5V93.6346H556H556.5V91.5962H556ZM556 95.6731H555.5V97.7115H556H556.5V95.6731H556ZM556 99.75H555.5V101.788H556H556.5V99.75H556ZM556 103.827H555.5V105.865H556H556.5V103.827H556ZM556 107.904H555.5V109.942H556H556.5V107.904H556ZM556 111.981H555.5V113H556H556.5V111.981H556ZM616 113H616.5V111.981H616H615.5V113H616ZM616 109.942H616.5V107.904H616H615.5V109.942H616ZM616 105.865H616.5V103.827H616H615.5V105.865H616ZM616 101.788H616.5V99.75H616H615.5V101.788H616ZM616 97.7115H616.5V95.6731H616H615.5V97.7115H616ZM616 93.6346H616.5V91.5962H616H615.5V93.6346H616ZM616 89.5577H616.5V87.5192H616H615.5V89.5577H616ZM616 85.4808H616.5V83.4423H616H615.5V85.4808H616ZM616 81.4038H616.5V79.3654H616H615.5V81.4038H616ZM616 77.3269H616.5V75.2885H616H615.5V77.3269H616ZM616 73.25H616.5V71.2115H616H615.5V73.25H616ZM616 69.1731H616.5V67.1346H616H615.5V69.1731H616ZM616 65.0962H616.5V63.0577H616H615.5V65.0962H616ZM616 61.0192H616.5V60H616H615.5V61.0192H616ZM556 60H555V61.0192H556H557V60H556ZM556 63.0577H555V65.0962H556H557V63.0577H556ZM556 67.1346H555V69.1731H556H557V67.1346H556ZM556 71.2115H555V73.25H556H557V71.2115H556ZM556 75.2885H555V77.3269H556H557V75.2885H556ZM556 79.3654H555V81.4038H556H557V79.3654H556ZM556 83.4423H555V85.4808H556H557V83.4423H556ZM556 87.5192H555V89.5577H556H557V87.5192H556ZM556 91.5962H555V93.6346H556H557V91.5962H556ZM556 95.6731H555V97.7115H556H557V95.6731H556ZM556 99.75H555V101.788H556H557V99.75H556ZM556 103.827H555V105.865H556H557V103.827H556ZM556 107.904H555V109.942H556H557V107.904H556ZM556 111.981H555V113H556H557V111.981H556ZM616 113H617V111.981H616H615V113H616ZM616 109.942H617V107.904H616H615V109.942H616ZM616 105.865H617V103.827H616H615V105.865H616ZM616 101.788H617V99.75H616H615V101.788H616ZM616 97.7115H617V95.6731H616H615V97.7115H616ZM616 93.6346H617V91.5962H616H615V93.6346H616ZM616 89.5577H617V87.5192H616H615V89.5577H616ZM616 85.4808H617V83.4423H616H615V85.4808H616ZM616 81.4038H617V79.3654H616H615V81.4038H616ZM616 77.3269H617V75.2885H616H615V77.3269H616ZM616 73.25H617V71.2115H616H615V73.25H616ZM616 69.1731H617V67.1346H616H615V69.1731H616ZM616 65.0962H617V63.0577H616H615V65.0962H616ZM616 61.0192H617V60H616H615V61.0192H616Z" fill="#D55068" mask="url(#path-60-inside-9_1_210)"/>
<path d="M556 113H616V131C616 133.209 614.209 135 612 135H560C557.791 135 556 133.209 556 131V113Z" fill="#D55068"/>
<path d="M556 23C556 18.5817 559.582 15 564 15H608C612.418 15 616 18.5817 616 23V60H556V23Z" fill="#D55068"/>
<path d="M567.288 42.1145C566.413 42.1145 565.704 41.8211 565.16 41.2345C564.627 40.6478 564.36 39.8531 564.36 38.8505V36.2745C564.36 35.2611 564.627 34.4611 565.16 33.8745C565.693 33.2878 566.403 32.9945 567.288 32.9945C568.013 32.9945 568.595 33.1918 569.032 33.5865C569.469 33.9811 569.688 34.5091 569.688 35.1705L569.4 34.8345H569.72L569.688 32.8345V30.2745H571.128V41.9545H569.688V40.2745H569.4L569.688 39.9385C569.688 40.6105 569.469 41.1438 569.032 41.5385C568.595 41.9225 568.013 42.1145 567.288 42.1145ZM567.768 40.8665C568.365 40.8665 568.835 40.6798 569.176 40.3065C569.517 39.9331 569.688 39.4158 569.688 38.7545V36.3545C569.688 35.6931 569.517 35.1758 569.176 34.8025C568.835 34.4291 568.365 34.2425 567.768 34.2425C567.16 34.2425 566.68 34.4238 566.328 34.7865C565.976 35.1491 565.8 35.6718 565.8 36.3545V38.7545C565.8 39.4371 565.976 39.9598 566.328 40.3225C566.68 40.6851 567.16 40.8665 567.768 40.8665ZM577.394 42.1145C576.7 42.1145 576.092 41.9758 575.57 41.6985C575.058 41.4211 574.658 41.0318 574.37 40.5305C574.092 40.0185 573.954 39.4265 573.954 38.7545V36.3545C573.954 35.6718 574.092 35.0798 574.37 34.5785C574.658 34.0771 575.058 33.6878 575.57 33.4105C576.092 33.1331 576.7 32.9945 577.394 32.9945C578.087 32.9945 578.69 33.1331 579.202 33.4105C579.724 33.6878 580.124 34.0771 580.402 34.5785C580.69 35.0798 580.834 35.6718 580.834 36.3545V37.9065H575.362V38.7545C575.362 39.4478 575.538 39.9811 575.89 40.3545C576.242 40.7171 576.743 40.8985 577.394 40.8985C577.948 40.8985 578.396 40.8025 578.738 40.6105C579.079 40.4078 579.287 40.1091 579.362 39.7145H580.802C580.706 40.4505 580.343 41.0371 579.714 41.4745C579.095 41.9011 578.322 42.1145 577.394 42.1145ZM579.426 36.9465V36.3545C579.426 35.6611 579.25 35.1278 578.898 34.7545C578.556 34.3811 578.055 34.1945 577.394 34.1945C576.743 34.1945 576.242 34.3811 575.89 34.7545C575.538 35.1278 575.362 35.6611 575.362 36.3545V36.8185H579.538L579.426 36.9465ZM587.052 42.1145C586.348 42.1145 585.729 41.9811 585.196 41.7145C584.673 41.4478 584.268 41.0638 583.98 40.5625C583.692 40.0505 583.548 39.4478 583.548 38.7545V36.3545C583.548 35.6505 583.692 35.0478 583.98 34.5465C584.268 34.0451 584.673 33.6611 585.196 33.3945C585.729 33.1278 586.348 32.9945 587.052 32.9945C588.065 32.9945 588.881 33.2665 589.5 33.8105C590.118 34.3545 590.444 35.0958 590.476 36.0345H589.036C589.004 35.4691 588.812 35.0371 588.46 34.7385C588.118 34.4291 587.649 34.2745 587.052 34.2745C586.422 34.2745 585.921 34.4558 585.548 34.8185C585.174 35.1705 584.988 35.6771 584.988 36.3385V38.7545C584.988 39.4158 585.174 39.9278 585.548 40.2905C585.921 40.6531 586.422 40.8345 587.052 40.8345C587.649 40.8345 588.118 40.6798 588.46 40.3705C588.812 40.0611 589.004 39.6291 589.036 39.0745H590.476C590.444 40.0131 590.118 40.7545 589.5 41.2985C588.881 41.8425 588.065 42.1145 587.052 42.1145ZM599.541 43.8745C598.027 43.5011 596.848 42.7651 596.005 41.6665C595.163 40.5678 594.741 39.2238 594.741 37.6345V34.7545C594.741 33.7091 594.933 32.7651 595.317 31.9225C595.712 31.0691 596.267 30.3491 596.981 29.7625C597.707 29.1758 598.56 28.7598 599.541 28.5145V29.8745C598.859 30.0345 598.267 30.3438 597.765 30.8025C597.264 31.2505 596.875 31.8105 596.597 32.4825C596.32 33.1545 596.181 33.9118 596.181 34.7545V37.6345C596.181 38.4558 596.315 39.2025 596.581 39.8745C596.859 40.5465 597.248 41.1065 597.749 41.5545C598.261 41.9918 598.859 42.2905 599.541 42.4505V43.8745ZM603.215 43.8745V42.4505C603.908 42.2905 604.506 41.9918 605.007 41.5545C605.508 41.1065 605.892 40.5465 606.159 39.8745C606.436 39.2025 606.575 38.4558 606.575 37.6345V34.7545C606.575 33.9118 606.436 33.1545 606.159 32.4825C605.882 31.8105 605.492 31.2505 604.991 30.8025C604.49 30.3438 603.898 30.0345 603.215 29.8745V28.5145C604.207 28.7598 605.06 29.1758 605.775 29.7625C606.49 30.3491 607.039 31.0691 607.423 31.9225C607.818 32.7651 608.015 33.7091 608.015 34.7545V37.6345C608.015 39.2238 607.594 40.5678 606.751 41.6665C605.908 42.7651 604.73 43.5011 603.215 43.8745Z" fill="white"/>
<path d="M556 173C556 168.582 559.582 165 564 165H608C612.418 165 616 168.582 616 173V210H556V173Z" fill="#7954F6"/>
<path d="M564.095 192.411V191.099H567.215V184.923H564.495V183.611H568.655V191.099H571.615V192.411H564.095ZM567.775 182.027C567.423 182.027 567.145 181.936 566.943 181.755C566.74 181.574 566.639 181.328 566.639 181.019C566.639 180.699 566.74 180.448 566.943 180.267C567.145 180.075 567.423 179.979 567.775 179.979C568.127 179.979 568.404 180.075 568.607 180.267C568.809 180.448 568.911 180.699 568.911 181.019C568.911 181.328 568.809 181.574 568.607 181.755C568.404 181.936 568.127 182.027 567.775 182.027ZM573.8 192.411V183.611H575.24V185.291H575.544L575.24 185.627C575.24 184.934 575.448 184.4 575.864 184.027C576.28 183.643 576.856 183.451 577.592 183.451C578.478 183.451 579.182 183.723 579.704 184.267C580.227 184.811 580.488 185.552 580.488 186.491V192.411H579.048V186.651C579.048 186.022 578.878 185.542 578.536 185.211C578.206 184.87 577.752 184.699 577.176 184.699C576.579 184.699 576.104 184.88 575.752 185.243C575.411 185.606 575.24 186.128 575.24 186.811V192.411H573.8ZM586.786 192.571C586.082 192.571 585.463 192.438 584.93 192.171C584.407 191.904 584.002 191.52 583.714 191.019C583.426 190.507 583.282 189.904 583.282 189.211V186.811C583.282 186.107 583.426 185.504 583.714 185.003C584.002 184.502 584.407 184.118 584.93 183.851C585.463 183.584 586.082 183.451 586.786 183.451C587.799 183.451 588.615 183.723 589.234 184.267C589.853 184.811 590.178 185.552 590.21 186.491H588.77C588.738 185.926 588.546 185.494 588.194 185.195C587.853 184.886 587.383 184.731 586.786 184.731C586.157 184.731 585.655 184.912 585.282 185.275C584.909 185.627 584.722 186.134 584.722 186.795V189.211C584.722 189.872 584.909 190.384 585.282 190.747C585.655 191.11 586.157 191.291 586.786 191.291C587.383 191.291 587.853 191.136 588.194 190.827C588.546 190.518 588.738 190.086 588.77 189.531H590.21C590.178 190.47 589.853 191.211 589.234 191.755C588.615 192.299 587.799 192.571 586.786 192.571ZM599.276 194.331C597.761 193.958 596.583 193.222 595.74 192.123C594.897 191.024 594.476 189.68 594.476 188.091V185.211C594.476 184.166 594.668 183.222 595.052 182.379C595.447 181.526 596.001 180.806 596.716 180.219C597.441 179.632 598.295 179.216 599.276 178.971V180.331C598.593 180.491 598.001 180.8 597.5 181.259C596.999 181.707 596.609 182.267 596.332 182.939C596.055 183.611 595.916 184.368 595.916 185.211V188.091C595.916 188.912 596.049 189.659 596.316 190.331C596.593 191.003 596.983 191.563 597.484 192.011C597.996 192.448 598.593 192.747 599.276 192.907V194.331ZM602.95 194.331V192.907C603.643 192.747 604.24 192.448 604.742 192.011C605.243 191.563 605.627 191.003 605.894 190.331C606.171 189.659 606.31 188.912 606.31 188.091V185.211C606.31 184.368 606.171 183.611 605.894 182.939C605.616 182.267 605.227 181.707 604.726 181.259C604.224 180.8 603.632 180.491 602.95 180.331V178.971C603.942 179.216 604.795 179.632 605.51 180.219C606.224 180.806 606.774 181.526 607.158 182.379C607.552 183.222 607.75 184.166 607.75 185.211V188.091C607.75 189.68 607.328 191.024 606.486 192.123C605.643 193.222 604.464 193.958 602.95 194.331Z" fill="white"/>
<rect width="150" height="188" rx="8" fill="#F2F2F2"/>
<line x1="39.5" y1="10" x2="39.5" y2="179" stroke="black"/>
<line x1="111.5" y1="10" x2="111.5" y2="179" stroke="black"/>
<rect x="81" y="119" width="60" height="45" rx="8" fill="#7954F6"/>
<path d="M89.0947 146.411V145.099H92.2147V138.923H89.4947V137.611H93.6547V145.099H96.6147V146.411H89.0947ZM92.7747 136.027C92.4227 136.027 92.1454 135.936 91.9427 135.755C91.7401 135.574 91.6387 135.328 91.6387 135.019C91.6387 134.699 91.7401 134.448 91.9427 134.267C92.1454 134.075 92.4227 133.979 92.7747 133.979C93.1267 133.979 93.4041 134.075 93.6067 134.267C93.8094 134.448 93.9107 134.699 93.9107 135.019C93.9107 135.328 93.8094 135.574 93.6067 135.755C93.4041 135.936 93.1267 136.027 92.7747 136.027ZM98.8005 146.411V137.611H100.24V139.291H100.544L100.24 139.627C100.24 138.934 100.448 138.4 100.864 138.027C101.28 137.643 101.856 137.451 102.592 137.451C103.478 137.451 104.182 137.723 104.704 138.267C105.227 138.811 105.488 139.552 105.488 140.491V146.411H104.048V140.651C104.048 140.022 103.878 139.542 103.536 139.211C103.206 138.87 102.752 138.699 102.176 138.699C101.579 138.699 101.104 138.88 100.752 139.243C100.411 139.606 100.24 140.128 100.24 140.811V146.411H98.8005ZM111.786 146.571C111.082 146.571 110.464 146.438 109.93 146.171C109.408 145.904 109.002 145.52 108.714 145.019C108.426 144.507 108.282 143.904 108.282 143.211V140.811C108.282 140.107 108.426 139.504 108.714 139.003C109.002 138.502 109.408 138.118 109.93 137.851C110.464 137.584 111.082 137.451 111.786 137.451C112.8 137.451 113.616 137.723 114.234 138.267C114.853 138.811 115.178 139.552 115.21 140.491H113.77C113.738 139.926 113.546 139.494 113.194 139.195C112.853 138.886 112.384 138.731 111.786 138.731C111.157 138.731 110.656 138.912 110.282 139.275C109.909 139.627 109.722 140.134 109.722 140.795V143.211C109.722 143.872 109.909 144.384 110.282 144.747C110.656 145.11 111.157 145.291 111.786 145.291C112.384 145.291 112.853 145.136 113.194 144.827C113.546 144.518 113.738 144.086 113.77 143.531H115.21C115.178 144.47 114.853 145.211 114.234 145.755C113.616 146.299 112.8 146.571 111.786 146.571ZM124.276 148.331C122.761 147.958 121.583 147.222 120.74 146.123C119.897 145.024 119.476 143.68 119.476 142.091V139.211C119.476 138.166 119.668 137.222 120.052 136.379C120.447 135.526 121.001 134.806 121.716 134.219C122.441 133.632 123.295 133.216 124.276 132.971V134.331C123.593 134.491 123.001 134.8 122.5 135.259C121.999 135.707 121.609 136.267 121.332 136.939C121.055 137.611 120.916 138.368 120.916 139.211V142.091C120.916 142.912 121.049 143.659 121.316 144.331C121.593 145.003 121.983 145.563 122.484 146.011C122.996 146.448 123.593 146.747 124.276 146.907V148.331ZM127.95 148.331V146.907C128.643 146.747 129.24 146.448 129.742 146.011C130.243 145.563 130.627 145.003 130.894 144.331C131.171 143.659 131.31 142.912 131.31 142.091V139.211C131.31 138.368 131.171 137.611 130.894 136.939C130.616 136.267 130.227 135.707 129.726 135.259C129.224 134.8 128.632 134.491 127.95 134.331V132.971C128.942 133.216 129.795 133.632 130.51 134.219C131.224 134.806 131.774 135.526 132.158 136.379C132.552 137.222 132.75 138.166 132.75 139.211V142.091C132.75 143.68 132.328 145.024 131.486 146.123C130.643 147.222 129.464 147.958 127.95 148.331Z" fill="white"/>
<rect x="9" y="19" width="60" height="45" rx="8" fill="#7954F6"/>
<path d="M17.0947 46.4109V45.0989H20.2147V38.9229H17.4947V37.6109H21.6547V45.0989H24.6147V46.4109H17.0947ZM20.7747 36.0269C20.4227 36.0269 20.1454 35.9363 19.9427 35.7549C19.7401 35.5736 19.6387 35.3283 19.6387 35.0189C19.6387 34.6989 19.7401 34.4483 19.9427 34.2669C20.1454 34.0749 20.4227 33.9789 20.7747 33.9789C21.1267 33.9789 21.4041 34.0749 21.6067 34.2669C21.8094 34.4483 21.9107 34.6989 21.9107 35.0189C21.9107 35.3283 21.8094 35.5736 21.6067 35.7549C21.4041 35.9363 21.1267 36.0269 20.7747 36.0269ZM26.8005 46.4109V37.6109H28.2405V39.2909H28.5445L28.2405 39.6269C28.2405 38.9336 28.4485 38.4003 28.8645 38.0269C29.2805 37.6429 29.8565 37.4509 30.5925 37.4509C31.4778 37.4509 32.1818 37.7229 32.7045 38.2669C33.2272 38.8109 33.4885 39.5523 33.4885 40.4909V46.4109H32.0485V40.6509C32.0485 40.0216 31.8778 39.5416 31.5365 39.2109C31.2058 38.8696 30.7525 38.6989 30.1765 38.6989C29.5792 38.6989 29.1045 38.8803 28.7525 39.2429C28.4112 39.6056 28.2405 40.1283 28.2405 40.8109V46.4109H26.8005ZM39.7862 46.5709C39.0822 46.5709 38.4636 46.4376 37.9302 46.1709C37.4076 45.9043 37.0022 45.5203 36.7142 45.0189C36.4262 44.5069 36.2822 43.9043 36.2822 43.2109V40.8109C36.2822 40.1069 36.4262 39.5043 36.7142 39.0029C37.0022 38.5016 37.4076 38.1176 37.9302 37.8509C38.4636 37.5843 39.0822 37.4509 39.7862 37.4509C40.7996 37.4509 41.6156 37.7229 42.2342 38.2669C42.8529 38.8109 43.1782 39.5523 43.2102 40.4909H41.7702C41.7382 39.9256 41.5462 39.4936 41.1942 39.1949C40.8529 38.8856 40.3836 38.7309 39.7862 38.7309C39.1569 38.7309 38.6556 38.9123 38.2822 39.2749C37.9089 39.6269 37.7222 40.1336 37.7222 40.7949V43.2109C37.7222 43.8723 37.9089 44.3843 38.2822 44.7469C38.6556 45.1096 39.1569 45.2909 39.7862 45.2909C40.3836 45.2909 40.8529 45.1363 41.1942 44.8269C41.5462 44.5176 41.7382 44.0856 41.7702 43.5309H43.2102C43.1782 44.4696 42.8529 45.2109 42.2342 45.7549C41.6156 46.2989 40.7996 46.5709 39.7862 46.5709ZM52.276 48.3309C50.7613 47.9576 49.5827 47.2216 48.74 46.1229C47.8973 45.0243 47.476 43.6803 47.476 42.0909V39.2109C47.476 38.1656 47.668 37.2216 48.052 36.3789C48.4467 35.5256 49.0013 34.8056 49.716 34.2189C50.4413 33.6323 51.2947 33.2163 52.276 32.9709V34.3309C51.5933 34.4909 51.0013 34.8003 50.5 35.2589C49.9987 35.7069 49.6093 36.2669 49.332 36.9389C49.0547 37.6109 48.916 38.3683 48.916 39.2109V42.0909C48.916 42.9123 49.0493 43.6589 49.316 44.3309C49.5933 45.0029 49.9827 45.5629 50.484 46.0109C50.996 46.4483 51.5933 46.7469 52.276 46.9069V48.3309ZM55.9497 48.3309V46.9069C56.6431 46.7469 57.2404 46.4483 57.7417 46.0109C58.2431 45.5629 58.6271 45.0029 58.8937 44.3309C59.1711 43.6589 59.3097 42.9123 59.3097 42.0909V39.2109C59.3097 38.3683 59.1711 37.6109 58.8937 36.9389C58.6164 36.2669 58.2271 35.7069 57.7257 35.2589C57.2244 34.8003 56.6324 34.4909 55.9497 34.3309V32.9709C56.9417 33.2163 57.7951 33.6323 58.5097 34.2189C59.2244 34.8056 59.7737 35.5256 60.1577 36.3789C60.5524 37.2216 60.7497 38.1656 60.7497 39.2109V42.0909C60.7497 43.6803 60.3284 45.0243 59.4857 46.1229C58.6431 47.2216 57.4644 47.9576 55.9497 48.3309Z" fill="white"/>
<rect x="81" y="68" width="60" height="45" rx="8" fill="#D55068"/>
<path d="M92.0227 95.5709C91.1481 95.5709 90.4387 95.2776 89.8947 94.6909C89.3614 94.1043 89.0947 93.3096 89.0947 92.3069V89.7309C89.0947 88.7176 89.3614 87.9176 89.8947 87.3309C90.4281 86.7443 91.1374 86.4509 92.0227 86.4509C92.7481 86.4509 93.3294 86.6483 93.7667 87.0429C94.2041 87.4376 94.4227 87.9656 94.4227 88.6269L94.1347 88.2909H94.4547L94.4227 86.2909V83.7309H95.8627V95.4109H94.4227V93.7309H94.1347L94.4227 93.3949C94.4227 94.0669 94.2041 94.6003 93.7667 94.9949C93.3294 95.3789 92.7481 95.5709 92.0227 95.5709ZM92.5027 94.3229C93.1001 94.3229 93.5694 94.1363 93.9107 93.7629C94.2521 93.3896 94.4227 92.8723 94.4227 92.2109V89.8109C94.4227 89.1496 94.2521 88.6323 93.9107 88.2589C93.5694 87.8856 93.1001 87.6989 92.5027 87.6989C91.8947 87.6989 91.4147 87.8803 91.0627 88.2429C90.7107 88.6056 90.5347 89.1283 90.5347 89.8109V92.2109C90.5347 92.8936 90.7107 93.4163 91.0627 93.7789C91.4147 94.1416 91.8947 94.3229 92.5027 94.3229ZM102.128 95.5709C101.435 95.5709 100.827 95.4323 100.304 95.1549C99.7925 94.8776 99.3925 94.4883 99.1045 93.9869C98.8272 93.4749 98.6885 92.8829 98.6885 92.2109V89.8109C98.6885 89.1283 98.8272 88.5363 99.1045 88.0349C99.3925 87.5336 99.7925 87.1443 100.304 86.8669C100.827 86.5896 101.435 86.4509 102.128 86.4509C102.822 86.4509 103.424 86.5896 103.936 86.8669C104.459 87.1443 104.859 87.5336 105.136 88.0349C105.424 88.5363 105.568 89.1283 105.568 89.8109V91.3629H100.096V92.2109C100.096 92.9043 100.272 93.4376 100.624 93.8109C100.976 94.1736 101.478 94.3549 102.128 94.3549C102.683 94.3549 103.131 94.2589 103.472 94.0669C103.814 93.8643 104.022 93.5656 104.096 93.1709H105.536C105.44 93.9069 105.078 94.4936 104.448 94.9309C103.83 95.3576 103.056 95.5709 102.128 95.5709ZM104.16 90.4029V89.8109C104.16 89.1176 103.984 88.5843 103.632 88.2109C103.291 87.8376 102.79 87.6509 102.128 87.6509C101.478 87.6509 100.976 87.8376 100.624 88.2109C100.272 88.5843 100.096 89.1176 100.096 89.8109V90.2749H104.272L104.16 90.4029ZM111.786 95.5709C111.082 95.5709 110.464 95.4376 109.93 95.1709C109.408 94.9043 109.002 94.5203 108.714 94.0189C108.426 93.5069 108.282 92.9043 108.282 92.2109V89.8109C108.282 89.1069 108.426 88.5043 108.714 88.0029C109.002 87.5016 109.408 87.1176 109.93 86.8509C110.464 86.5843 111.082 86.4509 111.786 86.4509C112.8 86.4509 113.616 86.7229 114.234 87.2669C114.853 87.8109 115.178 88.5523 115.21 89.4909H113.77C113.738 88.9256 113.546 88.4936 113.194 88.1949C112.853 87.8856 112.384 87.7309 111.786 87.7309C111.157 87.7309 110.656 87.9123 110.282 88.2749C109.909 88.6269 109.722 89.1336 109.722 89.7949V92.2109C109.722 92.8723 109.909 93.3843 110.282 93.7469C110.656 94.1096 111.157 94.2909 111.786 94.2909C112.384 94.2909 112.853 94.1363 113.194 93.8269C113.546 93.5176 113.738 93.0856 113.77 92.5309H115.21C115.178 93.4696 114.853 94.2109 114.234 94.7549C113.616 95.2989 112.8 95.5709 111.786 95.5709ZM124.276 97.3309C122.761 96.9576 121.583 96.2216 120.74 95.1229C119.897 94.0243 119.476 92.6803 119.476 91.0909V88.2109C119.476 87.1656 119.668 86.2216 120.052 85.3789C120.447 84.5256 121.001 83.8056 121.716 83.2189C122.441 82.6323 123.295 82.2163 124.276 81.9709V83.3309C123.593 83.4909 123.001 83.8003 122.5 84.2589C121.999 84.7069 121.609 85.2669 121.332 85.9389C121.055 86.6109 120.916 87.3683 120.916 88.2109V91.0909C120.916 91.9123 121.049 92.6589 121.316 93.3309C121.593 94.0029 121.983 94.5629 122.484 95.0109C122.996 95.4483 123.593 95.7469 124.276 95.9069V97.3309ZM127.95 97.3309V95.9069C128.643 95.7469 129.24 95.4483 129.742 95.0109C130.243 94.5629 130.627 94.0029 130.894 93.3309C131.171 92.6589 131.31 91.9123 131.31 91.0909V88.2109C131.31 87.3683 131.171 86.6109 130.894 85.9389C130.616 85.2669 130.227 84.7069 129.726 84.2589C129.224 83.8003 128.632 83.4909 127.95 83.3309V81.9709C128.942 82.2163 129.795 82.6323 130.51 83.2189C131.224 83.8056 131.774 84.5256 132.158 85.3789C132.552 86.2216 132.75 87.1656 132.75 88.2109V91.0909C132.75 92.6803 132.328 94.0243 131.486 95.1229C130.643 96.2216 129.464 96.9576 127.95 97.3309Z" fill="white"/>
</svg>
