<svg width="642" height="136" viewBox="0 0 642 136" fill="none" xmlns="http://www.w3.org/2000/svg">
<rect width="150" height="136" rx="8" fill="#F2F2F2"/>
<line x1="39.5" y1="8" x2="39.5" y2="128" stroke="black"/>
<line x1="111.5" y1="8" x2="111.5" y2="128" stroke="black"/>
<rect x="9" y="19" width="60" height="45" rx="8" fill="#7954F6"/>
<path d="M17.0947 46.411V45.099H20.2147V38.923H17.4947V37.611H21.6547V45.099H24.6147V46.411H17.0947ZM20.7747 36.027C20.4227 36.027 20.1453 35.9363 19.9427 35.755C19.74 35.5736 19.6387 35.3283 19.6387 35.019C19.6387 34.699 19.74 34.4483 19.9427 34.267C20.1453 34.075 20.4227 33.979 20.7747 33.979C21.1267 33.979 21.404 34.075 21.6067 34.267C21.8093 34.4483 21.9107 34.699 21.9107 35.019C21.9107 35.3283 21.8093 35.5736 21.6067 35.755C21.404 35.9363 21.1267 36.027 20.7747 36.027ZM26.8004 46.411V37.611H28.2404V39.291H28.5444L28.2404 39.627C28.2404 38.9336 28.4484 38.4003 28.8644 38.027C29.2804 37.643 29.8564 37.451 30.5924 37.451C31.4778 37.451 32.1818 37.723 32.7044 38.267C33.2271 38.811 33.4884 39.5523 33.4884 40.491V46.411H32.0484V40.651C32.0484 40.0216 31.8778 39.5416 31.5364 39.211C31.2058 38.8696 30.7524 38.699 30.1764 38.699C29.5791 38.699 29.1044 38.8803 28.7524 39.243C28.4111 39.6056 28.2404 40.1283 28.2404 40.811V46.411H26.8004ZM39.7862 46.571C39.0822 46.571 38.4635 46.4376 37.9302 46.171C37.4075 45.9043 37.0022 45.5203 36.7142 45.019C36.4262 44.507 36.2822 43.9043 36.2822 43.211V40.811C36.2822 40.107 36.4262 39.5043 36.7142 39.003C37.0022 38.5016 37.4075 38.1176 37.9302 37.851C38.4635 37.5843 39.0822 37.451 39.7862 37.451C40.7995 37.451 41.6155 37.723 42.2342 38.267C42.8528 38.811 43.1782 39.5523 43.2102 40.491H41.7702C41.7382 39.9256 41.5462 39.4936 41.1942 39.195C40.8528 38.8856 40.3835 38.731 39.7862 38.731C39.1568 38.731 38.6555 38.9123 38.2822 39.275C37.9088 39.627 37.7222 40.1336 37.7222 40.795V43.211C37.7222 43.8723 37.9088 44.3843 38.2822 44.747C38.6555 45.1096 39.1568 45.291 39.7862 45.291C40.3835 45.291 40.8528 45.1363 41.1942 44.827C41.5462 44.5176 41.7382 44.0856 41.7702 43.531H43.2102C43.1782 44.4696 42.8528 45.211 42.2342 45.755C41.6155 46.299 40.7995 46.571 39.7862 46.571ZM52.2759 48.331C50.7613 47.9576 49.5826 47.2216 48.7399 46.123C47.8973 45.0243 47.4759 43.6803 47.4759 42.091V39.211C47.4759 38.1656 47.6679 37.2216 48.0519 36.379C48.4466 35.5256 49.0013 34.8056 49.7159 34.219C50.4413 33.6323 51.2946 33.2163 52.2759 32.971V34.331C51.5933 34.491 51.0013 34.8003 50.4999 35.259C49.9986 35.707 49.6093 36.267 49.3319 36.939C49.0546 37.611 48.9159 38.3683 48.9159 39.211V42.091C48.9159 42.9123 49.0493 43.659 49.3159 44.331C49.5933 45.003 49.9826 45.563 50.4839 46.011C50.9959 46.4483 51.5933 46.747 52.2759 46.907V48.331ZM55.9497 48.331V46.907C56.643 46.747 57.2403 46.4483 57.7417 46.011C58.243 45.563 58.627 45.003 58.8937 44.331C59.171 43.659 59.3097 42.9123 59.3097 42.091V39.211C59.3097 38.3683 59.171 37.611 58.8937 36.939C58.6163 36.267 58.227 35.707 57.7257 35.259C57.2243 34.8003 56.6323 34.491 55.9497 34.331V32.971C56.9417 33.2163 57.795 33.6323 58.5097 34.219C59.2243 34.8056 59.7737 35.5256 60.1577 36.379C60.5523 37.2216 60.7497 38.1656 60.7497 39.211V42.091C60.7497 43.6803 60.3283 45.0243 59.4857 46.123C58.643 47.2216 57.4643 47.9576 55.9497 48.331Z" fill="white"/>
<rect x="81" y="19" width="60" height="45" rx="8" fill="#D55068"/>
<path d="M92.0227 46.571C91.1481 46.571 90.4387 46.2776 89.8947 45.691C89.3614 45.1043 89.0947 44.3096 89.0947 43.307V40.731C89.0947 39.7176 89.3614 38.9176 89.8947 38.331C90.4281 37.7443 91.1374 37.451 92.0227 37.451C92.7481 37.451 93.3294 37.6483 93.7667 38.043C94.2041 38.4376 94.4227 38.9656 94.4227 39.627L94.1347 39.291H94.4547L94.4227 37.291V34.731H95.8627V46.411H94.4227V44.731H94.1347L94.4227 44.395C94.4227 45.067 94.2041 45.6003 93.7667 45.995C93.3294 46.379 92.7481 46.571 92.0227 46.571ZM92.5027 45.323C93.1001 45.323 93.5694 45.1363 93.9107 44.763C94.2521 44.3896 94.4227 43.8723 94.4227 43.211V40.811C94.4227 40.1496 94.2521 39.6323 93.9107 39.259C93.5694 38.8856 93.1001 38.699 92.5027 38.699C91.8947 38.699 91.4147 38.8803 91.0627 39.243C90.7107 39.6056 90.5347 40.1283 90.5347 40.811V43.211C90.5347 43.8936 90.7107 44.4163 91.0627 44.779C91.4147 45.1416 91.8947 45.323 92.5027 45.323ZM102.128 46.571C101.435 46.571 100.827 46.4323 100.304 46.155C99.7925 45.8776 99.3925 45.4883 99.1045 44.987C98.8272 44.475 98.6885 43.883 98.6885 43.211V40.811C98.6885 40.1283 98.8272 39.5363 99.1045 39.035C99.3925 38.5336 99.7925 38.1443 100.304 37.867C100.827 37.5896 101.435 37.451 102.128 37.451C102.822 37.451 103.424 37.5896 103.936 37.867C104.459 38.1443 104.859 38.5336 105.136 39.035C105.424 39.5363 105.568 40.1283 105.568 40.811V42.363H100.096V43.211C100.096 43.9043 100.272 44.4376 100.624 44.811C100.976 45.1736 101.478 45.355 102.128 45.355C102.683 45.355 103.131 45.259 103.472 45.067C103.814 44.8643 104.022 44.5656 104.096 44.171H105.536C105.44 44.907 105.078 45.4936 104.448 45.931C103.83 46.3576 103.056 46.571 102.128 46.571ZM104.16 41.403V40.811C104.16 40.1176 103.984 39.5843 103.632 39.211C103.291 38.8376 102.79 38.651 102.128 38.651C101.478 38.651 100.976 38.8376 100.624 39.211C100.272 39.5843 100.096 40.1176 100.096 40.811V41.275H104.272L104.16 41.403ZM111.786 46.571C111.082 46.571 110.464 46.4376 109.93 46.171C109.408 45.9043 109.002 45.5203 108.714 45.019C108.426 44.507 108.282 43.9043 108.282 43.211V40.811C108.282 40.107 108.426 39.5043 108.714 39.003C109.002 38.5016 109.408 38.1176 109.93 37.851C110.464 37.5843 111.082 37.451 111.786 37.451C112.8 37.451 113.616 37.723 114.234 38.267C114.853 38.811 115.178 39.5523 115.21 40.491H113.77C113.738 39.9256 113.546 39.4936 113.194 39.195C112.853 38.8856 112.384 38.731 111.786 38.731C111.157 38.731 110.656 38.9123 110.282 39.275C109.909 39.627 109.722 40.1336 109.722 40.795V43.211C109.722 43.8723 109.909 44.3843 110.282 44.747C110.656 45.1096 111.157 45.291 111.786 45.291C112.384 45.291 112.853 45.1363 113.194 44.827C113.546 44.5176 113.738 44.0856 113.77 43.531H115.21C115.178 44.4696 114.853 45.211 114.234 45.755C113.616 46.299 112.8 46.571 111.786 46.571ZM124.276 48.331C122.761 47.9576 121.583 47.2216 120.74 46.123C119.897 45.0243 119.476 43.6803 119.476 42.091V39.211C119.476 38.1656 119.668 37.2216 120.052 36.379C120.447 35.5256 121.001 34.8056 121.716 34.219C122.441 33.6323 123.295 33.2163 124.276 32.971V34.331C123.593 34.491 123.001 34.8003 122.5 35.259C121.999 35.707 121.609 36.267 121.332 36.939C121.055 37.611 120.916 38.3683 120.916 39.211V42.091C120.916 42.9123 121.049 43.659 121.316 44.331C121.593 45.003 121.983 45.563 122.484 46.011C122.996 46.4483 123.593 46.747 124.276 46.907V48.331ZM127.95 48.331V46.907C128.643 46.747 129.24 46.4483 129.742 46.011C130.243 45.563 130.627 45.003 130.894 44.331C131.171 43.659 131.31 42.9123 131.31 42.091V39.211C131.31 38.3683 131.171 37.611 130.894 36.939C130.616 36.267 130.227 35.707 129.726 35.259C129.224 34.8003 128.632 34.491 127.95 34.331V32.971C128.942 33.2163 129.795 33.6323 130.51 34.219C131.224 34.8056 131.774 35.5256 132.158 36.379C132.552 37.2216 132.75 38.1656 132.75 39.211V42.091C132.75 43.6803 132.328 45.0243 131.486 46.123C130.643 47.2216 129.464 47.9576 127.95 48.331Z" fill="white"/>
<rect x="9" y="73" width="60" height="45" rx="8" fill="#D55068"/>
<path d="M20.0227 100.571C19.148 100.571 18.4387 100.278 17.8947 99.691C17.3613 99.1043 17.0947 98.3096 17.0947 97.307V94.731C17.0947 93.7176 17.3613 92.9176 17.8947 92.331C18.428 91.7443 19.1373 91.451 20.0227 91.451C20.748 91.451 21.3293 91.6483 21.7667 92.043C22.204 92.4376 22.4227 92.9656 22.4227 93.627L22.1347 93.291H22.4547L22.4227 91.291V88.731H23.8627V100.411H22.4227V98.731H22.1347L22.4227 98.395C22.4227 99.067 22.204 99.6003 21.7667 99.995C21.3293 100.379 20.748 100.571 20.0227 100.571ZM20.5027 99.323C21.1 99.323 21.5693 99.1363 21.9107 98.763C22.252 98.3896 22.4227 97.8723 22.4227 97.211V94.811C22.4227 94.1496 22.252 93.6323 21.9107 93.259C21.5693 92.8856 21.1 92.699 20.5027 92.699C19.8947 92.699 19.4147 92.8803 19.0627 93.243C18.7107 93.6056 18.5347 94.1283 18.5347 94.811V97.211C18.5347 97.8936 18.7107 98.4163 19.0627 98.779C19.4147 99.1416 19.8947 99.323 20.5027 99.323ZM30.1284 100.571C29.4351 100.571 28.8271 100.432 28.3044 100.155C27.7924 99.8776 27.3924 99.4883 27.1044 98.987C26.8271 98.475 26.6884 97.883 26.6884 97.211V94.811C26.6884 94.1283 26.8271 93.5363 27.1044 93.035C27.3924 92.5336 27.7924 92.1443 28.3044 91.867C28.8271 91.5896 29.4351 91.451 30.1284 91.451C30.8218 91.451 31.4244 91.5896 31.9364 91.867C32.4591 92.1443 32.8591 92.5336 33.1364 93.035C33.4244 93.5363 33.5684 94.1283 33.5684 94.811V96.363H28.0964V97.211C28.0964 97.9043 28.2724 98.4376 28.6244 98.811C28.9764 99.1736 29.4778 99.355 30.1284 99.355C30.6831 99.355 31.1311 99.259 31.4724 99.067C31.8138 98.8643 32.0218 98.5656 32.0964 98.171H33.5364C33.4404 98.907 33.0778 99.4936 32.4484 99.931C31.8298 100.358 31.0564 100.571 30.1284 100.571ZM32.1604 95.403V94.811C32.1604 94.1176 31.9844 93.5843 31.6324 93.211C31.2911 92.8376 30.7898 92.651 30.1284 92.651C29.4778 92.651 28.9764 92.8376 28.6244 93.211C28.2724 93.5843 28.0964 94.1176 28.0964 94.811V95.275H32.2724L32.1604 95.403ZM39.7862 100.571C39.0822 100.571 38.4635 100.438 37.9302 100.171C37.4075 99.9043 37.0022 99.5203 36.7142 99.019C36.4262 98.507 36.2822 97.9043 36.2822 97.211V94.811C36.2822 94.107 36.4262 93.5043 36.7142 93.003C37.0022 92.5016 37.4075 92.1176 37.9302 91.851C38.4635 91.5843 39.0822 91.451 39.7862 91.451C40.7995 91.451 41.6155 91.723 42.2342 92.267C42.8528 92.811 43.1782 93.5523 43.2102 94.491H41.7702C41.7382 93.9256 41.5462 93.4936 41.1942 93.195C40.8528 92.8856 40.3835 92.731 39.7862 92.731C39.1568 92.731 38.6555 92.9123 38.2822 93.275C37.9088 93.627 37.7222 94.1336 37.7222 94.795V97.211C37.7222 97.8723 37.9088 98.3843 38.2822 98.747C38.6555 99.1096 39.1568 99.291 39.7862 99.291C40.3835 99.291 40.8528 99.1363 41.1942 98.827C41.5462 98.5176 41.7382 98.0856 41.7702 97.531H43.2102C43.1782 98.4696 42.8528 99.211 42.2342 99.755C41.6155 100.299 40.7995 100.571 39.7862 100.571ZM52.2759 102.331C50.7613 101.958 49.5826 101.222 48.7399 100.123C47.8973 99.0243 47.4759 97.6803 47.4759 96.091V93.211C47.4759 92.1656 47.6679 91.2216 48.0519 90.379C48.4466 89.5256 49.0013 88.8056 49.7159 88.219C50.4413 87.6323 51.2946 87.2163 52.2759 86.971V88.331C51.5933 88.491 51.0013 88.8003 50.4999 89.259C49.9986 89.707 49.6093 90.267 49.3319 90.939C49.0546 91.611 48.9159 92.3683 48.9159 93.211V96.091C48.9159 96.9123 49.0493 97.659 49.3159 98.331C49.5933 99.003 49.9826 99.563 50.4839 100.011C50.9959 100.448 51.5933 100.747 52.2759 100.907V102.331ZM55.9497 102.331V100.907C56.643 100.747 57.2403 100.448 57.7417 100.011C58.243 99.563 58.627 99.003 58.8937 98.331C59.171 97.659 59.3097 96.9123 59.3097 96.091V93.211C59.3097 92.3683 59.171 91.611 58.8937 90.939C58.6163 90.267 58.227 89.707 57.7257 89.259C57.2243 88.8003 56.6323 88.491 55.9497 88.331V86.971C56.9417 87.2163 57.795 87.6323 58.5097 88.219C59.2243 88.8056 59.7737 89.5256 60.1577 90.379C60.5523 91.2216 60.7497 92.1656 60.7497 93.211V96.091C60.7497 97.6803 60.3283 99.0243 59.4857 100.123C58.643 101.222 57.4643 101.958 55.9497 102.331Z" fill="white"/>
<rect x="328" width="150" height="136" rx="8" fill="#F2F2F2"/>
<line x1="367.5" y1="8" x2="367.5" y2="128" stroke="black"/>
<line x1="439.5" y1="8" x2="439.5" y2="128" stroke="black"/>
<rect x="337" y="18" width="60" height="45" rx="8" fill="#7954F6"/>
<path d="M345.095 45.4109V44.0989H348.215V37.9229H345.495V36.6109H349.655V44.0989H352.615V45.4109H345.095ZM348.775 35.0269C348.423 35.0269 348.145 34.9363 347.943 34.7549C347.74 34.5736 347.639 34.3283 347.639 34.0189C347.639 33.6989 347.74 33.4483 347.943 33.2669C348.145 33.0749 348.423 32.9789 348.775 32.9789C349.127 32.9789 349.404 33.0749 349.607 33.2669C349.809 33.4483 349.911 33.6989 349.911 34.0189C349.911 34.3283 349.809 34.5736 349.607 34.7549C349.404 34.9363 349.127 35.0269 348.775 35.0269ZM354.8 45.4109V36.6109H356.24V38.2909H356.544L356.24 38.6269C356.24 37.9336 356.448 37.4003 356.864 37.0269C357.28 36.6429 357.856 36.4509 358.592 36.4509C359.478 36.4509 360.182 36.7229 360.704 37.2669C361.227 37.8109 361.488 38.5523 361.488 39.4909V45.4109H360.048V39.6509C360.048 39.0216 359.878 38.5416 359.536 38.2109C359.206 37.8696 358.752 37.6989 358.176 37.6989C357.579 37.6989 357.104 37.8803 356.752 38.2429C356.411 38.6056 356.24 39.1283 356.24 39.8109V45.4109H354.8ZM367.786 45.5709C367.082 45.5709 366.464 45.4376 365.93 45.1709C365.408 44.9043 365.002 44.5203 364.714 44.0189C364.426 43.5069 364.282 42.9043 364.282 42.2109V39.8109C364.282 39.1069 364.426 38.5043 364.714 38.0029C365.002 37.5016 365.408 37.1176 365.93 36.8509C366.464 36.5843 367.082 36.4509 367.786 36.4509C368.8 36.4509 369.616 36.7229 370.234 37.2669C370.853 37.8109 371.178 38.5523 371.21 39.4909H369.77C369.738 38.9256 369.546 38.4936 369.194 38.1949C368.853 37.8856 368.384 37.7309 367.786 37.7309C367.157 37.7309 366.656 37.9123 366.282 38.2749C365.909 38.6269 365.722 39.1336 365.722 39.7949V42.2109C365.722 42.8723 365.909 43.3843 366.282 43.7469C366.656 44.1096 367.157 44.2909 367.786 44.2909C368.384 44.2909 368.853 44.1363 369.194 43.8269C369.546 43.5176 369.738 43.0856 369.77 42.5309H371.21C371.178 43.4696 370.853 44.2109 370.234 44.7549C369.616 45.2989 368.8 45.5709 367.786 45.5709ZM380.276 47.3309C378.761 46.9576 377.583 46.2216 376.74 45.1229C375.897 44.0243 375.476 42.6803 375.476 41.0909V38.2109C375.476 37.1656 375.668 36.2216 376.052 35.3789C376.447 34.5256 377.001 33.8056 377.716 33.2189C378.441 32.6323 379.295 32.2163 380.276 31.9709V33.3309C379.593 33.4909 379.001 33.8003 378.5 34.2589C377.999 34.7069 377.609 35.2669 377.332 35.9389C377.055 36.6109 376.916 37.3683 376.916 38.2109V41.0909C376.916 41.9123 377.049 42.6589 377.316 43.3309C377.593 44.0029 377.983 44.5629 378.484 45.0109C378.996 45.4483 379.593 45.7469 380.276 45.9069V47.3309ZM383.95 47.3309V45.9069C384.643 45.7469 385.24 45.4483 385.742 45.0109C386.243 44.5629 386.627 44.0029 386.894 43.3309C387.171 42.6589 387.31 41.9123 387.31 41.0909V38.2109C387.31 37.3683 387.171 36.6109 386.894 35.9389C386.616 35.2669 386.227 34.7069 385.726 34.2589C385.224 33.8003 384.632 33.4909 383.95 33.3309V31.9709C384.942 32.2163 385.795 32.6323 386.51 33.2189C387.224 33.8056 387.774 34.5256 388.158 35.3789C388.552 36.2216 388.75 37.1656 388.75 38.2109V41.0909C388.75 42.6803 388.328 44.0243 387.486 45.1229C386.643 46.2216 385.464 46.9576 383.95 47.3309Z" fill="white"/>
<rect x="409" y="18" width="60" height="45" rx="8" fill="#D55068"/>
<path d="M420.023 45.5709C419.148 45.5709 418.439 45.2776 417.895 44.6909C417.361 44.1043 417.095 43.3096 417.095 42.3069V39.7309C417.095 38.7176 417.361 37.9176 417.895 37.3309C418.428 36.7443 419.137 36.4509 420.023 36.4509C420.748 36.4509 421.329 36.6483 421.767 37.0429C422.204 37.4376 422.423 37.9656 422.423 38.6269L422.135 38.2909H422.455L422.423 36.2909V33.7309H423.863V45.4109H422.423V43.7309H422.135L422.423 43.3949C422.423 44.0669 422.204 44.6003 421.767 44.9949C421.329 45.3789 420.748 45.5709 420.023 45.5709ZM420.503 44.3229C421.1 44.3229 421.569 44.1363 421.911 43.7629C422.252 43.3896 422.423 42.8723 422.423 42.2109V39.8109C422.423 39.1496 422.252 38.6323 421.911 38.2589C421.569 37.8856 421.1 37.6989 420.503 37.6989C419.895 37.6989 419.415 37.8803 419.063 38.2429C418.711 38.6056 418.535 39.1283 418.535 39.8109V42.2109C418.535 42.8936 418.711 43.4163 419.063 43.7789C419.415 44.1416 419.895 44.3229 420.503 44.3229ZM430.128 45.5709C429.435 45.5709 428.827 45.4323 428.304 45.1549C427.792 44.8776 427.392 44.4883 427.104 43.9869C426.827 43.4749 426.688 42.8829 426.688 42.2109V39.8109C426.688 39.1283 426.827 38.5363 427.104 38.0349C427.392 37.5336 427.792 37.1443 428.304 36.8669C428.827 36.5896 429.435 36.4509 430.128 36.4509C430.822 36.4509 431.424 36.5896 431.936 36.8669C432.459 37.1443 432.859 37.5336 433.136 38.0349C433.424 38.5363 433.568 39.1283 433.568 39.8109V41.3629H428.096V42.2109C428.096 42.9043 428.272 43.4376 428.624 43.8109C428.976 44.1736 429.478 44.3549 430.128 44.3549C430.683 44.3549 431.131 44.2589 431.472 44.0669C431.814 43.8643 432.022 43.5656 432.096 43.1709H433.536C433.44 43.9069 433.078 44.4936 432.448 44.9309C431.83 45.3576 431.056 45.5709 430.128 45.5709ZM432.16 40.4029V39.8109C432.16 39.1176 431.984 38.5843 431.632 38.2109C431.291 37.8376 430.79 37.6509 430.128 37.6509C429.478 37.6509 428.976 37.8376 428.624 38.2109C428.272 38.5843 428.096 39.1176 428.096 39.8109V40.2749H432.272L432.16 40.4029ZM439.786 45.5709C439.082 45.5709 438.464 45.4376 437.93 45.1709C437.408 44.9043 437.002 44.5203 436.714 44.0189C436.426 43.5069 436.282 42.9043 436.282 42.2109V39.8109C436.282 39.1069 436.426 38.5043 436.714 38.0029C437.002 37.5016 437.408 37.1176 437.93 36.8509C438.464 36.5843 439.082 36.4509 439.786 36.4509C440.8 36.4509 441.616 36.7229 442.234 37.2669C442.853 37.8109 443.178 38.5523 443.21 39.4909H441.77C441.738 38.9256 441.546 38.4936 441.194 38.1949C440.853 37.8856 440.384 37.7309 439.786 37.7309C439.157 37.7309 438.656 37.9123 438.282 38.2749C437.909 38.6269 437.722 39.1336 437.722 39.7949V42.2109C437.722 42.8723 437.909 43.3843 438.282 43.7469C438.656 44.1096 439.157 44.2909 439.786 44.2909C440.384 44.2909 440.853 44.1363 441.194 43.8269C441.546 43.5176 441.738 43.0856 441.77 42.5309H443.21C443.178 43.4696 442.853 44.2109 442.234 44.7549C441.616 45.2989 440.8 45.5709 439.786 45.5709ZM452.276 47.3309C450.761 46.9576 449.583 46.2216 448.74 45.1229C447.897 44.0243 447.476 42.6803 447.476 41.0909V38.2109C447.476 37.1656 447.668 36.2216 448.052 35.3789C448.447 34.5256 449.001 33.8056 449.716 33.2189C450.441 32.6323 451.295 32.2163 452.276 31.9709V33.3309C451.593 33.4909 451.001 33.8003 450.5 34.2589C449.999 34.7069 449.609 35.2669 449.332 35.9389C449.055 36.6109 448.916 37.3683 448.916 38.2109V41.0909C448.916 41.9123 449.049 42.6589 449.316 43.3309C449.593 44.0029 449.983 44.5629 450.484 45.0109C450.996 45.4483 451.593 45.7469 452.276 45.9069V47.3309ZM455.95 47.3309V45.9069C456.643 45.7469 457.24 45.4483 457.742 45.0109C458.243 44.5629 458.627 44.0029 458.894 43.3309C459.171 42.6589 459.31 41.9123 459.31 41.0909V38.2109C459.31 37.3683 459.171 36.6109 458.894 35.9389C458.616 35.2669 458.227 34.7069 457.726 34.2589C457.224 33.8003 456.632 33.4909 455.95 33.3309V31.9709C456.942 32.2163 457.795 32.6323 458.51 33.2189C459.224 33.8056 459.774 34.5256 460.158 35.3789C460.552 36.2216 460.75 37.1656 460.75 38.2109V41.0909C460.75 42.6803 460.328 44.0243 459.486 45.1229C458.643 46.2216 457.464 46.9576 455.95 47.3309Z" fill="white"/>
<rect x="409" y="72" width="60" height="45" rx="8" fill="#D55068"/>
<path d="M420.023 99.571C419.148 99.571 418.439 99.2776 417.895 98.691C417.361 98.1043 417.095 97.3096 417.095 96.307V93.731C417.095 92.7176 417.361 91.9176 417.895 91.331C418.428 90.7443 419.137 90.451 420.023 90.451C420.748 90.451 421.329 90.6483 421.767 91.043C422.204 91.4376 422.423 91.9656 422.423 92.627L422.135 92.291H422.455L422.423 90.291V87.731H423.863V99.411H422.423V97.731H422.135L422.423 97.395C422.423 98.067 422.204 98.6003 421.767 98.995C421.329 99.379 420.748 99.571 420.023 99.571ZM420.503 98.323C421.1 98.323 421.569 98.1363 421.911 97.763C422.252 97.3896 422.423 96.8723 422.423 96.211V93.811C422.423 93.1496 422.252 92.6323 421.911 92.259C421.569 91.8856 421.1 91.699 420.503 91.699C419.895 91.699 419.415 91.8803 419.063 92.243C418.711 92.6056 418.535 93.1283 418.535 93.811V96.211C418.535 96.8936 418.711 97.4163 419.063 97.779C419.415 98.1416 419.895 98.323 420.503 98.323ZM430.128 99.571C429.435 99.571 428.827 99.4323 428.304 99.155C427.792 98.8776 427.392 98.4883 427.104 97.987C426.827 97.475 426.688 96.883 426.688 96.211V93.811C426.688 93.1283 426.827 92.5363 427.104 92.035C427.392 91.5336 427.792 91.1443 428.304 90.867C428.827 90.5896 429.435 90.451 430.128 90.451C430.822 90.451 431.424 90.5896 431.936 90.867C432.459 91.1443 432.859 91.5336 433.136 92.035C433.424 92.5363 433.568 93.1283 433.568 93.811V95.363H428.096V96.211C428.096 96.9043 428.272 97.4376 428.624 97.811C428.976 98.1736 429.478 98.355 430.128 98.355C430.683 98.355 431.131 98.259 431.472 98.067C431.814 97.8643 432.022 97.5656 432.096 97.171H433.536C433.44 97.907 433.078 98.4936 432.448 98.931C431.83 99.3576 431.056 99.571 430.128 99.571ZM432.16 94.403V93.811C432.16 93.1176 431.984 92.5843 431.632 92.211C431.291 91.8376 430.79 91.651 430.128 91.651C429.478 91.651 428.976 91.8376 428.624 92.211C428.272 92.5843 428.096 93.1176 428.096 93.811V94.275H432.272L432.16 94.403ZM439.786 99.571C439.082 99.571 438.464 99.4376 437.93 99.171C437.408 98.9043 437.002 98.5203 436.714 98.019C436.426 97.507 436.282 96.9043 436.282 96.211V93.811C436.282 93.107 436.426 92.5043 436.714 92.003C437.002 91.5016 437.408 91.1176 437.93 90.851C438.464 90.5843 439.082 90.451 439.786 90.451C440.8 90.451 441.616 90.723 442.234 91.267C442.853 91.811 443.178 92.5523 443.21 93.491H441.77C441.738 92.9256 441.546 92.4936 441.194 92.195C440.853 91.8856 440.384 91.731 439.786 91.731C439.157 91.731 438.656 91.9123 438.282 92.275C437.909 92.627 437.722 93.1336 437.722 93.795V96.211C437.722 96.8723 437.909 97.3843 438.282 97.747C438.656 98.1096 439.157 98.291 439.786 98.291C440.384 98.291 440.853 98.1363 441.194 97.827C441.546 97.5176 441.738 97.0856 441.77 96.531H443.21C443.178 97.4696 442.853 98.211 442.234 98.755C441.616 99.299 440.8 99.571 439.786 99.571ZM452.276 101.331C450.761 100.958 449.583 100.222 448.74 99.123C447.897 98.0243 447.476 96.6803 447.476 95.091V92.211C447.476 91.1656 447.668 90.2216 448.052 89.379C448.447 88.5256 449.001 87.8056 449.716 87.219C450.441 86.6323 451.295 86.2163 452.276 85.971V87.331C451.593 87.491 451.001 87.8003 450.5 88.259C449.999 88.707 449.609 89.267 449.332 89.939C449.055 90.611 448.916 91.3683 448.916 92.211V95.091C448.916 95.9123 449.049 96.659 449.316 97.331C449.593 98.003 449.983 98.563 450.484 99.011C450.996 99.4483 451.593 99.747 452.276 99.907V101.331ZM455.95 101.331V99.907C456.643 99.747 457.24 99.4483 457.742 99.011C458.243 98.563 458.627 98.003 458.894 97.331C459.171 96.659 459.31 95.9123 459.31 95.091V92.211C459.31 91.3683 459.171 90.611 458.894 89.939C458.616 89.267 458.227 88.707 457.726 88.259C457.224 87.8003 456.632 87.491 455.95 87.331V85.971C456.942 86.2163 457.795 86.6323 458.51 87.219C459.224 87.8056 459.774 88.5256 460.158 89.379C460.552 90.2216 460.75 91.1656 460.75 92.211V95.091C460.75 96.6803 460.328 98.0243 459.486 99.123C458.643 100.222 457.464 100.958 455.95 101.331Z" fill="white"/>
<rect x="492" width="150" height="136" rx="8" fill="#F2F2F2"/>
<line x1="531.5" y1="8" x2="531.5" y2="128" stroke="black"/>
<line x1="603.5" y1="8" x2="603.5" y2="128" stroke="black"/>
<rect x="501" y="18" width="60" height="45" rx="8" fill="#7954F6"/>
<path d="M509.095 45.4109V44.0989H512.215V37.9229H509.495V36.6109H513.655V44.0989H516.615V45.4109H509.095ZM512.775 35.0269C512.423 35.0269 512.145 34.9363 511.943 34.7549C511.74 34.5736 511.639 34.3283 511.639 34.0189C511.639 33.6989 511.74 33.4483 511.943 33.2669C512.145 33.0749 512.423 32.9789 512.775 32.9789C513.127 32.9789 513.404 33.0749 513.607 33.2669C513.809 33.4483 513.911 33.6989 513.911 34.0189C513.911 34.3283 513.809 34.5736 513.607 34.7549C513.404 34.9363 513.127 35.0269 512.775 35.0269ZM518.8 45.4109V36.6109H520.24V38.2909H520.544L520.24 38.6269C520.24 37.9336 520.448 37.4003 520.864 37.0269C521.28 36.6429 521.856 36.4509 522.592 36.4509C523.478 36.4509 524.182 36.7229 524.704 37.2669C525.227 37.8109 525.488 38.5523 525.488 39.4909V45.4109H524.048V39.6509C524.048 39.0216 523.878 38.5416 523.536 38.2109C523.206 37.8696 522.752 37.6989 522.176 37.6989C521.579 37.6989 521.104 37.8803 520.752 38.2429C520.411 38.6056 520.24 39.1283 520.24 39.8109V45.4109H518.8ZM531.786 45.5709C531.082 45.5709 530.464 45.4376 529.93 45.1709C529.408 44.9043 529.002 44.5203 528.714 44.0189C528.426 43.5069 528.282 42.9043 528.282 42.2109V39.8109C528.282 39.1069 528.426 38.5043 528.714 38.0029C529.002 37.5016 529.408 37.1176 529.93 36.8509C530.464 36.5843 531.082 36.4509 531.786 36.4509C532.8 36.4509 533.616 36.7229 534.234 37.2669C534.853 37.8109 535.178 38.5523 535.21 39.4909H533.77C533.738 38.9256 533.546 38.4936 533.194 38.1949C532.853 37.8856 532.384 37.7309 531.786 37.7309C531.157 37.7309 530.656 37.9123 530.282 38.2749C529.909 38.6269 529.722 39.1336 529.722 39.7949V42.2109C529.722 42.8723 529.909 43.3843 530.282 43.7469C530.656 44.1096 531.157 44.2909 531.786 44.2909C532.384 44.2909 532.853 44.1363 533.194 43.8269C533.546 43.5176 533.738 43.0856 533.77 42.5309H535.21C535.178 43.4696 534.853 44.2109 534.234 44.7549C533.616 45.2989 532.8 45.5709 531.786 45.5709ZM544.276 47.3309C542.761 46.9576 541.583 46.2216 540.74 45.1229C539.897 44.0243 539.476 42.6803 539.476 41.0909V38.2109C539.476 37.1656 539.668 36.2216 540.052 35.3789C540.447 34.5256 541.001 33.8056 541.716 33.2189C542.441 32.6323 543.295 32.2163 544.276 31.9709V33.3309C543.593 33.4909 543.001 33.8003 542.5 34.2589C541.999 34.7069 541.609 35.2669 541.332 35.9389C541.055 36.6109 540.916 37.3683 540.916 38.2109V41.0909C540.916 41.9123 541.049 42.6589 541.316 43.3309C541.593 44.0029 541.983 44.5629 542.484 45.0109C542.996 45.4483 543.593 45.7469 544.276 45.9069V47.3309ZM547.95 47.3309V45.9069C548.643 45.7469 549.24 45.4483 549.742 45.0109C550.243 44.5629 550.627 44.0029 550.894 43.3309C551.171 42.6589 551.31 41.9123 551.31 41.0909V38.2109C551.31 37.3683 551.171 36.6109 550.894 35.9389C550.616 35.2669 550.227 34.7069 549.726 34.2589C549.224 33.8003 548.632 33.4909 547.95 33.3309V31.9709C548.942 32.2163 549.795 32.6323 550.51 33.2189C551.224 33.8056 551.774 34.5256 552.158 35.3789C552.552 36.2216 552.75 37.1656 552.75 38.2109V41.0909C552.75 42.6803 552.328 44.0243 551.486 45.1229C550.643 46.2216 549.464 46.9576 547.95 47.3309Z" fill="white"/>
<rect x="573" y="18" width="60" height="45" rx="8" fill="#D55068"/>
<path d="M584.023 45.5709C583.148 45.5709 582.439 45.2776 581.895 44.6909C581.361 44.1043 581.095 43.3096 581.095 42.3069V39.7309C581.095 38.7176 581.361 37.9176 581.895 37.3309C582.428 36.7443 583.137 36.4509 584.023 36.4509C584.748 36.4509 585.329 36.6483 585.767 37.0429C586.204 37.4376 586.423 37.9656 586.423 38.6269L586.135 38.2909H586.455L586.423 36.2909V33.7309H587.863V45.4109H586.423V43.7309H586.135L586.423 43.3949C586.423 44.0669 586.204 44.6003 585.767 44.9949C585.329 45.3789 584.748 45.5709 584.023 45.5709ZM584.503 44.3229C585.1 44.3229 585.569 44.1363 585.911 43.7629C586.252 43.3896 586.423 42.8723 586.423 42.2109V39.8109C586.423 39.1496 586.252 38.6323 585.911 38.2589C585.569 37.8856 585.1 37.6989 584.503 37.6989C583.895 37.6989 583.415 37.8803 583.063 38.2429C582.711 38.6056 582.535 39.1283 582.535 39.8109V42.2109C582.535 42.8936 582.711 43.4163 583.063 43.7789C583.415 44.1416 583.895 44.3229 584.503 44.3229ZM594.128 45.5709C593.435 45.5709 592.827 45.4323 592.304 45.1549C591.792 44.8776 591.392 44.4883 591.104 43.9869C590.827 43.4749 590.688 42.8829 590.688 42.2109V39.8109C590.688 39.1283 590.827 38.5363 591.104 38.0349C591.392 37.5336 591.792 37.1443 592.304 36.8669C592.827 36.5896 593.435 36.4509 594.128 36.4509C594.822 36.4509 595.424 36.5896 595.936 36.8669C596.459 37.1443 596.859 37.5336 597.136 38.0349C597.424 38.5363 597.568 39.1283 597.568 39.8109V41.3629H592.096V42.2109C592.096 42.9043 592.272 43.4376 592.624 43.8109C592.976 44.1736 593.478 44.3549 594.128 44.3549C594.683 44.3549 595.131 44.2589 595.472 44.0669C595.814 43.8643 596.022 43.5656 596.096 43.1709H597.536C597.44 43.9069 597.078 44.4936 596.448 44.9309C595.83 45.3576 595.056 45.5709 594.128 45.5709ZM596.16 40.4029V39.8109C596.16 39.1176 595.984 38.5843 595.632 38.2109C595.291 37.8376 594.79 37.6509 594.128 37.6509C593.478 37.6509 592.976 37.8376 592.624 38.2109C592.272 38.5843 592.096 39.1176 592.096 39.8109V40.2749H596.272L596.16 40.4029ZM603.786 45.5709C603.082 45.5709 602.464 45.4376 601.93 45.1709C601.408 44.9043 601.002 44.5203 600.714 44.0189C600.426 43.5069 600.282 42.9043 600.282 42.2109V39.8109C600.282 39.1069 600.426 38.5043 600.714 38.0029C601.002 37.5016 601.408 37.1176 601.93 36.8509C602.464 36.5843 603.082 36.4509 603.786 36.4509C604.8 36.4509 605.616 36.7229 606.234 37.2669C606.853 37.8109 607.178 38.5523 607.21 39.4909H605.77C605.738 38.9256 605.546 38.4936 605.194 38.1949C604.853 37.8856 604.384 37.7309 603.786 37.7309C603.157 37.7309 602.656 37.9123 602.282 38.2749C601.909 38.6269 601.722 39.1336 601.722 39.7949V42.2109C601.722 42.8723 601.909 43.3843 602.282 43.7469C602.656 44.1096 603.157 44.2909 603.786 44.2909C604.384 44.2909 604.853 44.1363 605.194 43.8269C605.546 43.5176 605.738 43.0856 605.77 42.5309H607.21C607.178 43.4696 606.853 44.2109 606.234 44.7549C605.616 45.2989 604.8 45.5709 603.786 45.5709ZM616.276 47.3309C614.761 46.9576 613.583 46.2216 612.74 45.1229C611.897 44.0243 611.476 42.6803 611.476 41.0909V38.2109C611.476 37.1656 611.668 36.2216 612.052 35.3789C612.447 34.5256 613.001 33.8056 613.716 33.2189C614.441 32.6323 615.295 32.2163 616.276 31.9709V33.3309C615.593 33.4909 615.001 33.8003 614.5 34.2589C613.999 34.7069 613.609 35.2669 613.332 35.9389C613.055 36.6109 612.916 37.3683 612.916 38.2109V41.0909C612.916 41.9123 613.049 42.6589 613.316 43.3309C613.593 44.0029 613.983 44.5629 614.484 45.0109C614.996 45.4483 615.593 45.7469 616.276 45.9069V47.3309ZM619.95 47.3309V45.9069C620.643 45.7469 621.24 45.4483 621.742 45.0109C622.243 44.5629 622.627 44.0029 622.894 43.3309C623.171 42.6589 623.31 41.9123 623.31 41.0909V38.2109C623.31 37.3683 623.171 36.6109 622.894 35.9389C622.616 35.2669 622.227 34.7069 621.726 34.2589C621.224 33.8003 620.632 33.4909 619.95 33.3309V31.9709C620.942 32.2163 621.795 32.6323 622.51 33.2189C623.224 33.8056 623.774 34.5256 624.158 35.3789C624.552 36.2216 624.75 37.1656 624.75 38.2109V41.0909C624.75 42.6803 624.328 44.0243 623.486 45.1229C622.643 46.2216 621.464 46.9576 619.95 47.3309Z" fill="white"/>
<rect x="573" y="72" width="60" height="45" rx="8" fill="#7954F6"/>
<path d="M584.023 99.571C583.148 99.571 582.439 99.2776 581.895 98.691C581.361 98.1043 581.095 97.3096 581.095 96.307V93.731C581.095 92.7176 581.361 91.9176 581.895 91.331C582.428 90.7443 583.137 90.451 584.023 90.451C584.748 90.451 585.329 90.6483 585.767 91.043C586.204 91.4376 586.423 91.9656 586.423 92.627L586.135 92.291H586.455L586.423 90.291V87.731H587.863V99.411H586.423V97.731H586.135L586.423 97.395C586.423 98.067 586.204 98.6003 585.767 98.995C585.329 99.379 584.748 99.571 584.023 99.571ZM584.503 98.323C585.1 98.323 585.569 98.1363 585.911 97.763C586.252 97.3896 586.423 96.8723 586.423 96.211V93.811C586.423 93.1496 586.252 92.6323 585.911 92.259C585.569 91.8856 585.1 91.699 584.503 91.699C583.895 91.699 583.415 91.8803 583.063 92.243C582.711 92.6056 582.535 93.1283 582.535 93.811V96.211C582.535 96.8936 582.711 97.4163 583.063 97.779C583.415 98.1416 583.895 98.323 584.503 98.323ZM594.128 99.571C593.435 99.571 592.827 99.4323 592.304 99.155C591.792 98.8776 591.392 98.4883 591.104 97.987C590.827 97.475 590.688 96.883 590.688 96.211V93.811C590.688 93.1283 590.827 92.5363 591.104 92.035C591.392 91.5336 591.792 91.1443 592.304 90.867C592.827 90.5896 593.435 90.451 594.128 90.451C594.822 90.451 595.424 90.5896 595.936 90.867C596.459 91.1443 596.859 91.5336 597.136 92.035C597.424 92.5363 597.568 93.1283 597.568 93.811V95.363H592.096V96.211C592.096 96.9043 592.272 97.4376 592.624 97.811C592.976 98.1736 593.478 98.355 594.128 98.355C594.683 98.355 595.131 98.259 595.472 98.067C595.814 97.8643 596.022 97.5656 596.096 97.171H597.536C597.44 97.907 597.078 98.4936 596.448 98.931C595.83 99.3576 595.056 99.571 594.128 99.571ZM596.16 94.403V93.811C596.16 93.1176 595.984 92.5843 595.632 92.211C595.291 91.8376 594.79 91.651 594.128 91.651C593.478 91.651 592.976 91.8376 592.624 92.211C592.272 92.5843 592.096 93.1176 592.096 93.811V94.275H596.272L596.16 94.403ZM603.786 99.571C603.082 99.571 602.464 99.4376 601.93 99.171C601.408 98.9043 601.002 98.5203 600.714 98.019C600.426 97.507 600.282 96.9043 600.282 96.211V93.811C600.282 93.107 600.426 92.5043 600.714 92.003C601.002 91.5016 601.408 91.1176 601.93 90.851C602.464 90.5843 603.082 90.451 603.786 90.451C604.8 90.451 605.616 90.723 606.234 91.267C606.853 91.811 607.178 92.5523 607.21 93.491H605.77C605.738 92.9256 605.546 92.4936 605.194 92.195C604.853 91.8856 604.384 91.731 603.786 91.731C603.157 91.731 602.656 91.9123 602.282 92.275C601.909 92.627 601.722 93.1336 601.722 93.795V96.211C601.722 96.8723 601.909 97.3843 602.282 97.747C602.656 98.1096 603.157 98.291 603.786 98.291C604.384 98.291 604.853 98.1363 605.194 97.827C605.546 97.5176 605.738 97.0856 605.77 96.531H607.21C607.178 97.4696 606.853 98.211 606.234 98.755C605.616 99.299 604.8 99.571 603.786 99.571ZM616.276 101.331C614.761 100.958 613.583 100.222 612.74 99.123C611.897 98.0243 611.476 96.6803 611.476 95.091V92.211C611.476 91.1656 611.668 90.2216 612.052 89.379C612.447 88.5256 613.001 87.8056 613.716 87.219C614.441 86.6323 615.295 86.2163 616.276 85.971V87.331C615.593 87.491 615.001 87.8003 614.5 88.259C613.999 88.707 613.609 89.267 613.332 89.939C613.055 90.611 612.916 91.3683 612.916 92.211V95.091C612.916 95.9123 613.049 96.659 613.316 97.331C613.593 98.003 613.983 98.563 614.484 99.011C614.996 99.4483 615.593 99.747 616.276 99.907V101.331ZM619.95 101.331V99.907C620.643 99.747 621.24 99.4483 621.742 99.011C622.243 98.563 622.627 98.003 622.894 97.331C623.171 96.659 623.31 95.9123 623.31 95.091V92.211C623.31 91.3683 623.171 90.611 622.894 89.939C622.616 89.267 622.227 88.707 621.726 88.259C621.224 87.8003 620.632 87.491 619.95 87.331V85.971C620.942 86.2163 621.795 86.6323 622.51 87.219C623.224 87.8056 623.774 88.5256 624.158 89.379C624.552 90.2216 624.75 91.1656 624.75 92.211V95.091C624.75 96.6803 624.328 98.0243 623.486 99.123C622.643 100.222 621.464 100.958 619.95 101.331Z" fill="white"/>
<rect x="164" width="150" height="136" rx="8" fill="#F2F2F2"/>
<line x1="203.5" y1="8" x2="203.5" y2="128" stroke="black"/>
<line x1="275.5" y1="8" x2="275.5" y2="128" stroke="black"/>
<rect x="173" y="18" width="60" height="45" rx="8" fill="#7954F6"/>
<path d="M181.095 45.4109V44.0989H184.215V37.9229H181.495V36.6109H185.655V44.0989H188.615V45.4109H181.095ZM184.775 35.0269C184.423 35.0269 184.145 34.9363 183.943 34.7549C183.74 34.5736 183.639 34.3283 183.639 34.0189C183.639 33.6989 183.74 33.4483 183.943 33.2669C184.145 33.0749 184.423 32.9789 184.775 32.9789C185.127 32.9789 185.404 33.0749 185.607 33.2669C185.809 33.4483 185.911 33.6989 185.911 34.0189C185.911 34.3283 185.809 34.5736 185.607 34.7549C185.404 34.9363 185.127 35.0269 184.775 35.0269ZM190.8 45.4109V36.6109H192.24V38.2909H192.544L192.24 38.6269C192.24 37.9336 192.448 37.4003 192.864 37.0269C193.28 36.6429 193.856 36.4509 194.592 36.4509C195.478 36.4509 196.182 36.7229 196.704 37.2669C197.227 37.8109 197.488 38.5523 197.488 39.4909V45.4109H196.048V39.6509C196.048 39.0216 195.878 38.5416 195.536 38.2109C195.206 37.8696 194.752 37.6989 194.176 37.6989C193.579 37.6989 193.104 37.8803 192.752 38.2429C192.411 38.6056 192.24 39.1283 192.24 39.8109V45.4109H190.8ZM203.786 45.5709C203.082 45.5709 202.464 45.4376 201.93 45.1709C201.408 44.9043 201.002 44.5203 200.714 44.0189C200.426 43.5069 200.282 42.9043 200.282 42.2109V39.8109C200.282 39.1069 200.426 38.5043 200.714 38.0029C201.002 37.5016 201.408 37.1176 201.93 36.8509C202.464 36.5843 203.082 36.4509 203.786 36.4509C204.8 36.4509 205.616 36.7229 206.234 37.2669C206.853 37.8109 207.178 38.5523 207.21 39.4909H205.77C205.738 38.9256 205.546 38.4936 205.194 38.1949C204.853 37.8856 204.384 37.7309 203.786 37.7309C203.157 37.7309 202.656 37.9123 202.282 38.2749C201.909 38.6269 201.722 39.1336 201.722 39.7949V42.2109C201.722 42.8723 201.909 43.3843 202.282 43.7469C202.656 44.1096 203.157 44.2909 203.786 44.2909C204.384 44.2909 204.853 44.1363 205.194 43.8269C205.546 43.5176 205.738 43.0856 205.77 42.5309H207.21C207.178 43.4696 206.853 44.2109 206.234 44.7549C205.616 45.2989 204.8 45.5709 203.786 45.5709ZM216.276 47.3309C214.761 46.9576 213.583 46.2216 212.74 45.1229C211.897 44.0243 211.476 42.6803 211.476 41.0909V38.2109C211.476 37.1656 211.668 36.2216 212.052 35.3789C212.447 34.5256 213.001 33.8056 213.716 33.2189C214.441 32.6323 215.295 32.2163 216.276 31.9709V33.3309C215.593 33.4909 215.001 33.8003 214.5 34.2589C213.999 34.7069 213.609 35.2669 213.332 35.9389C213.055 36.6109 212.916 37.3683 212.916 38.2109V41.0909C212.916 41.9123 213.049 42.6589 213.316 43.3309C213.593 44.0029 213.983 44.5629 214.484 45.0109C214.996 45.4483 215.593 45.7469 216.276 45.9069V47.3309ZM219.95 47.3309V45.9069C220.643 45.7469 221.24 45.4483 221.742 45.0109C222.243 44.5629 222.627 44.0029 222.894 43.3309C223.171 42.6589 223.31 41.9123 223.31 41.0909V38.2109C223.31 37.3683 223.171 36.6109 222.894 35.9389C222.616 35.2669 222.227 34.7069 221.726 34.2589C221.224 33.8003 220.632 33.4909 219.95 33.3309V31.9709C220.942 32.2163 221.795 32.6323 222.51 33.2189C223.224 33.8056 223.774 34.5256 224.158 35.3789C224.552 36.2216 224.75 37.1656 224.75 38.2109V41.0909C224.75 42.6803 224.328 44.0243 223.486 45.1229C222.643 46.2216 221.464 46.9576 219.95 47.3309Z" fill="white"/>
<rect x="245" y="18" width="60" height="45" rx="8" fill="#7954F6"/>
<path d="M253.095 45.411V44.099H256.215V37.923H253.495V36.611H257.655V44.099H260.615V45.411H253.095ZM256.775 35.027C256.423 35.027 256.145 34.9363 255.943 34.755C255.74 34.5736 255.639 34.3283 255.639 34.019C255.639 33.699 255.74 33.4483 255.943 33.267C256.145 33.075 256.423 32.979 256.775 32.979C257.127 32.979 257.404 33.075 257.607 33.267C257.809 33.4483 257.911 33.699 257.911 34.019C257.911 34.3283 257.809 34.5736 257.607 34.755C257.404 34.9363 257.127 35.027 256.775 35.027ZM262.8 45.411V36.611H264.24V38.291H264.544L264.24 38.627C264.24 37.9336 264.448 37.4003 264.864 37.027C265.28 36.643 265.856 36.451 266.592 36.451C267.478 36.451 268.182 36.723 268.704 37.267C269.227 37.811 269.488 38.5523 269.488 39.491V45.411H268.048V39.651C268.048 39.0216 267.878 38.5416 267.536 38.211C267.206 37.8696 266.752 37.699 266.176 37.699C265.579 37.699 265.104 37.8803 264.752 38.243C264.411 38.6056 264.24 39.1283 264.24 39.811V45.411H262.8ZM275.786 45.571C275.082 45.571 274.464 45.4376 273.93 45.171C273.408 44.9043 273.002 44.5203 272.714 44.019C272.426 43.507 272.282 42.9043 272.282 42.211V39.811C272.282 39.107 272.426 38.5043 272.714 38.003C273.002 37.5016 273.408 37.1176 273.93 36.851C274.464 36.5843 275.082 36.451 275.786 36.451C276.8 36.451 277.616 36.723 278.234 37.267C278.853 37.811 279.178 38.5523 279.21 39.491H277.77C277.738 38.9256 277.546 38.4936 277.194 38.195C276.853 37.8856 276.384 37.731 275.786 37.731C275.157 37.731 274.656 37.9123 274.282 38.275C273.909 38.627 273.722 39.1336 273.722 39.795V42.211C273.722 42.8723 273.909 43.3843 274.282 43.747C274.656 44.1096 275.157 44.291 275.786 44.291C276.384 44.291 276.853 44.1363 277.194 43.827C277.546 43.5176 277.738 43.0856 277.77 42.531H279.21C279.178 43.4696 278.853 44.211 278.234 44.755C277.616 45.299 276.8 45.571 275.786 45.571ZM288.276 47.331C286.761 46.9576 285.583 46.2216 284.74 45.123C283.897 44.0243 283.476 42.6803 283.476 41.091V38.211C283.476 37.1656 283.668 36.2216 284.052 35.379C284.447 34.5256 285.001 33.8056 285.716 33.219C286.441 32.6323 287.295 32.2163 288.276 31.971V33.331C287.593 33.491 287.001 33.8003 286.5 34.259C285.999 34.707 285.609 35.267 285.332 35.939C285.055 36.611 284.916 37.3683 284.916 38.211V41.091C284.916 41.9123 285.049 42.659 285.316 43.331C285.593 44.003 285.983 44.563 286.484 45.011C286.996 45.4483 287.593 45.747 288.276 45.907V47.331ZM291.95 47.331V45.907C292.643 45.747 293.24 45.4483 293.742 45.011C294.243 44.563 294.627 44.003 294.894 43.331C295.171 42.659 295.31 41.9123 295.31 41.091V38.211C295.31 37.3683 295.171 36.611 294.894 35.939C294.616 35.267 294.227 34.707 293.726 34.259C293.224 33.8003 292.632 33.491 291.95 33.331V31.971C292.942 32.2163 293.795 32.6323 294.51 33.219C295.224 33.8056 295.774 34.5256 296.158 35.379C296.552 36.2216 296.75 37.1656 296.75 38.211V41.091C296.75 42.6803 296.328 44.0243 295.486 45.123C294.643 46.2216 293.464 46.9576 291.95 47.331Z" fill="white"/>
<rect x="173" y="72" width="60" height="45" rx="8" fill="#D55068"/>
<path d="M184.023 99.571C183.148 99.571 182.439 99.2776 181.895 98.691C181.361 98.1043 181.095 97.3096 181.095 96.307V93.731C181.095 92.7176 181.361 91.9176 181.895 91.331C182.428 90.7443 183.137 90.451 184.023 90.451C184.748 90.451 185.329 90.6483 185.767 91.043C186.204 91.4376 186.423 91.9656 186.423 92.627L186.135 92.291H186.455L186.423 90.291V87.731H187.863V99.411H186.423V97.731H186.135L186.423 97.395C186.423 98.067 186.204 98.6003 185.767 98.995C185.329 99.379 184.748 99.571 184.023 99.571ZM184.503 98.323C185.1 98.323 185.569 98.1363 185.911 97.763C186.252 97.3896 186.423 96.8723 186.423 96.211V93.811C186.423 93.1496 186.252 92.6323 185.911 92.259C185.569 91.8856 185.1 91.699 184.503 91.699C183.895 91.699 183.415 91.8803 183.063 92.243C182.711 92.6056 182.535 93.1283 182.535 93.811V96.211C182.535 96.8936 182.711 97.4163 183.063 97.779C183.415 98.1416 183.895 98.323 184.503 98.323ZM194.128 99.571C193.435 99.571 192.827 99.4323 192.304 99.155C191.792 98.8776 191.392 98.4883 191.104 97.987C190.827 97.475 190.688 96.883 190.688 96.211V93.811C190.688 93.1283 190.827 92.5363 191.104 92.035C191.392 91.5336 191.792 91.1443 192.304 90.867C192.827 90.5896 193.435 90.451 194.128 90.451C194.822 90.451 195.424 90.5896 195.936 90.867C196.459 91.1443 196.859 91.5336 197.136 92.035C197.424 92.5363 197.568 93.1283 197.568 93.811V95.363H192.096V96.211C192.096 96.9043 192.272 97.4376 192.624 97.811C192.976 98.1736 193.478 98.355 194.128 98.355C194.683 98.355 195.131 98.259 195.472 98.067C195.814 97.8643 196.022 97.5656 196.096 97.171H197.536C197.44 97.907 197.078 98.4936 196.448 98.931C195.83 99.3576 195.056 99.571 194.128 99.571ZM196.16 94.403V93.811C196.16 93.1176 195.984 92.5843 195.632 92.211C195.291 91.8376 194.79 91.651 194.128 91.651C193.478 91.651 192.976 91.8376 192.624 92.211C192.272 92.5843 192.096 93.1176 192.096 93.811V94.275H196.272L196.16 94.403ZM203.786 99.571C203.082 99.571 202.464 99.4376 201.93 99.171C201.408 98.9043 201.002 98.5203 200.714 98.019C200.426 97.507 200.282 96.9043 200.282 96.211V93.811C200.282 93.107 200.426 92.5043 200.714 92.003C201.002 91.5016 201.408 91.1176 201.93 90.851C202.464 90.5843 203.082 90.451 203.786 90.451C204.8 90.451 205.616 90.723 206.234 91.267C206.853 91.811 207.178 92.5523 207.21 93.491H205.77C205.738 92.9256 205.546 92.4936 205.194 92.195C204.853 91.8856 204.384 91.731 203.786 91.731C203.157 91.731 202.656 91.9123 202.282 92.275C201.909 92.627 201.722 93.1336 201.722 93.795V96.211C201.722 96.8723 201.909 97.3843 202.282 97.747C202.656 98.1096 203.157 98.291 203.786 98.291C204.384 98.291 204.853 98.1363 205.194 97.827C205.546 97.5176 205.738 97.0856 205.77 96.531H207.21C207.178 97.4696 206.853 98.211 206.234 98.755C205.616 99.299 204.8 99.571 203.786 99.571ZM216.276 101.331C214.761 100.958 213.583 100.222 212.74 99.123C211.897 98.0243 211.476 96.6803 211.476 95.091V92.211C211.476 91.1656 211.668 90.2216 212.052 89.379C212.447 88.5256 213.001 87.8056 213.716 87.219C214.441 86.6323 215.295 86.2163 216.276 85.971V87.331C215.593 87.491 215.001 87.8003 214.5 88.259C213.999 88.707 213.609 89.267 213.332 89.939C213.055 90.611 212.916 91.3683 212.916 92.211V95.091C212.916 95.9123 213.049 96.659 213.316 97.331C213.593 98.003 213.983 98.563 214.484 99.011C214.996 99.4483 215.593 99.747 216.276 99.907V101.331ZM219.95 101.331V99.907C220.643 99.747 221.24 99.4483 221.742 99.011C222.243 98.563 222.627 98.003 222.894 97.331C223.171 96.659 223.31 95.9123 223.31 95.091V92.211C223.31 91.3683 223.171 90.611 222.894 89.939C222.616 89.267 222.227 88.707 221.726 88.259C221.224 87.8003 220.632 87.491 219.95 87.331V85.971C220.942 86.2163 221.795 86.6323 222.51 87.219C223.224 87.8056 223.774 88.5256 224.158 89.379C224.552 90.2216 224.75 91.1656 224.75 92.211V95.091C224.75 96.6803 224.328 98.0243 223.486 99.123C222.643 100.222 221.464 100.958 219.95 101.331Z" fill="white"/>
</svg>
