<svg width="459" height="280" viewBox="0 0 459 280" fill="none" xmlns="http://www.w3.org/2000/svg">
<rect width="150" height="280" rx="8" fill="#F2F2F2"/>
<line x1="39.5" y1="8" x2="39.5" y2="272" stroke="black"/>
<line x1="111.5" y1="8" x2="111.5" y2="272" stroke="black"/>
<mask id="path-4-inside-1_12_114" fill="white">
<path d="M9 108H69V139H9V108Z"/>
</mask>
<path d="M9 108H69V139H9V108Z" fill="#9376F3" fill-opacity="0.2"/>
<path d="M9 108H8.5V108.969H9H9.5V108H9ZM9 110.906H8.5V112.844H9H9.5V110.906H9ZM9 114.781H8.5V116.719H9H9.5V114.781H9ZM9 118.656H8.5V120.594H9H9.5V118.656H9ZM9 122.531H8.5V124.469H9H9.5V122.531H9ZM9 126.406H8.5V128.344H9H9.5V126.406H9ZM9 130.281H8.5V132.219H9H9.5V130.281H9ZM9 134.156H8.5V136.094H9H9.5V134.156H9ZM9 138.031H8.5V139H9H9.5V138.031H9ZM69 139H69.5V138.031H69H68.5V139H69ZM69 136.094H69.5V134.156H69H68.5V136.094H69ZM69 132.219H69.5V130.281H69H68.5V132.219H69ZM69 128.344H69.5V126.406H69H68.5V128.344H69ZM69 124.469H69.5V122.531H69H68.5V124.469H69ZM69 120.594H69.5V118.656H69H68.5V120.594H69ZM69 116.719H69.5V114.781H69H68.5V116.719H69ZM69 112.844H69.5V110.906H69H68.5V112.844H69ZM69 108.969H69.5V108H69H68.5V108.969H69ZM9 108H8V108.969H9H10V108H9ZM9 110.906H8V112.844H9H10V110.906H9ZM9 114.781H8V116.719H9H10V114.781H9ZM9 118.656H8V120.594H9H10V118.656H9ZM9 122.531H8V124.469H9H10V122.531H9ZM9 126.406H8V128.344H9H10V126.406H9ZM9 130.281H8V132.219H9H10V130.281H9ZM9 134.156H8V136.094H9H10V134.156H9ZM9 138.031H8V139H9H10V138.031H9ZM69 139H70V138.031H69H68V139H69ZM69 136.094H70V134.156H69H68V136.094H69ZM69 132.219H70V130.281H69H68V132.219H69ZM69 128.344H70V126.406H69H68V128.344H69ZM69 124.469H70V122.531H69H68V124.469H69ZM69 120.594H70V118.656H69H68V120.594H69ZM69 116.719H70V114.781H69H68V116.719H69ZM69 112.844H70V110.906H69H68V112.844H69ZM69 108.969H70V108H69H68V108.969H69Z" fill="#7954F6" mask="url(#path-4-inside-1_12_114)"/>
<mask id="path-6-inside-2_12_114" fill="white">
<path d="M9 161H69V213H9V161Z"/>
</mask>
<path d="M9 161H69V213H9V161Z" fill="#9376F3" fill-opacity="0.2"/>
<path d="M9 161H8.5V162H9H9.5V161H9ZM9 164H8.5V166H9H9.5V164H9ZM9 168H8.5V170H9H9.5V168H9ZM9 172H8.5V174H9H9.5V172H9ZM9 176H8.5V178H9H9.5V176H9ZM9 180H8.5V182H9H9.5V180H9ZM9 184H8.5V186H9H9.5V184H9ZM9 188H8.5V190H9H9.5V188H9ZM9 192H8.5V194H9H9.5V192H9ZM9 196H8.5V198H9H9.5V196H9ZM9 200H8.5V202H9H9.5V200H9ZM9 204H8.5V206H9H9.5V204H9ZM9 208H8.5V210H9H9.5V208H9ZM9 212H8.5V213H9H9.5V212H9ZM69 213H69.5V212H69H68.5V213H69ZM69 210H69.5V208H69H68.5V210H69ZM69 206H69.5V204H69H68.5V206H69ZM69 202H69.5V200H69H68.5V202H69ZM69 198H69.5V196H69H68.5V198H69ZM69 194H69.5V192H69H68.5V194H69ZM69 190H69.5V188H69H68.5V190H69ZM69 186H69.5V184H69H68.5V186H69ZM69 182H69.5V180H69H68.5V182H69ZM69 178H69.5V176H69H68.5V178H69ZM69 174H69.5V172H69H68.5V174H69ZM69 170H69.5V168H69H68.5V170H69ZM69 166H69.5V164H69H68.5V166H69ZM69 162H69.5V161H69H68.5V162H69ZM9 161H8V162H9H10V161H9ZM9 164H8V166H9H10V164H9ZM9 168H8V170H9H10V168H9ZM9 172H8V174H9H10V172H9ZM9 176H8V178H9H10V176H9ZM9 180H8V182H9H10V180H9ZM9 184H8V186H9H10V184H9ZM9 188H8V190H9H10V188H9ZM9 192H8V194H9H10V192H9ZM9 196H8V198H9H10V196H9ZM9 200H8V202H9H10V200H9ZM9 204H8V206H9H10V204H9ZM9 208H8V210H9H10V208H9ZM9 212H8V213H9H10V212H9ZM69 213H70V212H69H68V213H69ZM69 210H70V208H69H68V210H69ZM69 206H70V204H69H68V206H69ZM69 202H70V200H69H68V202H69ZM69 198H70V196H69H68V198H69ZM69 194H70V192H69H68V194H69ZM69 190H70V188H69H68V190H69ZM69 186H70V184H69H68V186H69ZM69 182H70V180H69H68V182H69ZM69 178H70V176H69H68V178H69ZM69 174H70V172H69H68V174H69ZM69 170H70V168H69H68V170H69ZM69 166H70V164H69H68V166H69ZM69 162H70V161H69H68V162H69Z" fill="#7954F6" mask="url(#path-6-inside-2_12_114)"/>
<path d="M9 71C9 66.5817 12.5817 63 17 63H61C65.4183 63 69 66.5817 69 71V108H9V71Z" fill="#7954F6"/>
<path d="M17.36 90.7546V89.4426H20.48V83.2666H17.76V81.9546H21.92V89.4426H24.88V90.7546H17.36ZM21.04 80.3706C20.688 80.3706 20.4107 80.2799 20.208 80.0986C20.0053 79.9172 19.904 79.6719 19.904 79.3626C19.904 79.0426 20.0053 78.7919 20.208 78.6106C20.4107 78.4186 20.688 78.3226 21.04 78.3226C21.392 78.3226 21.6693 78.4186 21.872 78.6106C22.0747 78.7919 22.176 79.0426 22.176 79.3626C22.176 79.6719 22.0747 79.9172 21.872 80.0986C21.6693 80.2799 21.392 80.3706 21.04 80.3706ZM27.0658 90.7546V81.9546H28.5058V83.6346H28.8098L28.5058 83.9706C28.5058 83.2772 28.7138 82.7439 29.1298 82.3706C29.5458 81.9866 30.1218 81.7946 30.8578 81.7946C31.7431 81.7946 32.4471 82.0666 32.9698 82.6106C33.4924 83.1546 33.7538 83.8959 33.7538 84.8346V90.7546H32.3138V84.9946C32.3138 84.3652 32.1431 83.8852 31.8018 83.5546C31.4711 83.2132 31.0178 83.0426 30.4418 83.0426C29.8444 83.0426 29.3698 83.2239 29.0178 83.5866C28.6764 83.9492 28.5058 84.4719 28.5058 85.1546V90.7546H27.0658ZM40.0515 90.9146C39.3475 90.9146 38.7288 90.7812 38.1955 90.5146C37.6728 90.2479 37.2675 89.8639 36.9795 89.3626C36.6915 88.8506 36.5475 88.2479 36.5475 87.5546V85.1546C36.5475 84.4506 36.6915 83.8479 36.9795 83.3466C37.2675 82.8452 37.6728 82.4612 38.1955 82.1946C38.7288 81.9279 39.3475 81.7946 40.0515 81.7946C41.0648 81.7946 41.8808 82.0666 42.4995 82.6106C43.1182 83.1546 43.4435 83.8959 43.4755 84.8346H42.0355C42.0035 84.2692 41.8115 83.8372 41.4595 83.5386C41.1182 83.2292 40.6488 83.0746 40.0515 83.0746C39.4222 83.0746 38.9208 83.2559 38.5475 83.6186C38.1742 83.9706 37.9875 84.4772 37.9875 85.1386V87.5546C37.9875 88.2159 38.1742 88.7279 38.5475 89.0906C38.9208 89.4532 39.4222 89.6346 40.0515 89.6346C40.6488 89.6346 41.1182 89.4799 41.4595 89.1706C41.8115 88.8612 42.0035 88.4292 42.0355 87.8746H43.4755C43.4435 88.8132 43.1182 89.5546 42.4995 90.0986C41.8808 90.6426 41.0648 90.9146 40.0515 90.9146ZM52.5413 92.6746C51.0266 92.3012 49.8479 91.5652 49.0052 90.4666C48.1626 89.3679 47.7413 88.0239 47.7413 86.4346V83.5546C47.7413 82.5092 47.9333 81.5652 48.3173 80.7226C48.7119 79.8692 49.2666 79.1492 49.9813 78.5626C50.7066 77.9759 51.5599 77.5599 52.5413 77.3146V78.6746C51.8586 78.8346 51.2666 79.1439 50.7653 79.6026C50.2639 80.0506 49.8746 80.6106 49.5973 81.2826C49.3199 81.9546 49.1813 82.7119 49.1813 83.5546V86.4346C49.1813 87.2559 49.3146 88.0026 49.5813 88.6746C49.8586 89.3466 50.2479 89.9066 50.7493 90.3546C51.2613 90.7919 51.8586 91.0906 52.5413 91.2506V92.6746ZM56.215 92.6746V91.2506C56.9083 91.0906 57.5057 90.7919 58.007 90.3546C58.5083 89.9066 58.8923 89.3466 59.159 88.6746C59.4363 88.0026 59.575 87.2559 59.575 86.4346V83.5546C59.575 82.7119 59.4363 81.9546 59.159 81.2826C58.8817 80.6106 58.4923 80.0506 57.991 79.6026C57.4897 79.1439 56.8977 78.8346 56.215 78.6746V77.3146C57.207 77.5599 58.0603 77.9759 58.775 78.5626C59.4897 79.1492 60.039 79.8692 60.423 80.7226C60.8177 81.5652 61.015 82.5092 61.015 83.5546V86.4346C61.015 88.0239 60.5937 89.3679 59.751 90.4666C58.9083 91.5652 57.7297 92.3012 56.215 92.6746Z" fill="white"/>
<path d="M9 213H69V229C69 232.314 66.3137 235 63 235H15C11.6863 235 9 232.314 9 229V213Z" fill="#7954F6"/>
<rect x="9" y="139" width="60" height="22" fill="#7954F6"/>
<mask id="path-12-inside-3_12_114" fill="white">
<path d="M81 210H141V239H81V210Z"/>
</mask>
<path d="M81 210H141V239H81V210Z" fill="#9376F3" fill-opacity="0.2"/>
<path d="M81 210H80.5V211.036H81H81.5V210H81ZM81 213.107H80.5V215.179H81H81.5V213.107H81ZM81 217.25H80.5V219.321H81H81.5V217.25H81ZM81 221.393H80.5V223.464H81H81.5V221.393H81ZM81 225.536H80.5V227.607H81H81.5V225.536H81ZM81 229.679H80.5V231.75H81H81.5V229.679H81ZM81 233.821H80.5V235.893H81H81.5V233.821H81ZM81 237.964H80.5V239H81H81.5V237.964H81ZM141 239H141.5V237.964H141H140.5V239H141ZM141 235.893H141.5V233.821H141H140.5V235.893H141ZM141 231.75H141.5V229.679H141H140.5V231.75H141ZM141 227.607H141.5V225.536H141H140.5V227.607H141ZM141 223.464H141.5V221.393H141H140.5V223.464H141ZM141 219.321H141.5V217.25H141H140.5V219.321H141ZM141 215.179H141.5V213.107H141H140.5V215.179H141ZM141 211.036H141.5V210H141H140.5V211.036H141ZM81 210H80V211.036H81H82V210H81ZM81 213.107H80V215.179H81H82V213.107H81ZM81 217.25H80V219.321H81H82V217.25H81ZM81 221.393H80V223.464H81H82V221.393H81ZM81 225.536H80V227.607H81H82V225.536H81ZM81 229.679H80V231.75H81H82V229.679H81ZM81 233.821H80V235.893H81H82V233.821H81ZM81 237.964H80V239H81H82V237.964H81ZM141 239H142V237.964H141H140V239H141ZM141 235.893H142V233.821H141H140V235.893H141ZM141 231.75H142V229.679H141H140V231.75H141ZM141 227.607H142V225.536H141H140V227.607H141ZM141 223.464H142V221.393H141H140V223.464H141ZM141 219.321H142V217.25H141H140V219.321H141ZM141 215.179H142V213.107H141H140V215.179H141ZM141 211.036H142V210H141H140V211.036H141Z" fill="#7954F6" mask="url(#path-12-inside-3_12_114)"/>
<path d="M81 239H141V255C141 258.314 138.314 261 135 261H87C83.6863 261 81 258.314 81 255V239Z" fill="#7954F6"/>
<mask id="path-15-inside-4_12_114" fill="white">
<path d="M81 60H141V113H81V60Z"/>
</mask>
<path d="M81 60H141V113H81V60Z" fill="#DE657B" fill-opacity="0.2"/>
<path d="M81 60H80.5V61.0192H81H81.5V60H81ZM81 63.0577H80.5V65.0962H81H81.5V63.0577H81ZM81 67.1346H80.5V69.1731H81H81.5V67.1346H81ZM81 71.2115H80.5V73.25H81H81.5V71.2115H81ZM81 75.2885H80.5V77.3269H81H81.5V75.2885H81ZM81 79.3654H80.5V81.4038H81H81.5V79.3654H81ZM81 83.4423H80.5V85.4808H81H81.5V83.4423H81ZM81 87.5192H80.5V89.5577H81H81.5V87.5192H81ZM81 91.5962H80.5V93.6346H81H81.5V91.5962H81ZM81 95.6731H80.5V97.7115H81H81.5V95.6731H81ZM81 99.75H80.5V101.788H81H81.5V99.75H81ZM81 103.827H80.5V105.865H81H81.5V103.827H81ZM81 107.904H80.5V109.942H81H81.5V107.904H81ZM81 111.981H80.5V113H81H81.5V111.981H81ZM141 113H141.5V111.981H141H140.5V113H141ZM141 109.942H141.5V107.904H141H140.5V109.942H141ZM141 105.865H141.5V103.827H141H140.5V105.865H141ZM141 101.788H141.5V99.75H141H140.5V101.788H141ZM141 97.7115H141.5V95.6731H141H140.5V97.7115H141ZM141 93.6346H141.5V91.5962H141H140.5V93.6346H141ZM141 89.5577H141.5V87.5192H141H140.5V89.5577H141ZM141 85.4808H141.5V83.4423H141H140.5V85.4808H141ZM141 81.4038H141.5V79.3654H141H140.5V81.4038H141ZM141 77.3269H141.5V75.2885H141H140.5V77.3269H141ZM141 73.25H141.5V71.2115H141H140.5V73.25H141ZM141 69.1731H141.5V67.1346H141H140.5V69.1731H141ZM141 65.0962H141.5V63.0577H141H140.5V65.0962H141ZM141 61.0192H141.5V60H141H140.5V61.0192H141ZM81 60H80V61.0192H81H82V60H81ZM81 63.0577H80V65.0962H81H82V63.0577H81ZM81 67.1346H80V69.1731H81H82V67.1346H81ZM81 71.2115H80V73.25H81H82V71.2115H81ZM81 75.2885H80V77.3269H81H82V75.2885H81ZM81 79.3654H80V81.4038H81H82V79.3654H81ZM81 83.4423H80V85.4808H81H82V83.4423H81ZM81 87.5192H80V89.5577H81H82V87.5192H81ZM81 91.5962H80V93.6346H81H82V91.5962H81ZM81 95.6731H80V97.7115H81H82V95.6731H81ZM81 99.75H80V101.788H81H82V99.75H81ZM81 103.827H80V105.865H81H82V103.827H81ZM81 107.904H80V109.942H81H82V107.904H81ZM81 111.981H80V113H81H82V111.981H81ZM141 113H142V111.981H141H140V113H141ZM141 109.942H142V107.904H141H140V109.942H141ZM141 105.865H142V103.827H141H140V105.865H141ZM141 101.788H142V99.75H141H140V101.788H141ZM141 97.7115H142V95.6731H141H140V97.7115H141ZM141 93.6346H142V91.5962H141H140V93.6346H141ZM141 89.5577H142V87.5192H141H140V89.5577H141ZM141 85.4808H142V83.4423H141H140V85.4808H141ZM141 81.4038H142V79.3654H141H140V81.4038H141ZM141 77.3269H142V75.2885H141H140V77.3269H141ZM141 73.25H142V71.2115H141H140V73.25H141ZM141 69.1731H142V67.1346H141H140V69.1731H141ZM141 65.0962H142V63.0577H141H140V65.0962H141ZM141 61.0192H142V60H141H140V61.0192H141Z" fill="#D55068" mask="url(#path-15-inside-4_12_114)"/>
<path d="M81 113H141V131C141 133.209 139.209 135 137 135H85C82.7909 135 81 133.209 81 131V113Z" fill="#D55068"/>
<path d="M81 23C81 18.5817 84.5817 15 89 15H133C137.418 15 141 18.5817 141 23V60H81V23Z" fill="#D55068"/>
<path d="M92.288 42.1145C91.4133 42.1145 90.704 41.8211 90.16 41.2345C89.6267 40.6478 89.36 39.8531 89.36 38.8505V36.2745C89.36 35.2611 89.6267 34.4611 90.16 33.8745C90.6933 33.2878 91.4027 32.9945 92.288 32.9945C93.0133 32.9945 93.5947 33.1918 94.032 33.5865C94.4693 33.9811 94.688 34.5091 94.688 35.1705L94.4 34.8345H94.72L94.688 32.8345V30.2745H96.128V41.9545H94.688V40.2745H94.4L94.688 39.9385C94.688 40.6105 94.4693 41.1438 94.032 41.5385C93.5947 41.9225 93.0133 42.1145 92.288 42.1145ZM92.768 40.8665C93.3653 40.8665 93.8347 40.6798 94.176 40.3065C94.5173 39.9331 94.688 39.4158 94.688 38.7545V36.3545C94.688 35.6931 94.5173 35.1758 94.176 34.8025C93.8347 34.4291 93.3653 34.2425 92.768 34.2425C92.16 34.2425 91.68 34.4238 91.328 34.7865C90.976 35.1491 90.8 35.6718 90.8 36.3545V38.7545C90.8 39.4371 90.976 39.9598 91.328 40.3225C91.68 40.6851 92.16 40.8665 92.768 40.8665ZM102.394 42.1145C101.7 42.1145 101.092 41.9758 100.57 41.6985C100.058 41.4211 99.6578 41.0318 99.3698 40.5305C99.0924 40.0185 98.9538 39.4265 98.9538 38.7545V36.3545C98.9538 35.6718 99.0924 35.0798 99.3698 34.5785C99.6578 34.0771 100.058 33.6878 100.57 33.4105C101.092 33.1331 101.7 32.9945 102.394 32.9945C103.087 32.9945 103.69 33.1331 104.202 33.4105C104.724 33.6878 105.124 34.0771 105.402 34.5785C105.69 35.0798 105.834 35.6718 105.834 36.3545V37.9065H100.362V38.7545C100.362 39.4478 100.538 39.9811 100.89 40.3545C101.242 40.7171 101.743 40.8985 102.394 40.8985C102.948 40.8985 103.396 40.8025 103.738 40.6105C104.079 40.4078 104.287 40.1091 104.362 39.7145H105.802C105.706 40.4505 105.343 41.0371 104.714 41.4745C104.095 41.9011 103.322 42.1145 102.394 42.1145ZM104.426 36.9465V36.3545C104.426 35.6611 104.25 35.1278 103.898 34.7545C103.556 34.3811 103.055 34.1945 102.394 34.1945C101.743 34.1945 101.242 34.3811 100.89 34.7545C100.538 35.1278 100.362 35.6611 100.362 36.3545V36.8185H104.538L104.426 36.9465ZM112.052 42.1145C111.348 42.1145 110.729 41.9811 110.196 41.7145C109.673 41.4478 109.268 41.0638 108.98 40.5625C108.692 40.0505 108.548 39.4478 108.548 38.7545V36.3545C108.548 35.6505 108.692 35.0478 108.98 34.5465C109.268 34.0451 109.673 33.6611 110.196 33.3945C110.729 33.1278 111.348 32.9945 112.052 32.9945C113.065 32.9945 113.881 33.2665 114.5 33.8105C115.118 34.3545 115.444 35.0958 115.476 36.0345H114.036C114.004 35.4691 113.812 35.0371 113.46 34.7385C113.118 34.4291 112.649 34.2745 112.052 34.2745C111.422 34.2745 110.921 34.4558 110.548 34.8185C110.174 35.1705 109.988 35.6771 109.988 36.3385V38.7545C109.988 39.4158 110.174 39.9278 110.548 40.2905C110.921 40.6531 111.422 40.8345 112.052 40.8345C112.649 40.8345 113.118 40.6798 113.46 40.3705C113.812 40.0611 114.004 39.6291 114.036 39.0745H115.476C115.444 40.0131 115.118 40.7545 114.5 41.2985C113.881 41.8425 113.065 42.1145 112.052 42.1145ZM124.541 43.8745C123.027 43.5011 121.848 42.7651 121.005 41.6665C120.163 40.5678 119.741 39.2238 119.741 37.6345V34.7545C119.741 33.7091 119.933 32.7651 120.317 31.9225C120.712 31.0691 121.267 30.3491 121.981 29.7625C122.707 29.1758 123.56 28.7598 124.541 28.5145V29.8745C123.859 30.0345 123.267 30.3438 122.765 30.8025C122.264 31.2505 121.875 31.8105 121.597 32.4825C121.32 33.1545 121.181 33.9118 121.181 34.7545V37.6345C121.181 38.4558 121.315 39.2025 121.581 39.8745C121.859 40.5465 122.248 41.1065 122.749 41.5545C123.261 41.9918 123.859 42.2905 124.541 42.4505V43.8745ZM128.215 43.8745V42.4505C128.908 42.2905 129.506 41.9918 130.007 41.5545C130.508 41.1065 130.892 40.5465 131.159 39.8745C131.436 39.2025 131.575 38.4558 131.575 37.6345V34.7545C131.575 33.9118 131.436 33.1545 131.159 32.4825C130.882 31.8105 130.492 31.2505 129.991 30.8025C129.49 30.3438 128.898 30.0345 128.215 29.8745V28.5145C129.207 28.7598 130.06 29.1758 130.775 29.7625C131.49 30.3491 132.039 31.0691 132.423 31.9225C132.818 32.7651 133.015 33.7091 133.015 34.7545V37.6345C133.015 39.2238 132.594 40.5678 131.751 41.6665C130.908 42.7651 129.73 43.5011 128.215 43.8745Z" fill="white"/>
<path d="M81 173C81 168.582 84.5817 165 89 165H133C137.418 165 141 168.582 141 173V210H81V173Z" fill="#7954F6"/>
<path d="M89.0947 192.411V191.099H92.2147V184.923H89.4947V183.611H93.6547V191.099H96.6147V192.411H89.0947ZM92.7747 182.027C92.4227 182.027 92.1454 181.936 91.9427 181.755C91.7401 181.574 91.6387 181.328 91.6387 181.019C91.6387 180.699 91.7401 180.448 91.9427 180.267C92.1454 180.075 92.4227 179.979 92.7747 179.979C93.1267 179.979 93.4041 180.075 93.6067 180.267C93.8094 180.448 93.9107 180.699 93.9107 181.019C93.9107 181.328 93.8094 181.574 93.6067 181.755C93.4041 181.936 93.1267 182.027 92.7747 182.027ZM98.8005 192.411V183.611H100.24V185.291H100.544L100.24 185.627C100.24 184.934 100.448 184.4 100.864 184.027C101.28 183.643 101.856 183.451 102.592 183.451C103.478 183.451 104.182 183.723 104.704 184.267C105.227 184.811 105.488 185.552 105.488 186.491V192.411H104.048V186.651C104.048 186.022 103.878 185.542 103.536 185.211C103.206 184.87 102.752 184.699 102.176 184.699C101.579 184.699 101.104 184.88 100.752 185.243C100.411 185.606 100.24 186.128 100.24 186.811V192.411H98.8005ZM111.786 192.571C111.082 192.571 110.464 192.438 109.93 192.171C109.408 191.904 109.002 191.52 108.714 191.019C108.426 190.507 108.282 189.904 108.282 189.211V186.811C108.282 186.107 108.426 185.504 108.714 185.003C109.002 184.502 109.408 184.118 109.93 183.851C110.464 183.584 111.082 183.451 111.786 183.451C112.8 183.451 113.616 183.723 114.234 184.267C114.853 184.811 115.178 185.552 115.21 186.491H113.77C113.738 185.926 113.546 185.494 113.194 185.195C112.853 184.886 112.384 184.731 111.786 184.731C111.157 184.731 110.656 184.912 110.282 185.275C109.909 185.627 109.722 186.134 109.722 186.795V189.211C109.722 189.872 109.909 190.384 110.282 190.747C110.656 191.11 111.157 191.291 111.786 191.291C112.384 191.291 112.853 191.136 113.194 190.827C113.546 190.518 113.738 190.086 113.77 189.531H115.21C115.178 190.47 114.853 191.211 114.234 191.755C113.616 192.299 112.8 192.571 111.786 192.571ZM124.276 194.331C122.761 193.958 121.583 193.222 120.74 192.123C119.897 191.024 119.476 189.68 119.476 188.091V185.211C119.476 184.166 119.668 183.222 120.052 182.379C120.447 181.526 121.001 180.806 121.716 180.219C122.441 179.632 123.295 179.216 124.276 178.971V180.331C123.593 180.491 123.001 180.8 122.5 181.259C121.999 181.707 121.609 182.267 121.332 182.939C121.055 183.611 120.916 184.368 120.916 185.211V188.091C120.916 188.912 121.049 189.659 121.316 190.331C121.593 191.003 121.983 191.563 122.484 192.011C122.996 192.448 123.593 192.747 124.276 192.907V194.331ZM127.95 194.331V192.907C128.643 192.747 129.24 192.448 129.742 192.011C130.243 191.563 130.627 191.003 130.894 190.331C131.171 189.659 131.31 188.912 131.31 188.091V185.211C131.31 184.368 131.171 183.611 130.894 182.939C130.616 182.267 130.227 181.707 129.726 181.259C129.224 180.8 128.632 180.491 127.95 180.331V178.971C128.942 179.216 129.795 179.632 130.51 180.219C131.224 180.806 131.774 181.526 132.158 182.379C132.552 183.222 132.75 184.166 132.75 185.211V188.091C132.75 189.68 132.328 191.024 131.486 192.123C130.643 193.222 129.464 193.958 127.95 194.331Z" fill="white"/>
<path d="M184.72 137.88V135.32H198.48V137.88H184.72ZM184.72 145.56V143H198.48V145.56H184.72Z" fill="black"/>
<path d="M202.72 137.88V135.32H216.48V137.88H202.72ZM202.72 145.56V143H216.48V145.56H202.72Z" fill="black"/>
<path d="M199.22 124.9V121.3H200.22C201.073 121.3 201.747 121.067 202.24 120.6C202.747 120.12 203 119.487 203 118.7C203 117.913 202.747 117.287 202.24 116.82C201.747 116.34 201.067 116.1 200.2 116.1H197.7V114.4H200.2C201.133 114.4 201.94 114.58 202.62 114.94C203.313 115.287 203.847 115.78 204.22 116.42C204.607 117.06 204.8 117.82 204.8 118.7C204.8 119.46 204.64 120.147 204.32 120.76C204 121.36 203.553 121.84 202.98 122.2C202.42 122.56 201.767 122.76 201.02 122.8V124.9H199.22ZM199.8 129.1C199.453 129.1 199.167 128.987 198.94 128.76C198.713 128.533 198.6 128.247 198.6 127.9C198.6 127.553 198.713 127.267 198.94 127.04C199.167 126.813 199.453 126.7 199.8 126.7H200.4C200.787 126.7 201.08 126.813 201.28 127.04C201.493 127.253 201.6 127.533 201.6 127.88C201.6 128.227 201.487 128.52 201.26 128.76C201.033 128.987 200.747 129.1 200.4 129.1H199.8Z" fill="black"/>
<rect x="251" y="34" width="78" height="212" rx="8" fill="#F2F2F2"/>
<line x1="290.5" y1="44" x2="290.5" y2="234" stroke="black"/>
<rect x="260" y="167" width="60" height="45" rx="8" fill="#7954F6"/>
<path d="M268.095 194.411V193.099H271.215V186.923H268.495V185.611H272.655V193.099H275.615V194.411H268.095ZM271.775 184.027C271.423 184.027 271.145 183.936 270.943 183.755C270.74 183.574 270.639 183.328 270.639 183.019C270.639 182.699 270.74 182.448 270.943 182.267C271.145 182.075 271.423 181.979 271.775 181.979C272.127 181.979 272.404 182.075 272.607 182.267C272.809 182.448 272.911 182.699 272.911 183.019C272.911 183.328 272.809 183.574 272.607 183.755C272.404 183.936 272.127 184.027 271.775 184.027ZM277.8 194.411V185.611H279.24V187.291H279.544L279.24 187.627C279.24 186.934 279.448 186.4 279.864 186.027C280.28 185.643 280.856 185.451 281.592 185.451C282.478 185.451 283.182 185.723 283.704 186.267C284.227 186.811 284.488 187.552 284.488 188.491V194.411H283.048V188.651C283.048 188.022 282.878 187.542 282.536 187.211C282.206 186.87 281.752 186.699 281.176 186.699C280.579 186.699 280.104 186.88 279.752 187.243C279.411 187.606 279.24 188.128 279.24 188.811V194.411H277.8ZM290.786 194.571C290.082 194.571 289.464 194.438 288.93 194.171C288.408 193.904 288.002 193.52 287.714 193.019C287.426 192.507 287.282 191.904 287.282 191.211V188.811C287.282 188.107 287.426 187.504 287.714 187.003C288.002 186.502 288.408 186.118 288.93 185.851C289.464 185.584 290.082 185.451 290.786 185.451C291.8 185.451 292.616 185.723 293.234 186.267C293.853 186.811 294.178 187.552 294.21 188.491H292.77C292.738 187.926 292.546 187.494 292.194 187.195C291.853 186.886 291.384 186.731 290.786 186.731C290.157 186.731 289.656 186.912 289.282 187.275C288.909 187.627 288.722 188.134 288.722 188.795V191.211C288.722 191.872 288.909 192.384 289.282 192.747C289.656 193.11 290.157 193.291 290.786 193.291C291.384 193.291 291.853 193.136 292.194 192.827C292.546 192.518 292.738 192.086 292.77 191.531H294.21C294.178 192.47 293.853 193.211 293.234 193.755C292.616 194.299 291.8 194.571 290.786 194.571ZM303.276 196.331C301.761 195.958 300.583 195.222 299.74 194.123C298.897 193.024 298.476 191.68 298.476 190.091V187.211C298.476 186.166 298.668 185.222 299.052 184.379C299.447 183.526 300.001 182.806 300.716 182.219C301.441 181.632 302.295 181.216 303.276 180.971V182.331C302.593 182.491 302.001 182.8 301.5 183.259C300.999 183.707 300.609 184.267 300.332 184.939C300.055 185.611 299.916 186.368 299.916 187.211V190.091C299.916 190.912 300.049 191.659 300.316 192.331C300.593 193.003 300.983 193.563 301.484 194.011C301.996 194.448 302.593 194.747 303.276 194.907V196.331ZM306.95 196.331V194.907C307.643 194.747 308.24 194.448 308.742 194.011C309.243 193.563 309.627 193.003 309.894 192.331C310.171 191.659 310.31 190.912 310.31 190.091V187.211C310.31 186.368 310.171 185.611 309.894 184.939C309.616 184.267 309.227 183.707 308.726 183.259C308.224 182.8 307.632 182.491 306.95 182.331V180.971C307.942 181.216 308.795 181.632 309.51 182.219C310.224 182.806 310.774 183.526 311.158 184.379C311.552 185.222 311.75 186.166 311.75 187.211V190.091C311.75 191.68 311.328 193.024 310.486 194.123C309.643 195.222 308.464 195.958 306.95 196.331Z" fill="white"/>
<rect x="260" y="65" width="60" height="45" rx="8" fill="#7954F6"/>
<path d="M268.095 92.411V91.099H271.215V84.923H268.495V83.611H272.655V91.099H275.615V92.411H268.095ZM271.775 82.027C271.423 82.027 271.145 81.9363 270.943 81.755C270.74 81.5737 270.639 81.3283 270.639 81.019C270.639 80.699 270.74 80.4483 270.943 80.267C271.145 80.075 271.423 79.979 271.775 79.979C272.127 79.979 272.404 80.075 272.607 80.267C272.809 80.4483 272.911 80.699 272.911 81.019C272.911 81.3283 272.809 81.5737 272.607 81.755C272.404 81.9363 272.127 82.027 271.775 82.027ZM277.8 92.411V83.611H279.24V85.291H279.544L279.24 85.627C279.24 84.9337 279.448 84.4003 279.864 84.027C280.28 83.643 280.856 83.451 281.592 83.451C282.478 83.451 283.182 83.723 283.704 84.267C284.227 84.811 284.488 85.5523 284.488 86.491V92.411H283.048V86.651C283.048 86.0217 282.878 85.5417 282.536 85.211C282.206 84.8697 281.752 84.699 281.176 84.699C280.579 84.699 280.104 84.8803 279.752 85.243C279.411 85.6057 279.24 86.1283 279.24 86.811V92.411H277.8ZM290.786 92.571C290.082 92.571 289.464 92.4377 288.93 92.171C288.408 91.9043 288.002 91.5203 287.714 91.019C287.426 90.507 287.282 89.9043 287.282 89.211V86.811C287.282 86.107 287.426 85.5043 287.714 85.003C288.002 84.5017 288.408 84.1177 288.93 83.851C289.464 83.5843 290.082 83.451 290.786 83.451C291.8 83.451 292.616 83.723 293.234 84.267C293.853 84.811 294.178 85.5523 294.21 86.491H292.77C292.738 85.9257 292.546 85.4937 292.194 85.195C291.853 84.8857 291.384 84.731 290.786 84.731C290.157 84.731 289.656 84.9123 289.282 85.275C288.909 85.627 288.722 86.1337 288.722 86.795V89.211C288.722 89.8723 288.909 90.3843 289.282 90.747C289.656 91.1097 290.157 91.291 290.786 91.291C291.384 91.291 291.853 91.1363 292.194 90.827C292.546 90.5177 292.738 90.0857 292.77 89.531H294.21C294.178 90.4697 293.853 91.211 293.234 91.755C292.616 92.299 291.8 92.571 290.786 92.571ZM303.276 94.331C301.761 93.9577 300.583 93.2217 299.74 92.123C298.897 91.0243 298.476 89.6803 298.476 88.091V85.211C298.476 84.1657 298.668 83.2217 299.052 82.379C299.447 81.5257 300.001 80.8057 300.716 80.219C301.441 79.6323 302.295 79.2163 303.276 78.971V80.331C302.593 80.491 302.001 80.8003 301.5 81.259C300.999 81.707 300.609 82.267 300.332 82.939C300.055 83.611 299.916 84.3683 299.916 85.211V88.091C299.916 88.9123 300.049 89.659 300.316 90.331C300.593 91.003 300.983 91.563 301.484 92.011C301.996 92.4483 302.593 92.747 303.276 92.907V94.331ZM306.95 94.331V92.907C307.643 92.747 308.24 92.4483 308.742 92.011C309.243 91.563 309.627 91.003 309.894 90.331C310.171 89.659 310.31 88.9123 310.31 88.091V85.211C310.31 84.3683 310.171 83.611 309.894 82.939C309.616 82.267 309.227 81.707 308.726 81.259C308.224 80.8003 307.632 80.491 306.95 80.331V78.971C307.942 79.2163 308.795 79.6323 309.51 80.219C310.224 80.8057 310.774 81.5257 311.158 82.379C311.552 83.2217 311.75 84.1657 311.75 85.211V88.091C311.75 89.6803 311.328 91.0243 310.486 92.123C309.643 93.2217 308.464 93.9577 306.95 94.331Z" fill="white"/>
<rect x="260" y="116" width="60" height="45" rx="8" fill="#D55068"/>
<path d="M271.023 143.571C270.148 143.571 269.439 143.278 268.895 142.691C268.361 142.104 268.095 141.31 268.095 140.307V137.731C268.095 136.718 268.361 135.918 268.895 135.331C269.428 134.744 270.137 134.451 271.023 134.451C271.748 134.451 272.329 134.648 272.767 135.043C273.204 135.438 273.423 135.966 273.423 136.627L273.135 136.291H273.455L273.423 134.291V131.731H274.863V143.411H273.423V141.731H273.135L273.423 141.395C273.423 142.067 273.204 142.6 272.767 142.995C272.329 143.379 271.748 143.571 271.023 143.571ZM271.503 142.323C272.1 142.323 272.569 142.136 272.911 141.763C273.252 141.39 273.423 140.872 273.423 140.211V137.811C273.423 137.15 273.252 136.632 272.911 136.259C272.569 135.886 272.1 135.699 271.503 135.699C270.895 135.699 270.415 135.88 270.063 136.243C269.711 136.606 269.535 137.128 269.535 137.811V140.211C269.535 140.894 269.711 141.416 270.063 141.779C270.415 142.142 270.895 142.323 271.503 142.323ZM281.128 143.571C280.435 143.571 279.827 143.432 279.304 143.155C278.792 142.878 278.392 142.488 278.104 141.987C277.827 141.475 277.688 140.883 277.688 140.211V137.811C277.688 137.128 277.827 136.536 278.104 136.035C278.392 135.534 278.792 135.144 279.304 134.867C279.827 134.59 280.435 134.451 281.128 134.451C281.822 134.451 282.424 134.59 282.936 134.867C283.459 135.144 283.859 135.534 284.136 136.035C284.424 136.536 284.568 137.128 284.568 137.811V139.363H279.096V140.211C279.096 140.904 279.272 141.438 279.624 141.811C279.976 142.174 280.478 142.355 281.128 142.355C281.683 142.355 282.131 142.259 282.472 142.067C282.814 141.864 283.022 141.566 283.096 141.171H284.536C284.44 141.907 284.078 142.494 283.448 142.931C282.83 143.358 282.056 143.571 281.128 143.571ZM283.16 138.403V137.811C283.16 137.118 282.984 136.584 282.632 136.211C282.291 135.838 281.79 135.651 281.128 135.651C280.478 135.651 279.976 135.838 279.624 136.211C279.272 136.584 279.096 137.118 279.096 137.811V138.275H283.272L283.16 138.403ZM290.786 143.571C290.082 143.571 289.464 143.438 288.93 143.171C288.408 142.904 288.002 142.52 287.714 142.019C287.426 141.507 287.282 140.904 287.282 140.211V137.811C287.282 137.107 287.426 136.504 287.714 136.003C288.002 135.502 288.408 135.118 288.93 134.851C289.464 134.584 290.082 134.451 290.786 134.451C291.8 134.451 292.616 134.723 293.234 135.267C293.853 135.811 294.178 136.552 294.21 137.491H292.77C292.738 136.926 292.546 136.494 292.194 136.195C291.853 135.886 291.384 135.731 290.786 135.731C290.157 135.731 289.656 135.912 289.282 136.275C288.909 136.627 288.722 137.134 288.722 137.795V140.211C288.722 140.872 288.909 141.384 289.282 141.747C289.656 142.11 290.157 142.291 290.786 142.291C291.384 142.291 291.853 142.136 292.194 141.827C292.546 141.518 292.738 141.086 292.77 140.531H294.21C294.178 141.47 293.853 142.211 293.234 142.755C292.616 143.299 291.8 143.571 290.786 143.571ZM303.276 145.331C301.761 144.958 300.583 144.222 299.74 143.123C298.897 142.024 298.476 140.68 298.476 139.091V136.211C298.476 135.166 298.668 134.222 299.052 133.379C299.447 132.526 300.001 131.806 300.716 131.219C301.441 130.632 302.295 130.216 303.276 129.971V131.331C302.593 131.491 302.001 131.8 301.5 132.259C300.999 132.707 300.609 133.267 300.332 133.939C300.055 134.611 299.916 135.368 299.916 136.211V139.091C299.916 139.912 300.049 140.659 300.316 141.331C300.593 142.003 300.983 142.563 301.484 143.011C301.996 143.448 302.593 143.747 303.276 143.907V145.331ZM306.95 145.331V143.907C307.643 143.747 308.24 143.448 308.742 143.011C309.243 142.563 309.627 142.003 309.894 141.331C310.171 140.659 310.31 139.912 310.31 139.091V136.211C310.31 135.368 310.171 134.611 309.894 133.939C309.616 133.267 309.227 132.707 308.726 132.259C308.224 131.8 307.632 131.491 306.95 131.331V129.971C307.942 130.216 308.795 130.632 309.51 131.219C310.224 131.806 310.774 132.526 311.158 133.379C311.552 134.222 311.75 135.166 311.75 136.211V139.091C311.75 140.68 311.328 142.024 310.486 143.123C309.643 144.222 308.464 144.958 306.95 145.331Z" fill="white"/>
<rect x="381" y="34" width="78" height="212" rx="8" fill="#F2F2F2"/>
<line x1="420.5" y1="44" x2="420.5" y2="234" stroke="black"/>
<rect x="390" y="167" width="60" height="45" rx="8" fill="#7954F6"/>
<path d="M398.095 194.411V193.099H401.215V186.923H398.495V185.611H402.655V193.099H405.615V194.411H398.095ZM401.775 184.027C401.423 184.027 401.145 183.936 400.943 183.755C400.74 183.574 400.639 183.328 400.639 183.019C400.639 182.699 400.74 182.448 400.943 182.267C401.145 182.075 401.423 181.979 401.775 181.979C402.127 181.979 402.404 182.075 402.607 182.267C402.809 182.448 402.911 182.699 402.911 183.019C402.911 183.328 402.809 183.574 402.607 183.755C402.404 183.936 402.127 184.027 401.775 184.027ZM407.8 194.411V185.611H409.24V187.291H409.544L409.24 187.627C409.24 186.934 409.448 186.4 409.864 186.027C410.28 185.643 410.856 185.451 411.592 185.451C412.478 185.451 413.182 185.723 413.704 186.267C414.227 186.811 414.488 187.552 414.488 188.491V194.411H413.048V188.651C413.048 188.022 412.878 187.542 412.536 187.211C412.206 186.87 411.752 186.699 411.176 186.699C410.579 186.699 410.104 186.88 409.752 187.243C409.411 187.606 409.24 188.128 409.24 188.811V194.411H407.8ZM420.786 194.571C420.082 194.571 419.463 194.438 418.93 194.171C418.407 193.904 418.002 193.52 417.714 193.019C417.426 192.507 417.282 191.904 417.282 191.211V188.811C417.282 188.107 417.426 187.504 417.714 187.003C418.002 186.502 418.407 186.118 418.93 185.851C419.463 185.584 420.082 185.451 420.786 185.451C421.799 185.451 422.615 185.723 423.234 186.267C423.853 186.811 424.178 187.552 424.21 188.491H422.77C422.738 187.926 422.546 187.494 422.194 187.195C421.853 186.886 421.383 186.731 420.786 186.731C420.157 186.731 419.655 186.912 419.282 187.275C418.909 187.627 418.722 188.134 418.722 188.795V191.211C418.722 191.872 418.909 192.384 419.282 192.747C419.655 193.11 420.157 193.291 420.786 193.291C421.383 193.291 421.853 193.136 422.194 192.827C422.546 192.518 422.738 192.086 422.77 191.531H424.21C424.178 192.47 423.853 193.211 423.234 193.755C422.615 194.299 421.799 194.571 420.786 194.571ZM433.276 196.331C431.761 195.958 430.583 195.222 429.74 194.123C428.897 193.024 428.476 191.68 428.476 190.091V187.211C428.476 186.166 428.668 185.222 429.052 184.379C429.447 183.526 430.001 182.806 430.716 182.219C431.441 181.632 432.295 181.216 433.276 180.971V182.331C432.593 182.491 432.001 182.8 431.5 183.259C430.999 183.707 430.609 184.267 430.332 184.939C430.055 185.611 429.916 186.368 429.916 187.211V190.091C429.916 190.912 430.049 191.659 430.316 192.331C430.593 193.003 430.983 193.563 431.484 194.011C431.996 194.448 432.593 194.747 433.276 194.907V196.331ZM436.95 196.331V194.907C437.643 194.747 438.24 194.448 438.742 194.011C439.243 193.563 439.627 193.003 439.894 192.331C440.171 191.659 440.31 190.912 440.31 190.091V187.211C440.31 186.368 440.171 185.611 439.894 184.939C439.616 184.267 439.227 183.707 438.726 183.259C438.224 182.8 437.632 182.491 436.95 182.331V180.971C437.942 181.216 438.795 181.632 439.51 182.219C440.224 182.806 440.774 183.526 441.158 184.379C441.552 185.222 441.75 186.166 441.75 187.211V190.091C441.75 191.68 441.328 193.024 440.486 194.123C439.643 195.222 438.464 195.958 436.95 196.331Z" fill="white"/>
<rect x="390" y="116" width="60" height="45" rx="8" fill="#7954F6"/>
<path d="M398.095 143.411V142.099H401.215V135.923H398.495V134.611H402.655V142.099H405.615V143.411H398.095ZM401.775 133.027C401.423 133.027 401.145 132.936 400.943 132.755C400.74 132.574 400.639 132.328 400.639 132.019C400.639 131.699 400.74 131.448 400.943 131.267C401.145 131.075 401.423 130.979 401.775 130.979C402.127 130.979 402.404 131.075 402.607 131.267C402.809 131.448 402.911 131.699 402.911 132.019C402.911 132.328 402.809 132.574 402.607 132.755C402.404 132.936 402.127 133.027 401.775 133.027ZM407.8 143.411V134.611H409.24V136.291H409.544L409.24 136.627C409.24 135.934 409.448 135.4 409.864 135.027C410.28 134.643 410.856 134.451 411.592 134.451C412.478 134.451 413.182 134.723 413.704 135.267C414.227 135.811 414.488 136.552 414.488 137.491V143.411H413.048V137.651C413.048 137.022 412.878 136.542 412.536 136.211C412.206 135.87 411.752 135.699 411.176 135.699C410.579 135.699 410.104 135.88 409.752 136.243C409.411 136.606 409.24 137.128 409.24 137.811V143.411H407.8ZM420.786 143.571C420.082 143.571 419.463 143.438 418.93 143.171C418.407 142.904 418.002 142.52 417.714 142.019C417.426 141.507 417.282 140.904 417.282 140.211V137.811C417.282 137.107 417.426 136.504 417.714 136.003C418.002 135.502 418.407 135.118 418.93 134.851C419.463 134.584 420.082 134.451 420.786 134.451C421.799 134.451 422.615 134.723 423.234 135.267C423.853 135.811 424.178 136.552 424.21 137.491H422.77C422.738 136.926 422.546 136.494 422.194 136.195C421.853 135.886 421.383 135.731 420.786 135.731C420.157 135.731 419.655 135.912 419.282 136.275C418.909 136.627 418.722 137.134 418.722 137.795V140.211C418.722 140.872 418.909 141.384 419.282 141.747C419.655 142.11 420.157 142.291 420.786 142.291C421.383 142.291 421.853 142.136 422.194 141.827C422.546 141.518 422.738 141.086 422.77 140.531H424.21C424.178 141.47 423.853 142.211 423.234 142.755C422.615 143.299 421.799 143.571 420.786 143.571ZM433.276 145.331C431.761 144.958 430.583 144.222 429.74 143.123C428.897 142.024 428.476 140.68 428.476 139.091V136.211C428.476 135.166 428.668 134.222 429.052 133.379C429.447 132.526 430.001 131.806 430.716 131.219C431.441 130.632 432.295 130.216 433.276 129.971V131.331C432.593 131.491 432.001 131.8 431.5 132.259C430.999 132.707 430.609 133.267 430.332 133.939C430.055 134.611 429.916 135.368 429.916 136.211V139.091C429.916 139.912 430.049 140.659 430.316 141.331C430.593 142.003 430.983 142.563 431.484 143.011C431.996 143.448 432.593 143.747 433.276 143.907V145.331ZM436.95 145.331V143.907C437.643 143.747 438.24 143.448 438.742 143.011C439.243 142.563 439.627 142.003 439.894 141.331C440.171 140.659 440.31 139.912 440.31 139.091V136.211C440.31 135.368 440.171 134.611 439.894 133.939C439.616 133.267 439.227 132.707 438.726 132.259C438.224 131.8 437.632 131.491 436.95 131.331V129.971C437.942 130.216 438.795 130.632 439.51 131.219C440.224 131.806 440.774 132.526 441.158 133.379C441.552 134.222 441.75 135.166 441.75 136.211V139.091C441.75 140.68 441.328 142.024 440.486 143.123C439.643 144.222 438.464 144.958 436.95 145.331Z" fill="white"/>
<rect x="390" y="65" width="60" height="45" rx="8" fill="#D55068"/>
<path d="M401.023 92.571C400.148 92.571 399.439 92.2777 398.895 91.691C398.361 91.1043 398.095 90.3097 398.095 89.307V86.731C398.095 85.7177 398.361 84.9177 398.895 84.331C399.428 83.7443 400.137 83.451 401.023 83.451C401.748 83.451 402.329 83.6483 402.767 84.043C403.204 84.4377 403.423 84.9657 403.423 85.627L403.135 85.291H403.455L403.423 83.291V80.731H404.863V92.411H403.423V90.731H403.135L403.423 90.395C403.423 91.067 403.204 91.6003 402.767 91.995C402.329 92.379 401.748 92.571 401.023 92.571ZM401.503 91.323C402.1 91.323 402.569 91.1363 402.911 90.763C403.252 90.3897 403.423 89.8723 403.423 89.211V86.811C403.423 86.1497 403.252 85.6323 402.911 85.259C402.569 84.8857 402.1 84.699 401.503 84.699C400.895 84.699 400.415 84.8803 400.063 85.243C399.711 85.6057 399.535 86.1283 399.535 86.811V89.211C399.535 89.8937 399.711 90.4163 400.063 90.779C400.415 91.1417 400.895 91.323 401.503 91.323ZM411.128 92.571C410.435 92.571 409.827 92.4323 409.304 92.155C408.792 91.8777 408.392 91.4883 408.104 90.987C407.827 90.475 407.688 89.883 407.688 89.211V86.811C407.688 86.1283 407.827 85.5363 408.104 85.035C408.392 84.5337 408.792 84.1443 409.304 83.867C409.827 83.5897 410.435 83.451 411.128 83.451C411.822 83.451 412.424 83.5897 412.936 83.867C413.459 84.1443 413.859 84.5337 414.136 85.035C414.424 85.5363 414.568 86.1283 414.568 86.811V88.363H409.096V89.211C409.096 89.9043 409.272 90.4377 409.624 90.811C409.976 91.1737 410.478 91.355 411.128 91.355C411.683 91.355 412.131 91.259 412.472 91.067C412.814 90.8643 413.022 90.5657 413.096 90.171H414.536C414.44 90.907 414.078 91.4937 413.448 91.931C412.83 92.3577 412.056 92.571 411.128 92.571ZM413.16 87.403V86.811C413.16 86.1177 412.984 85.5843 412.632 85.211C412.291 84.8377 411.79 84.651 411.128 84.651C410.478 84.651 409.976 84.8377 409.624 85.211C409.272 85.5843 409.096 86.1177 409.096 86.811V87.275H413.272L413.16 87.403ZM420.786 92.571C420.082 92.571 419.463 92.4377 418.93 92.171C418.407 91.9043 418.002 91.5203 417.714 91.019C417.426 90.507 417.282 89.9043 417.282 89.211V86.811C417.282 86.107 417.426 85.5043 417.714 85.003C418.002 84.5017 418.407 84.1177 418.93 83.851C419.463 83.5843 420.082 83.451 420.786 83.451C421.799 83.451 422.615 83.723 423.234 84.267C423.853 84.811 424.178 85.5523 424.21 86.491H422.77C422.738 85.9257 422.546 85.4937 422.194 85.195C421.853 84.8857 421.383 84.731 420.786 84.731C420.157 84.731 419.655 84.9123 419.282 85.275C418.909 85.627 418.722 86.1337 418.722 86.795V89.211C418.722 89.8723 418.909 90.3843 419.282 90.747C419.655 91.1097 420.157 91.291 420.786 91.291C421.383 91.291 421.853 91.1363 422.194 90.827C422.546 90.5177 422.738 90.0857 422.77 89.531H424.21C424.178 90.4697 423.853 91.211 423.234 91.755C422.615 92.299 421.799 92.571 420.786 92.571ZM433.276 94.331C431.761 93.9577 430.583 93.2217 429.74 92.123C428.897 91.0243 428.476 89.6803 428.476 88.091V85.211C428.476 84.1657 428.668 83.2217 429.052 82.379C429.447 81.5257 430.001 80.8057 430.716 80.219C431.441 79.6323 432.295 79.2163 433.276 78.971V80.331C432.593 80.491 432.001 80.8003 431.5 81.259C430.999 81.707 430.609 82.267 430.332 82.939C430.055 83.611 429.916 84.3683 429.916 85.211V88.091C429.916 88.9123 430.049 89.659 430.316 90.331C430.593 91.003 430.983 91.563 431.484 92.011C431.996 92.4483 432.593 92.747 433.276 92.907V94.331ZM436.95 94.331V92.907C437.643 92.747 438.24 92.4483 438.742 92.011C439.243 91.563 439.627 91.003 439.894 90.331C440.171 89.659 440.31 88.9123 440.31 88.091V85.211C440.31 84.3683 440.171 83.611 439.894 82.939C439.616 82.267 439.227 81.707 438.726 81.259C438.224 80.8003 437.632 80.491 436.95 80.331V78.971C437.942 79.2163 438.795 79.6323 439.51 80.219C440.224 80.8057 440.774 81.5257 441.158 82.379C441.552 83.2217 441.75 84.1657 441.75 85.211V88.091C441.75 89.6803 441.328 91.0243 440.486 92.123C439.643 93.2217 438.464 93.9577 436.95 94.331Z" fill="white"/>
<path d="M349 146.16C348.12 146.16 347.36 145.993 346.72 145.66C346.08 145.327 345.58 144.847 345.22 144.22C344.873 143.58 344.7 142.827 344.7 141.96V139.04C344.7 138.16 344.873 137.407 345.22 136.78C345.58 136.153 346.08 135.673 346.72 135.34C347.36 135.007 348.12 134.84 349 134.84C349.88 134.84 350.64 135.007 351.28 135.34C351.92 135.673 352.413 136.153 352.76 136.78C353.12 137.407 353.3 138.153 353.3 139.02V141.96C353.3 142.827 353.12 143.58 352.76 144.22C352.413 144.847 351.92 145.327 351.28 145.66C350.64 145.993 349.88 146.16 349 146.16ZM349 144.56C349.787 144.56 350.4 144.34 350.84 143.9C351.28 143.46 351.5 142.813 351.5 141.96V139.04C351.5 138.187 351.28 137.54 350.84 137.1C350.4 136.66 349.787 136.44 349 136.44C348.227 136.44 347.613 136.66 347.16 137.1C346.72 137.54 346.5 138.187 346.5 139.04V141.96C346.5 142.813 346.72 143.46 347.16 143.9C347.613 144.34 348.227 144.56 349 144.56ZM357.212 146V135H358.972V137.1H359.392L358.812 138.4C358.812 137.213 359.066 136.32 359.572 135.72C360.092 135.107 360.859 134.8 361.872 134.8C363.032 134.8 363.952 135.167 364.632 135.9C365.326 136.62 365.672 137.6 365.672 138.84V139.5H363.872V139C363.872 138.133 363.659 137.473 363.232 137.02C362.819 136.553 362.226 136.32 361.452 136.32C360.692 136.32 360.092 136.553 359.652 137.02C359.226 137.487 359.012 138.147 359.012 139V146H357.212Z" fill="black"/>
</svg>
